M48
;Layer_Color=9474304
;FILE_FORMAT=4:3
METRIC,TZ
;TYPE=PLATED
T01F00S00C0.200
T02F00S00C0.305
T03F00S00C0.711
T04F00S00C0.890
T05F00S00C1.600
%
T01
X-488Y-4511
X-1038Y-3559
X-85Y-3009
X465Y-3961
X-635Y-2056
X-1587Y-2606
T02
X-9398Y-8103
X-7925Y-8509
X-6147Y-10820
X-4420Y-11151
X-4394Y-2515
X-5029Y787
X-5537Y1626
X-5969Y2896
X-4166Y2261
X-3759Y1397
X-2007Y1118
X-889Y1676
X229Y2286
X4293Y2591
X6071Y2134
X5817Y-3988
X4674Y-4547
X3378Y-5207
X3962Y-6350
X4496Y-7391
X5664Y-6909
X7010Y-6248
X7899Y-5486
X7747Y-3810
X2159Y-5791
X2769Y-6883
X3327Y-8052
X2108Y-8636
X1346Y-7468
X1016Y-6375
X889Y-4953
X102Y-5359
X-11862Y-5537
X-12370Y-4724
X-10868Y-2154
X-14122Y-25
X-12497Y2362
X-4851Y3327
X584Y6807
X1600Y7366
X4851Y10719
T03
X5740Y4978
X9271Y4242
X8255Y8890
T04
X-12370Y-533
X-13370Y1199
T05
X10342Y2000
X7802Y6400
M30
