G04*
G04 #@! TF.GenerationSoftware,Altium Limited,Altium Designer,25.8.1 (18)*
G04*
G04 Layer_Color=32896*
%FSLAX44Y44*%
%MOMM*%
G71*
G04*
G04 #@! TF.SameCoordinates,2BA1844E-35A1-40AA-B719-48A9BFBC8ED3*
G04*
G04*
G04 #@! TF.FilePolarity,Positive*
G04*
G01*
G75*
%ADD14C,0.2540*%
%ADD15C,0.0762*%
D14*
X66298Y37084D02*
X84074D01*
X66298Y25233D02*
X84074D01*
X74763Y37084D02*
Y25233D01*
X66298Y15245D02*
X67144Y17784D01*
X69684Y19477D01*
X73916Y20324D01*
X76456D01*
X80688Y19477D01*
X83228Y17784D01*
X84074Y15245D01*
Y13552D01*
X83228Y11012D01*
X80688Y9319D01*
X76456Y8473D01*
X73916D01*
X69684Y9319D01*
X67144Y11012D01*
X66298Y13552D01*
Y15245D01*
Y2801D02*
Y-6510D01*
X73070Y-1431D01*
Y-3971D01*
X73916Y-5663D01*
X74763Y-6510D01*
X77302Y-7357D01*
X78995D01*
X81535Y-6510D01*
X83228Y-4817D01*
X84074Y-2278D01*
Y262D01*
X83228Y2801D01*
X82381Y3648D01*
X80688Y4494D01*
X66298Y-11335D02*
X84074D01*
X66298D02*
Y-18953D01*
X67144Y-21493D01*
X67991Y-22339D01*
X69684Y-23186D01*
X71377D01*
X73070Y-22339D01*
X73916Y-21493D01*
X74763Y-18953D01*
Y-11335D01*
Y-17260D02*
X84074Y-23186D01*
X66298Y-32243D02*
X67144Y-29704D01*
X69684Y-28011D01*
X73916Y-27164D01*
X76456D01*
X80688Y-28011D01*
X83228Y-29704D01*
X84074Y-32243D01*
Y-33936D01*
X83228Y-36476D01*
X80688Y-38169D01*
X76456Y-39015D01*
X73916D01*
X69684Y-38169D01*
X67144Y-36476D01*
X66298Y-33936D01*
Y-32243D01*
X72223Y-42993D02*
X84074Y-52305D01*
X72223D02*
X84074Y-42993D01*
D15*
X-80181Y-125077D02*
X-79794Y-123916D01*
Y-126238D01*
X-80181Y-125077D01*
X-80954Y-125851D01*
X-82115Y-126238D01*
X-82889D01*
X-84050Y-125851D01*
X-84824Y-125077D01*
X-85211Y-124303D01*
X-85598Y-123142D01*
Y-121208D01*
X-85211Y-120047D01*
X-84824Y-119273D01*
X-84050Y-118499D01*
X-82889Y-118112D01*
X-82115D01*
X-80954Y-118499D01*
X-80181Y-119273D01*
X-82889Y-126238D02*
X-83663Y-125851D01*
X-84437Y-125077D01*
X-84824Y-124303D01*
X-85211Y-123142D01*
Y-121208D01*
X-84824Y-120047D01*
X-84437Y-119273D01*
X-83663Y-118499D01*
X-82889Y-118112D01*
X-80181Y-121208D02*
Y-118112D01*
X-79794Y-121208D02*
Y-118112D01*
X-81341Y-121208D02*
X-78633D01*
X-76427Y-126238D02*
Y-118112D01*
X-76040Y-126238D02*
X-71396Y-118886D01*
X-76040Y-125464D02*
X-71396Y-118112D01*
Y-126238D02*
Y-118112D01*
X-77588Y-126238D02*
X-76040D01*
X-72557D02*
X-70236D01*
X-77588Y-118112D02*
X-75266D01*
X-68068Y-126238D02*
Y-118112D01*
X-67682Y-126238D02*
Y-118112D01*
X-69229Y-126238D02*
X-65360D01*
X-64199Y-125851D01*
X-63425Y-125077D01*
X-63038Y-124303D01*
X-62651Y-123142D01*
Y-121208D01*
X-63038Y-120047D01*
X-63425Y-119273D01*
X-64199Y-118499D01*
X-65360Y-118112D01*
X-69229D01*
X-65360Y-126238D02*
X-64586Y-125851D01*
X-63812Y-125077D01*
X-63425Y-124303D01*
X-63038Y-123142D01*
Y-121208D01*
X-63425Y-120047D01*
X-63812Y-119273D01*
X-64586Y-118499D01*
X-65360Y-118112D01*
X55455Y-125585D02*
X55842Y-124424D01*
Y-126746D01*
X55455Y-125585D01*
X54682Y-126359D01*
X53521Y-126746D01*
X52747D01*
X51586Y-126359D01*
X50812Y-125585D01*
X50425Y-124811D01*
X50038Y-123650D01*
Y-121715D01*
X50425Y-120555D01*
X50812Y-119781D01*
X51586Y-119007D01*
X52747Y-118620D01*
X53521D01*
X54682Y-119007D01*
X55455Y-119781D01*
X52747Y-126746D02*
X51973Y-126359D01*
X51199Y-125585D01*
X50812Y-124811D01*
X50425Y-123650D01*
Y-121715D01*
X50812Y-120555D01*
X51199Y-119781D01*
X51973Y-119007D01*
X52747Y-118620D01*
X55455Y-121715D02*
Y-118620D01*
X55842Y-121715D02*
Y-118620D01*
X54295Y-121715D02*
X57003D01*
X59209Y-126746D02*
Y-118620D01*
X59596Y-126746D02*
X64240Y-119394D01*
X59596Y-125972D02*
X64240Y-118620D01*
Y-126746D02*
Y-118620D01*
X58048Y-126746D02*
X59596D01*
X63079D02*
X65401D01*
X58048Y-118620D02*
X60370D01*
X67568Y-126746D02*
Y-118620D01*
X67954Y-126746D02*
Y-118620D01*
X66407Y-126746D02*
X70276D01*
X71437Y-126359D01*
X72211Y-125585D01*
X72598Y-124811D01*
X72985Y-123650D01*
Y-121715D01*
X72598Y-120555D01*
X72211Y-119781D01*
X71437Y-119007D01*
X70276Y-118620D01*
X66407D01*
X70276Y-126746D02*
X71050Y-126359D01*
X71824Y-125585D01*
X72211Y-124811D01*
X72598Y-123650D01*
Y-121715D01*
X72211Y-120555D01*
X71824Y-119781D01*
X71050Y-119007D01*
X70276Y-118620D01*
X82212Y122537D02*
X81826Y121376D01*
Y123698D01*
X82212Y122537D01*
X82986Y123311D01*
X84147Y123698D01*
X84921D01*
X86082Y123311D01*
X86856Y122537D01*
X87243Y121763D01*
X87630Y120602D01*
Y118667D01*
X87243Y117507D01*
X86856Y116733D01*
X86082Y115959D01*
X84921Y115572D01*
X84147D01*
X82986Y115959D01*
X82212Y116733D01*
X84921Y123698D02*
X85695Y123311D01*
X86469Y122537D01*
X86856Y121763D01*
X87243Y120602D01*
Y118667D01*
X86856Y117507D01*
X86469Y116733D01*
X85695Y115959D01*
X84921Y115572D01*
X82212Y118667D02*
Y115572D01*
X81826Y118667D02*
Y115572D01*
X83373Y118667D02*
X80665D01*
X78459Y123698D02*
Y115572D01*
X78072Y123698D02*
X73428Y116346D01*
X78072Y122924D02*
X73428Y115572D01*
Y123698D02*
Y115572D01*
X79620Y123698D02*
X78072D01*
X74589D02*
X72267D01*
X79620Y115572D02*
X77298D01*
X70100Y123698D02*
Y115572D01*
X69714Y123698D02*
Y115572D01*
X71261Y123698D02*
X67392D01*
X66231Y123311D01*
X65457Y122537D01*
X65070Y121763D01*
X64683Y120602D01*
Y118667D01*
X65070Y117507D01*
X65457Y116733D01*
X66231Y115959D01*
X67392Y115572D01*
X71261D01*
X67392Y123698D02*
X66618Y123311D01*
X65844Y122537D01*
X65457Y121763D01*
X65070Y120602D01*
Y118667D01*
X65457Y117507D01*
X65844Y116733D01*
X66618Y115959D01*
X67392Y115572D01*
X-61730Y125122D02*
X-62117Y123961D01*
Y126283D01*
X-61730Y125122D01*
X-60956Y125896D01*
X-59795Y126283D01*
X-59022D01*
X-57861Y125896D01*
X-57087Y125122D01*
X-56700Y124348D01*
X-56313Y123187D01*
Y121252D01*
X-56700Y120091D01*
X-57087Y119317D01*
X-57861Y118544D01*
X-59022Y118156D01*
X-59795D01*
X-60956Y118544D01*
X-61730Y119317D01*
X-59022Y126283D02*
X-58248Y125896D01*
X-57474Y125122D01*
X-57087Y124348D01*
X-56700Y123187D01*
Y121252D01*
X-57087Y120091D01*
X-57474Y119317D01*
X-58248Y118544D01*
X-59022Y118156D01*
X-61730Y121252D02*
Y118156D01*
X-62117Y121252D02*
Y118156D01*
X-60569Y121252D02*
X-63278D01*
X-65484Y126283D02*
Y118156D01*
X-65871Y126283D02*
X-70514Y118930D01*
X-65871Y125509D02*
X-70514Y118156D01*
Y126283D02*
Y118156D01*
X-64323Y126283D02*
X-65871D01*
X-69353D02*
X-71675D01*
X-64323Y118156D02*
X-66645D01*
X-73842Y126283D02*
Y118156D01*
X-74229Y126283D02*
Y118156D01*
X-72681Y126283D02*
X-76551D01*
X-77712Y125896D01*
X-78486Y125122D01*
X-78873Y124348D01*
X-79260Y123187D01*
Y121252D01*
X-78873Y120091D01*
X-78486Y119317D01*
X-77712Y118544D01*
X-76551Y118156D01*
X-72681D01*
X-76551Y126283D02*
X-77325Y125896D01*
X-78099Y125122D01*
X-78486Y124348D01*
X-78873Y123187D01*
Y121252D01*
X-78486Y120091D01*
X-78099Y119317D01*
X-77325Y118544D01*
X-76551Y118156D01*
X144671Y-338D02*
X145832Y-724D01*
X143510D01*
X144671Y-338D01*
X143897Y436D01*
X143510Y1597D01*
Y2371D01*
X143897Y3532D01*
X144671Y4306D01*
X145445Y4693D01*
X146606Y5080D01*
X148540D01*
X149701Y4693D01*
X150475Y4306D01*
X151249Y3532D01*
X151636Y2371D01*
Y1597D01*
X151249Y436D01*
X150475Y-338D01*
X143510Y2371D02*
X143897Y3145D01*
X144671Y3919D01*
X145445Y4306D01*
X146606Y4693D01*
X148540D01*
X149701Y4306D01*
X150475Y3919D01*
X151249Y3145D01*
X151636Y2371D01*
X148540Y-338D02*
X151636D01*
X148540Y-724D02*
X151636D01*
X148540Y823D02*
Y-1885D01*
X143510Y-4091D02*
X151636D01*
X143510Y-4478D02*
X150862Y-9122D01*
X144284Y-4478D02*
X151636Y-9122D01*
X143510D02*
X151636D01*
X143510Y-2930D02*
Y-4478D01*
Y-7961D02*
Y-10282D01*
X151636Y-2930D02*
Y-5252D01*
X143510Y-12450D02*
X151636D01*
X143510Y-12836D02*
X151636D01*
X143510Y-11289D02*
Y-15158D01*
X143897Y-16319D01*
X144671Y-17093D01*
X145445Y-17480D01*
X146606Y-17867D01*
X148540D01*
X149701Y-17480D01*
X150475Y-17093D01*
X151249Y-16319D01*
X151636Y-15158D01*
Y-11289D01*
X143510Y-15158D02*
X143897Y-15932D01*
X144671Y-16706D01*
X145445Y-17093D01*
X146606Y-17480D01*
X148540D01*
X149701Y-17093D01*
X150475Y-16706D01*
X151249Y-15932D01*
X151636Y-15158D01*
X-150223Y6266D02*
X-149062Y5879D01*
X-151384D01*
X-150223Y6266D01*
X-150997Y7040D01*
X-151384Y8201D01*
Y8975D01*
X-150997Y10136D01*
X-150223Y10910D01*
X-149449Y11297D01*
X-148288Y11684D01*
X-146354D01*
X-145193Y11297D01*
X-144419Y10910D01*
X-143645Y10136D01*
X-143258Y8975D01*
Y8201D01*
X-143645Y7040D01*
X-144419Y6266D01*
X-151384Y8975D02*
X-150997Y9749D01*
X-150223Y10523D01*
X-149449Y10910D01*
X-148288Y11297D01*
X-146354D01*
X-145193Y10910D01*
X-144419Y10523D01*
X-143645Y9749D01*
X-143258Y8975D01*
X-146354Y6266D02*
X-143258D01*
X-146354Y5879D02*
X-143258D01*
X-146354Y7427D02*
Y4719D01*
X-151384Y2513D02*
X-143258D01*
X-151384Y2126D02*
X-144032Y-2518D01*
X-150610Y2126D02*
X-143258Y-2518D01*
X-151384D02*
X-143258D01*
X-151384Y3674D02*
Y2126D01*
Y-1357D02*
Y-3679D01*
X-143258Y3674D02*
Y1352D01*
X-151384Y-5846D02*
X-143258D01*
X-151384Y-6232D02*
X-143258D01*
X-151384Y-4685D02*
Y-8554D01*
X-150997Y-9715D01*
X-150223Y-10489D01*
X-149449Y-10876D01*
X-148288Y-11263D01*
X-146354D01*
X-145193Y-10876D01*
X-144419Y-10489D01*
X-143645Y-9715D01*
X-143258Y-8554D01*
Y-4685D01*
X-151384Y-8554D02*
X-150997Y-9328D01*
X-150223Y-10102D01*
X-149449Y-10489D01*
X-148288Y-10876D01*
X-146354D01*
X-145193Y-10489D01*
X-144419Y-10102D01*
X-143645Y-9328D01*
X-143258Y-8554D01*
M02*
