G04*
G04 #@! TF.GenerationSoftware,Altium Limited,Altium Designer,25.8.1 (18)*
G04*
G04 Layer_Color=8421504*
%FSLAX44Y44*%
%MOMM*%
G71*
G04*
G04 #@! TF.SameCoordinates,2BA1844E-35A1-40AA-B719-48A9BFBC8ED3*
G04*
G04*
G04 #@! TF.FilePolarity,Positive*
G04*
G01*
G75*
G04:AMPARAMS|DCode=16|XSize=0.95mm|YSize=1.45mm|CornerRadius=0mm|HoleSize=0mm|Usage=FLASHONLY|Rotation=210.000|XOffset=0mm|YOffset=0mm|HoleType=Round|Shape=Rectangle|*
%AMROTATEDRECTD16*
4,1,4,0.0489,0.8654,0.7739,-0.3904,-0.0489,-0.8654,-0.7739,0.3904,0.0489,0.8654,0.0*
%
%ADD16ROTATEDRECTD16*%

%ADD17C,0.4050*%
G04:AMPARAMS|DCode=18|XSize=0.9mm|YSize=1.3mm|CornerRadius=0mm|HoleSize=0mm|Usage=FLASHONLY|Rotation=30.000|XOffset=0mm|YOffset=0mm|HoleType=Round|Shape=Rectangle|*
%AMROTATEDRECTD18*
4,1,4,-0.0647,-0.7879,-0.7147,0.3379,0.0647,0.7879,0.7147,-0.3379,-0.0647,-0.7879,0.0*
%
%ADD18ROTATEDRECTD18*%

G04:AMPARAMS|DCode=19|XSize=0.3mm|YSize=1.89mm|CornerRadius=0mm|HoleSize=0mm|Usage=FLASHONLY|Rotation=120.000|XOffset=0mm|YOffset=0mm|HoleType=Round|Shape=Round|*
%AMOVALD19*
21,1,1.5900,0.3000,0.0000,0.0000,210.0*
1,1,0.3000,0.6885,0.3975*
1,1,0.3000,-0.6885,-0.3975*
%
%ADD19OVALD19*%

G04:AMPARAMS|DCode=20|XSize=1.1mm|YSize=2.05mm|CornerRadius=0mm|HoleSize=0mm|Usage=FLASHONLY|Rotation=300.000|XOffset=0mm|YOffset=0mm|HoleType=Round|Shape=Rectangle|*
%AMROTATEDRECTD20*
4,1,4,-1.1627,-0.0362,0.6127,0.9888,1.1627,0.0362,-0.6127,-0.9888,-1.1627,-0.0362,0.0*
%
%ADD20ROTATEDRECTD20*%

G04:AMPARAMS|DCode=21|XSize=1.1mm|YSize=2.05mm|CornerRadius=0mm|HoleSize=0mm|Usage=FLASHONLY|Rotation=30.000|XOffset=0mm|YOffset=0mm|HoleType=Round|Shape=Rectangle|*
%AMROTATEDRECTD21*
4,1,4,0.0362,-1.1627,-0.9888,0.6127,-0.0362,1.1627,0.9888,-0.6127,0.0362,-1.1627,0.0*
%
%ADD21ROTATEDRECTD21*%

G04:AMPARAMS|DCode=22|XSize=1.1544mm|YSize=1.3562mm|CornerRadius=0mm|HoleSize=0mm|Usage=FLASHONLY|Rotation=120.000|XOffset=0mm|YOffset=0mm|HoleType=Round|Shape=Rectangle|*
%AMROTATEDRECTD22*
4,1,4,0.8759,-0.1608,-0.2987,-0.8389,-0.8759,0.1608,0.2987,0.8389,0.8759,-0.1608,0.0*
%
%ADD22ROTATEDRECTD22*%

G04:AMPARAMS|DCode=23|XSize=1.35mm|YSize=1.15mm|CornerRadius=0mm|HoleSize=0mm|Usage=FLASHONLY|Rotation=300.000|XOffset=0mm|YOffset=0mm|HoleType=Round|Shape=Rectangle|*
%AMROTATEDRECTD23*
4,1,4,-0.8355,0.2971,0.1605,0.8721,0.8355,-0.2971,-0.1605,-0.8721,-0.8355,0.2971,0.0*
%
%ADD23ROTATEDRECTD23*%

G04:AMPARAMS|DCode=24|XSize=0.92mm|YSize=0.74mm|CornerRadius=0mm|HoleSize=0mm|Usage=FLASHONLY|Rotation=30.000|XOffset=0mm|YOffset=0mm|HoleType=Round|Shape=Rectangle|*
%AMROTATEDRECTD24*
4,1,4,-0.2134,-0.5504,-0.5834,0.0904,0.2134,0.5504,0.5834,-0.0904,-0.2134,-0.5504,0.0*
%
%ADD24ROTATEDRECTD24*%

G04:AMPARAMS|DCode=25|XSize=0.6mm|YSize=0.3mm|CornerRadius=0mm|HoleSize=0mm|Usage=FLASHONLY|Rotation=120.000|XOffset=0mm|YOffset=0mm|HoleType=Round|Shape=Rectangle|*
%AMROTATEDRECTD25*
4,1,4,0.2799,-0.1848,0.0201,-0.3348,-0.2799,0.1848,-0.0201,0.3348,0.2799,-0.1848,0.0*
%
%ADD25ROTATEDRECTD25*%

G04:AMPARAMS|DCode=26|XSize=0.95mm|YSize=1.45mm|CornerRadius=0mm|HoleSize=0mm|Usage=FLASHONLY|Rotation=120.000|XOffset=0mm|YOffset=0mm|HoleType=Round|Shape=Rectangle|*
%AMROTATEDRECTD26*
4,1,4,0.8654,-0.0489,-0.3904,-0.7739,-0.8654,0.0489,0.3904,0.7739,0.8654,-0.0489,0.0*
%
%ADD26ROTATEDRECTD26*%

G04:AMPARAMS|DCode=27|XSize=1.76mm|YSize=2.95mm|CornerRadius=0mm|HoleSize=0mm|Usage=FLASHONLY|Rotation=30.000|XOffset=0mm|YOffset=0mm|HoleType=Round|Shape=Rectangle|*
%AMROTATEDRECTD27*
4,1,4,-0.0246,-1.7174,-1.4996,0.8374,0.0246,1.7174,1.4996,-0.8374,-0.0246,-1.7174,0.0*
%
%ADD27ROTATEDRECTD27*%

G04:AMPARAMS|DCode=28|XSize=3.2mm|YSize=2.85mm|CornerRadius=0mm|HoleSize=0mm|Usage=FLASHONLY|Rotation=120.000|XOffset=0mm|YOffset=0mm|HoleType=Round|Shape=Rectangle|*
%AMROTATEDRECTD28*
4,1,4,2.0341,-0.6731,-0.4341,-2.0981,-2.0341,0.6731,0.4341,2.0981,2.0341,-0.6731,0.0*
%
%ADD28ROTATEDRECTD28*%

G04:AMPARAMS|DCode=29|XSize=1.45mm|YSize=1.05mm|CornerRadius=0mm|HoleSize=0mm|Usage=FLASHONLY|Rotation=120.000|XOffset=0mm|YOffset=0mm|HoleType=Round|Shape=Rectangle|*
%AMROTATEDRECTD29*
4,1,4,0.8172,-0.3654,-0.0922,-0.8904,-0.8172,0.3654,0.0922,0.8904,0.8172,-0.3654,0.0*
%
%ADD29ROTATEDRECTD29*%

G04:AMPARAMS|DCode=30|XSize=1.35mm|YSize=1.05mm|CornerRadius=0mm|HoleSize=0mm|Usage=FLASHONLY|Rotation=210.000|XOffset=0mm|YOffset=0mm|HoleType=Round|Shape=Rectangle|*
%AMROTATEDRECTD30*
4,1,4,0.3221,0.7922,0.8471,-0.1172,-0.3221,-0.7922,-0.8471,0.1172,0.3221,0.7922,0.0*
%
%ADD30ROTATEDRECTD30*%

%ADD31P,1.6971X4X255.0*%
%ADD32P,1.6264X4X75.0*%
%ADD33P,2.1920X4X165.0*%
G04:AMPARAMS|DCode=34|XSize=1.45mm|YSize=1.35mm|CornerRadius=0mm|HoleSize=0mm|Usage=FLASHONLY|Rotation=30.000|XOffset=0mm|YOffset=0mm|HoleType=Round|Shape=Rectangle|*
%AMROTATEDRECTD34*
4,1,4,-0.2904,-0.9471,-0.9654,0.2221,0.2904,0.9471,0.9654,-0.2221,-0.2904,-0.9471,0.0*
%
%ADD34ROTATEDRECTD34*%

G04:AMPARAMS|DCode=35|XSize=1.75mm|YSize=2.5mm|CornerRadius=0mm|HoleSize=0mm|Usage=FLASHONLY|Rotation=120.000|XOffset=0mm|YOffset=0mm|HoleType=Round|Shape=Rectangle|*
%AMROTATEDRECTD35*
4,1,4,1.5200,-0.1328,-0.6450,-1.3828,-1.5200,0.1328,0.6450,1.3828,1.5200,-0.1328,0.0*
%
%ADD35ROTATEDRECTD35*%

G04:AMPARAMS|DCode=36|XSize=0.9049mm|YSize=1.3082mm|CornerRadius=0mm|HoleSize=0mm|Usage=FLASHONLY|Rotation=120.000|XOffset=0mm|YOffset=0mm|HoleType=Round|Shape=Rectangle|*
%AMROTATEDRECTD36*
4,1,4,0.7927,-0.0648,-0.3403,-0.7189,-0.7927,0.0648,0.3403,0.7189,0.7927,-0.0648,0.0*
%
%ADD36ROTATEDRECTD36*%

G04:AMPARAMS|DCode=37|XSize=0.92mm|YSize=0.74mm|CornerRadius=0mm|HoleSize=0mm|Usage=FLASHONLY|Rotation=120.000|XOffset=0mm|YOffset=0mm|HoleType=Round|Shape=Rectangle|*
%AMROTATEDRECTD37*
4,1,4,0.5504,-0.2134,-0.0904,-0.5834,-0.5504,0.2134,0.0904,0.5834,0.5504,-0.2134,0.0*
%
%ADD37ROTATEDRECTD37*%

G04:AMPARAMS|DCode=38|XSize=1.65mm|YSize=1.1mm|CornerRadius=0mm|HoleSize=0mm|Usage=FLASHONLY|Rotation=210.000|XOffset=0mm|YOffset=0mm|HoleType=Round|Shape=Rectangle|*
%AMROTATEDRECTD38*
4,1,4,0.4395,0.8888,0.9895,-0.0638,-0.4395,-0.8888,-0.9895,0.0638,0.4395,0.8888,0.0*
%
%ADD38ROTATEDRECTD38*%

G04:AMPARAMS|DCode=39|XSize=1.7mm|YSize=2.5mm|CornerRadius=0mm|HoleSize=0mm|Usage=FLASHONLY|Rotation=300.000|XOffset=0mm|YOffset=0mm|HoleType=Round|Shape=Rectangle|*
%AMROTATEDRECTD39*
4,1,4,-1.5075,0.1111,0.6575,1.3611,1.5075,-0.1111,-0.6575,-1.3611,-1.5075,0.1111,0.0*
%
%ADD39ROTATEDRECTD39*%

%ADD40P,1.9757X4X255.0*%
G04:AMPARAMS|DCode=41|XSize=1.3546mm|YSize=1.4621mm|CornerRadius=0mm|HoleSize=0mm|Usage=FLASHONLY|Rotation=120.000|XOffset=0mm|YOffset=0mm|HoleType=Round|Shape=Rectangle|*
%AMROTATEDRECTD41*
4,1,4,0.9718,-0.2210,-0.2945,-0.9521,-0.9718,0.2210,0.2945,0.9521,0.9718,-0.2210,0.0*
%
%ADD41ROTATEDRECTD41*%

G04:AMPARAMS|DCode=42|XSize=1mm|YSize=1mm|CornerRadius=0.5mm|HoleSize=0mm|Usage=FLASHONLY|Rotation=300.000|XOffset=0mm|YOffset=0mm|HoleType=Round|Shape=RoundedRectangle|*
%AMROUNDEDRECTD42*
21,1,1.0000,0.0000,0,0,300.0*
21,1,0.0000,1.0000,0,0,300.0*
1,1,1.0000,0.0000,0.0000*
1,1,1.0000,0.0000,0.0000*
1,1,1.0000,0.0000,0.0000*
1,1,1.0000,0.0000,0.0000*
%
%ADD42ROUNDEDRECTD42*%
G04:AMPARAMS|DCode=43|XSize=1mm|YSize=1mm|CornerRadius=0.5mm|HoleSize=0mm|Usage=FLASHONLY|Rotation=180.000|XOffset=0mm|YOffset=0mm|HoleType=Round|Shape=RoundedRectangle|*
%AMROUNDEDRECTD43*
21,1,1.0000,0.0000,0,0,180.0*
21,1,0.0000,1.0000,0,0,180.0*
1,1,1.0000,0.0000,0.0000*
1,1,1.0000,0.0000,0.0000*
1,1,1.0000,0.0000,0.0000*
1,1,1.0000,0.0000,0.0000*
%
%ADD43ROUNDEDRECTD43*%
G04:AMPARAMS|DCode=44|XSize=1mm|YSize=1mm|CornerRadius=0.5mm|HoleSize=0mm|Usage=FLASHONLY|Rotation=240.000|XOffset=0mm|YOffset=0mm|HoleType=Round|Shape=RoundedRectangle|*
%AMROUNDEDRECTD44*
21,1,1.0000,0.0000,0,0,240.0*
21,1,0.0000,1.0000,0,0,240.0*
1,1,1.0000,0.0000,0.0000*
1,1,1.0000,0.0000,0.0000*
1,1,1.0000,0.0000,0.0000*
1,1,1.0000,0.0000,0.0000*
%
%ADD44ROUNDEDRECTD44*%
G36*
X-8229Y100937D02*
X-8005Y100549D01*
X-7888Y99662D01*
X-8120Y98797D01*
X-8665Y98087D01*
X-9052Y97863D01*
X-9440Y97640D01*
X-10327Y97523D01*
X-11192Y97754D01*
X-11902Y98299D01*
X-12126Y98687D01*
Y98687D01*
X-13501Y101068D01*
X-9604Y103318D01*
X-8229Y100937D01*
D02*
G37*
G36*
X-16456Y96187D02*
X-16232Y95799D01*
X-16115Y94912D01*
X-16347Y94047D01*
X-16892Y93337D01*
X-17279Y93113D01*
X-17667Y92889D01*
X-18555Y92773D01*
X-19419Y93004D01*
X-20129Y93549D01*
X-20353Y93937D01*
Y93937D01*
X-21728Y96318D01*
X-17831Y98568D01*
X-16456Y96187D01*
D02*
G37*
G36*
X-24683Y91437D02*
X-24460Y91049D01*
X-24343Y90162D01*
X-24574Y89297D01*
X-25119Y88587D01*
X-25507Y88363D01*
X-25894Y88139D01*
X-26782Y88023D01*
X-27647Y88254D01*
X-28357Y88799D01*
X-28580Y89187D01*
X-28580Y89187D01*
X-29955Y91568D01*
X-26058Y93818D01*
X-24683Y91437D01*
D02*
G37*
G36*
X3587Y79786D02*
X4297Y79241D01*
X4521Y78853D01*
X4521D01*
X5896Y76472D01*
X1999Y74222D01*
X624Y76603D01*
X400Y76991D01*
X283Y77878D01*
X515Y78743D01*
X1060Y79453D01*
X1448Y79677D01*
X1835Y79900D01*
X2723Y80017D01*
X3587Y79786D01*
D02*
G37*
G36*
X-4640Y75036D02*
X-3930Y74491D01*
X-3706Y74103D01*
Y74103D01*
X-2331Y71722D01*
X-6228Y69472D01*
X-7603Y71853D01*
X-7827Y72241D01*
X-7944Y73128D01*
X-7712Y73993D01*
X-7167Y74703D01*
X-6780Y74927D01*
X-6392Y75150D01*
X-5505Y75267D01*
X-4640Y75036D01*
D02*
G37*
G36*
X-12867Y70286D02*
X-12157Y69741D01*
X-11933Y69353D01*
Y69353D01*
X-10558Y66972D01*
X-14455Y64722D01*
X-15830Y67103D01*
X-16054Y67491D01*
X-16171Y68378D01*
X-15939Y69243D01*
X-15394Y69953D01*
X-15007Y70177D01*
X-14619Y70401D01*
X-13732Y70517D01*
X-12867Y70286D01*
D02*
G37*
G36*
X-115362Y19628D02*
X-123936Y14678D01*
Y14678D01*
X-124143Y14530D01*
X-124452Y14127D01*
X-124583Y13637D01*
X-124517Y13134D01*
X-124412Y12902D01*
X-122087Y8875D01*
X-136809Y375D01*
X-145309Y15098D01*
X-130587Y23598D01*
X-128262Y19571D01*
X-128262Y19571D01*
X-128113Y19364D01*
X-127711Y19055D01*
X-127221Y18923D01*
X-126718Y18990D01*
X-126486Y19095D01*
X-117912Y24045D01*
X-115362Y19628D01*
D02*
G37*
G36*
X-112087Y-8445D02*
X-126809Y-16945D01*
X-129134Y-12918D01*
X-129134Y-12918D01*
X-129283Y-12711D01*
X-129685Y-12402D01*
X-130175Y-12271D01*
X-130678Y-12337D01*
X-130910Y-12442D01*
X-139484Y-17392D01*
X-142034Y-12976D01*
X-133460Y-8026D01*
Y-8026D01*
X-133253Y-7877D01*
X-132944Y-7475D01*
X-132813Y-6985D01*
X-132879Y-6482D01*
X-132984Y-6250D01*
X-135309Y-2223D01*
X-120587Y6277D01*
X-112087Y-8445D01*
D02*
G37*
D16*
X-78840Y-1503D02*
D03*
X-95727Y-11253D02*
D03*
D17*
X-26864Y90714D02*
D03*
X2805Y77326D02*
D03*
X-13757Y68012D02*
D03*
X-5422Y72576D02*
D03*
X-10302Y100028D02*
D03*
X-18637Y95464D02*
D03*
D18*
X-39785Y98595D02*
D03*
X46917Y-4819D02*
D03*
X-21599Y109095D02*
D03*
X28730Y-15319D02*
D03*
D19*
X-27765Y-36967D02*
D03*
X-32765Y-28307D02*
D03*
X4041Y-7057D02*
D03*
X-30265Y-32637D02*
D03*
X-25265Y-41297D02*
D03*
X-22765Y-45627D02*
D03*
X-20265Y-49958D02*
D03*
X-17765Y-54288D02*
D03*
X-15265Y-58618D02*
D03*
X6541Y-11387D02*
D03*
X9041Y-15717D02*
D03*
X11541Y-20047D02*
D03*
X14041Y-24377D02*
D03*
X16541Y-28708D02*
D03*
X19041Y-33038D02*
D03*
X21541Y-37368D02*
D03*
D20*
X-53157Y86256D02*
D03*
X-78705Y71505D02*
D03*
X58609Y-54072D02*
D03*
X-36657Y57677D02*
D03*
X-62205Y42927D02*
D03*
X42109Y-25493D02*
D03*
D21*
X-103189Y13340D02*
D03*
X-28767Y33914D02*
D03*
X-74611Y29840D02*
D03*
X-189Y50414D02*
D03*
D22*
X-77879Y-54587D02*
D03*
X-71120Y-66294D02*
D03*
D23*
X-83513Y-24409D02*
D03*
X-70956Y-17159D02*
D03*
D24*
X-92508Y-66005D02*
D03*
X-86308Y-76743D02*
D03*
D25*
X-107188Y-31242D02*
D03*
X-109678Y-56929D02*
D03*
X-105348Y-54429D02*
D03*
X-101018Y-51929D02*
D03*
X-96688Y-49429D02*
D03*
X-111518Y-33742D02*
D03*
X-115848Y-36242D02*
D03*
X-120178Y-38742D02*
D03*
D26*
X-66715Y5497D02*
D03*
X-56965Y-11391D02*
D03*
D27*
X-5612Y-32837D02*
D03*
D28*
X-16912Y-103142D02*
D03*
X34184Y-73642D02*
D03*
D29*
X-33170Y-62605D02*
D03*
X-49192Y-71855D02*
D03*
D30*
X-53136Y-56523D02*
D03*
X-60386Y-43965D02*
D03*
D31*
X49479Y122598D02*
D03*
X31293Y112098D02*
D03*
D32*
X49292Y15527D02*
D03*
X28940Y3777D02*
D03*
D33*
X2612Y7418D02*
D03*
X-13409Y-1832D02*
D03*
D34*
X71269Y-27999D02*
D03*
X-51755Y-102395D02*
D03*
X63019Y-13709D02*
D03*
X-60005Y-88105D02*
D03*
D35*
X-12030Y84020D02*
D03*
D36*
X-39817Y2362D02*
D03*
X-31811Y-11506D02*
D03*
D37*
X-118801Y-27582D02*
D03*
X-129540Y-33782D02*
D03*
D38*
X-108433Y-44085D02*
D03*
D39*
X101679Y-29500D02*
D03*
X136320Y-9500D02*
D03*
D40*
X33274Y38862D02*
D03*
D41*
X20221Y91661D02*
D03*
X10463Y108562D02*
D03*
D42*
X82601Y-143101D02*
D03*
X-82601Y143101D02*
D03*
D43*
X-165199Y0D02*
D03*
X165199D02*
D03*
D44*
X-82601Y-143101D02*
D03*
X82601Y143101D02*
D03*
M02*
