G04 EAGLE Gerber RS-274X export*
G75*
%MOMM*%
%FSLAX34Y34*%
%LPD*%
%INBottom Copper*%
%IPPOS*%
%AMOC8*
5,1,8,0,0,1.08239X$1,22.5*%
G01*
%ADD10C,1.000000*%
%ADD11R,1.016000X2.692400*%
%ADD12R,10.160000X8.940800*%
%ADD13R,2.500000X2.500000*%
%ADD14C,2.500000*%
%ADD15P,1.732040X8X112.500000*%
%ADD16C,1.600200*%
%ADD17R,2.450000X2.250000*%
%ADD18C,0.756400*%
%ADD19C,0.304800*%
%ADD20C,1.016000*%

G36*
X278630Y195708D02*
X278630Y195708D01*
X278658Y195706D01*
X278726Y195728D01*
X278797Y195742D01*
X278820Y195758D01*
X278847Y195767D01*
X278902Y195814D01*
X278961Y195855D01*
X278976Y195879D01*
X278998Y195897D01*
X279029Y195962D01*
X279068Y196022D01*
X279073Y196050D01*
X279085Y196076D01*
X279094Y196177D01*
X279101Y196219D01*
X279099Y196229D01*
X279100Y196242D01*
X279043Y196957D01*
X413361Y196957D01*
X413304Y196242D01*
X413308Y196213D01*
X413303Y196185D01*
X413320Y196116D01*
X413328Y196044D01*
X413343Y196020D01*
X413349Y195992D01*
X413392Y195934D01*
X413428Y195872D01*
X413450Y195855D01*
X413467Y195832D01*
X413529Y195795D01*
X413586Y195752D01*
X413614Y195745D01*
X413638Y195730D01*
X413738Y195714D01*
X413779Y195703D01*
X413789Y195705D01*
X413802Y195703D01*
X432802Y195703D01*
X432878Y195718D01*
X432956Y195727D01*
X432975Y195738D01*
X432997Y195742D01*
X433061Y195786D01*
X433129Y195825D01*
X433145Y195844D01*
X433161Y195855D01*
X433185Y195893D01*
X433235Y195953D01*
X442735Y212453D01*
X442744Y212480D01*
X442760Y212504D01*
X442775Y212574D01*
X442798Y212642D01*
X442795Y212670D01*
X442801Y212698D01*
X442788Y212769D01*
X442782Y212840D01*
X442769Y212865D01*
X442763Y212893D01*
X442723Y212953D01*
X442690Y213016D01*
X442668Y213034D01*
X442652Y213058D01*
X442569Y213116D01*
X442537Y213143D01*
X442526Y213146D01*
X442516Y213153D01*
X441888Y213450D01*
X509010Y329711D01*
X509618Y329291D01*
X509645Y329280D01*
X509667Y329261D01*
X509736Y329241D01*
X509801Y329213D01*
X509830Y329213D01*
X509858Y329205D01*
X509929Y329213D01*
X510000Y329213D01*
X510027Y329224D01*
X510056Y329227D01*
X510118Y329262D01*
X510183Y329290D01*
X510204Y329310D01*
X510229Y329325D01*
X510292Y329402D01*
X510322Y329432D01*
X510326Y329442D01*
X510335Y329453D01*
X519835Y345953D01*
X519845Y345985D01*
X519854Y345998D01*
X519858Y346022D01*
X519859Y346026D01*
X519890Y346096D01*
X519890Y346120D01*
X519898Y346142D01*
X519892Y346218D01*
X519893Y346295D01*
X519883Y346319D01*
X519882Y346340D01*
X519861Y346379D01*
X519835Y346451D01*
X510335Y362951D01*
X510316Y362973D01*
X510303Y362999D01*
X510250Y363047D01*
X510203Y363100D01*
X510177Y363113D01*
X510156Y363132D01*
X510088Y363155D01*
X510024Y363186D01*
X509995Y363188D01*
X509968Y363197D01*
X509896Y363192D01*
X509825Y363195D01*
X509798Y363185D01*
X509769Y363183D01*
X509679Y363141D01*
X509639Y363126D01*
X509631Y363119D01*
X509618Y363113D01*
X509010Y362693D01*
X441888Y478954D01*
X442516Y479251D01*
X442538Y479268D01*
X442565Y479278D01*
X442617Y479327D01*
X442675Y479370D01*
X442689Y479395D01*
X442710Y479414D01*
X442739Y479480D01*
X442775Y479542D01*
X442778Y479570D01*
X442790Y479596D01*
X442791Y479668D01*
X442800Y479739D01*
X442792Y479766D01*
X442793Y479795D01*
X442757Y479890D01*
X442746Y479930D01*
X442739Y479939D01*
X442735Y479951D01*
X433235Y496451D01*
X433183Y496510D01*
X433137Y496572D01*
X433118Y496583D01*
X433103Y496600D01*
X433033Y496634D01*
X432966Y496674D01*
X432942Y496678D01*
X432924Y496686D01*
X432879Y496688D01*
X432802Y496701D01*
X413802Y496701D01*
X413774Y496696D01*
X413746Y496698D01*
X413678Y496676D01*
X413607Y496662D01*
X413584Y496646D01*
X413557Y496637D01*
X413502Y496590D01*
X413443Y496549D01*
X413428Y496525D01*
X413407Y496507D01*
X413375Y496442D01*
X413336Y496382D01*
X413331Y496354D01*
X413319Y496328D01*
X413310Y496227D01*
X413303Y496185D01*
X413305Y496175D01*
X413304Y496162D01*
X413361Y495447D01*
X279043Y495447D01*
X279100Y496162D01*
X279096Y496191D01*
X279101Y496219D01*
X279084Y496288D01*
X279076Y496360D01*
X279062Y496384D01*
X279055Y496412D01*
X279012Y496470D01*
X278977Y496532D01*
X278954Y496549D01*
X278937Y496572D01*
X278875Y496609D01*
X278818Y496652D01*
X278790Y496659D01*
X278766Y496674D01*
X278666Y496690D01*
X278625Y496701D01*
X278615Y496699D01*
X278602Y496701D01*
X259602Y496701D01*
X259526Y496686D01*
X259448Y496677D01*
X259429Y496666D01*
X259407Y496662D01*
X259343Y496618D01*
X259275Y496579D01*
X259259Y496560D01*
X259243Y496549D01*
X259219Y496511D01*
X259169Y496451D01*
X249669Y479951D01*
X249660Y479924D01*
X249644Y479900D01*
X249629Y479830D01*
X249606Y479762D01*
X249609Y479734D01*
X249603Y479706D01*
X249617Y479636D01*
X249622Y479564D01*
X249635Y479539D01*
X249641Y479511D01*
X249681Y479451D01*
X249714Y479388D01*
X249736Y479370D01*
X249752Y479346D01*
X249835Y479288D01*
X249867Y479261D01*
X249878Y479258D01*
X249889Y479251D01*
X250516Y478954D01*
X183394Y362693D01*
X182786Y363113D01*
X182759Y363124D01*
X182737Y363143D01*
X182668Y363163D01*
X182603Y363191D01*
X182574Y363191D01*
X182546Y363199D01*
X182475Y363191D01*
X182404Y363192D01*
X182377Y363180D01*
X182348Y363177D01*
X182286Y363142D01*
X182221Y363114D01*
X182200Y363094D01*
X182175Y363079D01*
X182112Y363002D01*
X182082Y362972D01*
X182078Y362962D01*
X182069Y362951D01*
X172569Y346451D01*
X172545Y346378D01*
X172514Y346308D01*
X172514Y346284D01*
X172506Y346262D01*
X172513Y346186D01*
X172512Y346109D01*
X172521Y346085D01*
X172522Y346064D01*
X172543Y346025D01*
X172562Y345973D01*
X172563Y345967D01*
X172565Y345965D01*
X172569Y345953D01*
X182069Y329453D01*
X182088Y329431D01*
X182101Y329405D01*
X182154Y329357D01*
X182201Y329304D01*
X182227Y329291D01*
X182249Y329272D01*
X182316Y329249D01*
X182380Y329218D01*
X182409Y329217D01*
X182436Y329207D01*
X182508Y329212D01*
X182579Y329209D01*
X182606Y329219D01*
X182635Y329221D01*
X182725Y329263D01*
X182765Y329278D01*
X182773Y329285D01*
X182786Y329291D01*
X183394Y329711D01*
X250516Y213450D01*
X249889Y213153D01*
X249866Y213136D01*
X249839Y213126D01*
X249787Y213077D01*
X249729Y213034D01*
X249715Y213009D01*
X249694Y212990D01*
X249665Y212924D01*
X249629Y212862D01*
X249626Y212834D01*
X249614Y212808D01*
X249613Y212736D01*
X249604Y212665D01*
X249612Y212638D01*
X249612Y212609D01*
X249647Y212514D01*
X249658Y212474D01*
X249665Y212465D01*
X249669Y212453D01*
X259169Y195953D01*
X259221Y195895D01*
X259267Y195832D01*
X259286Y195821D01*
X259301Y195804D01*
X259371Y195770D01*
X259438Y195730D01*
X259463Y195726D01*
X259480Y195718D01*
X259525Y195716D01*
X259602Y195703D01*
X278602Y195703D01*
X278630Y195708D01*
G37*
%LPC*%
G36*
X322710Y306069D02*
X322710Y306069D01*
X321817Y306962D01*
X321817Y335219D01*
X321814Y335223D01*
X321814Y335227D01*
X314184Y342858D01*
X314178Y342858D01*
X314175Y342861D01*
X264840Y342861D01*
X262413Y343867D01*
X242051Y364229D01*
X241045Y366656D01*
X241045Y374313D01*
X241035Y374325D01*
X241034Y374324D01*
X241033Y374325D01*
X234768Y374325D01*
X233875Y375218D01*
X233875Y398982D01*
X234768Y399875D01*
X241573Y399875D01*
X241579Y399881D01*
X241584Y399882D01*
X242051Y401010D01*
X259568Y418527D01*
X261995Y419533D01*
X264623Y419533D01*
X267050Y418527D01*
X268908Y416669D01*
X269914Y414242D01*
X269914Y411614D01*
X268908Y409187D01*
X259617Y399895D01*
X259617Y399891D01*
X259613Y399888D01*
X259616Y399885D01*
X259616Y399879D01*
X259622Y399879D01*
X259625Y399875D01*
X260532Y399875D01*
X261425Y398982D01*
X261425Y375218D01*
X260532Y374325D01*
X254267Y374325D01*
X254255Y374315D01*
X254255Y374314D01*
X254255Y374313D01*
X254255Y370711D01*
X254258Y370706D01*
X254258Y370702D01*
X268886Y356074D01*
X268892Y356074D01*
X268894Y356072D01*
X268895Y356071D01*
X318230Y356071D01*
X320657Y355065D01*
X334021Y341701D01*
X335027Y339273D01*
X335027Y306962D01*
X334134Y306069D01*
X322710Y306069D01*
G37*
%LPD*%
%LPC*%
G36*
X443875Y288924D02*
X443875Y288924D01*
X440374Y290374D01*
X437694Y293054D01*
X436244Y296555D01*
X436244Y298630D01*
X436241Y298635D01*
X436241Y298639D01*
X434592Y300287D01*
X434587Y300288D01*
X434586Y300288D01*
X434584Y300291D01*
X381934Y300291D01*
X379507Y301296D01*
X374737Y306066D01*
X374731Y306066D01*
X374729Y306069D01*
X373764Y306069D01*
X372871Y306962D01*
X372871Y335150D01*
X373764Y336043D01*
X385188Y336043D01*
X386081Y335150D01*
X386081Y322552D01*
X386083Y322549D01*
X386082Y322547D01*
X386208Y322243D01*
X386208Y313512D01*
X386218Y313500D01*
X386219Y313501D01*
X386220Y313500D01*
X438638Y313500D01*
X441066Y312495D01*
X445581Y307979D01*
X445587Y307979D01*
X445590Y307976D01*
X447665Y307976D01*
X451166Y306526D01*
X453846Y303846D01*
X455296Y300345D01*
X455296Y296555D01*
X453846Y293054D01*
X451166Y290374D01*
X447665Y288924D01*
X443875Y288924D01*
G37*
%LPD*%
%LPC*%
G36*
X356438Y224735D02*
X356438Y224735D01*
X355545Y225628D01*
X355545Y251892D01*
X356438Y252785D01*
X382702Y252785D01*
X383595Y251892D01*
X383595Y225628D01*
X382702Y224735D01*
X356438Y224735D01*
G37*
%LPD*%
%LPC*%
G36*
X356746Y306069D02*
X356746Y306069D01*
X355853Y306962D01*
X355853Y335150D01*
X355875Y335171D01*
X355876Y335177D01*
X355879Y335180D01*
X355878Y335180D01*
X355879Y335180D01*
X355879Y344150D01*
X356884Y346578D01*
X358742Y348436D01*
X361170Y349441D01*
X363797Y349441D01*
X366225Y348436D01*
X368083Y346578D01*
X369088Y344150D01*
X369088Y319768D01*
X369064Y319708D01*
X369065Y319706D01*
X369063Y319704D01*
X369063Y306962D01*
X368170Y306069D01*
X356746Y306069D01*
G37*
%LPD*%
D10*
X428802Y489302D03*
X511402Y346202D03*
X428802Y203102D03*
X263602Y203102D03*
X181002Y346202D03*
X263602Y489302D03*
D11*
X379476Y321056D03*
X362458Y321056D03*
X345440Y321056D03*
X328422Y321056D03*
X311404Y321056D03*
D12*
X345440Y413004D03*
D13*
X369570Y238760D03*
D14*
X318770Y238760D03*
D15*
X445770Y334010D03*
D16*
X445770Y298450D03*
D17*
X247650Y387100D03*
X247650Y324100D03*
D18*
X437985Y364274D03*
D19*
X456057Y346202D02*
X511402Y346202D01*
X456057Y346202D02*
X437985Y364274D01*
X511402Y346202D02*
X428802Y203102D01*
X263602Y203102D01*
X299260Y238760D02*
X318770Y238760D01*
X299260Y238760D02*
X263602Y203102D01*
X318770Y238760D02*
X345440Y265430D01*
X345440Y321056D01*
X345440Y413004D01*
X247650Y324100D02*
X225548Y346202D01*
X181002Y346202D01*
X247650Y324100D02*
X250694Y321056D01*
X311404Y321056D01*
X339900Y413004D02*
X263602Y489302D01*
X339900Y413004D02*
X345440Y413004D01*
X352504Y413004D02*
X428802Y489302D01*
X352504Y413004D02*
X345440Y413004D01*
X263602Y489302D02*
X181002Y346202D01*
D20*
X247650Y387100D02*
X247650Y397269D01*
X263309Y412928D01*
D18*
X263309Y412928D03*
D20*
X316916Y349466D02*
X328422Y337960D01*
X316916Y349466D02*
X266154Y349466D01*
X247650Y367970D02*
X247650Y387100D01*
X247650Y367970D02*
X266154Y349466D01*
X328422Y337960D02*
X328422Y321056D01*
X437325Y306896D02*
X445770Y298450D01*
X383248Y306896D02*
X379603Y310540D01*
X379603Y320929D01*
X379476Y321056D01*
X383248Y306896D02*
X437325Y306896D01*
D18*
X362483Y342837D03*
D20*
X362483Y321081D01*
D19*
X362458Y321056D01*
M02*
