G04 EAGLE Gerber RS-274X export*
G75*
%MOMM*%
%FSLAX34Y34*%
%LPD*%
%INSilkscreen Bottom*%
%IPPOS*%
%AMOC8*
5,1,8,0,0,1.08239X$1,22.5*%
G01*
%ADD10C,0.101600*%
%ADD11C,0.152400*%
%ADD12C,0.200000*%
%ADD13C,0.076200*%


D10*
X434446Y462373D02*
X432851Y463490D01*
X429128Y458173D01*
X432318Y455939D01*
X432401Y455884D01*
X432485Y455832D01*
X432572Y455783D01*
X432660Y455737D01*
X432750Y455695D01*
X432842Y455656D01*
X432935Y455621D01*
X433029Y455589D01*
X433124Y455561D01*
X433221Y455537D01*
X433318Y455516D01*
X433416Y455500D01*
X433515Y455486D01*
X433614Y455477D01*
X433713Y455472D01*
X433813Y455470D01*
X433912Y455472D01*
X434011Y455478D01*
X434110Y455488D01*
X434209Y455501D01*
X434307Y455519D01*
X434404Y455540D01*
X434500Y455564D01*
X434596Y455593D01*
X434690Y455625D01*
X434783Y455660D01*
X434874Y455699D01*
X434964Y455742D01*
X435052Y455788D01*
X435138Y455837D01*
X435223Y455890D01*
X435305Y455946D01*
X435385Y456005D01*
X435463Y456067D01*
X435538Y456132D01*
X435611Y456199D01*
X435681Y456270D01*
X435749Y456343D01*
X435813Y456419D01*
X435875Y456497D01*
X435934Y456577D01*
X439657Y461894D01*
X439712Y461977D01*
X439764Y462061D01*
X439813Y462148D01*
X439859Y462236D01*
X439901Y462326D01*
X439940Y462418D01*
X439975Y462511D01*
X440007Y462605D01*
X440035Y462700D01*
X440059Y462797D01*
X440080Y462894D01*
X440096Y462992D01*
X440110Y463091D01*
X440119Y463190D01*
X440124Y463289D01*
X440126Y463389D01*
X440124Y463488D01*
X440118Y463587D01*
X440108Y463686D01*
X440095Y463785D01*
X440077Y463883D01*
X440056Y463980D01*
X440032Y464076D01*
X440003Y464172D01*
X439971Y464266D01*
X439936Y464359D01*
X439897Y464450D01*
X439854Y464540D01*
X439808Y464628D01*
X439759Y464714D01*
X439706Y464799D01*
X439650Y464881D01*
X439591Y464961D01*
X439529Y465039D01*
X439464Y465114D01*
X439397Y465187D01*
X439326Y465257D01*
X439253Y465325D01*
X439177Y465389D01*
X439099Y465451D01*
X439019Y465510D01*
X439020Y465510D02*
X435829Y467744D01*
X431160Y471014D02*
X424458Y461443D01*
X419141Y465166D02*
X431160Y471014D01*
X425842Y474737D02*
X419141Y465166D01*
X414471Y468436D02*
X421172Y478007D01*
X418514Y479868D01*
X418514Y479869D02*
X418420Y479932D01*
X418324Y479992D01*
X418226Y480049D01*
X418126Y480102D01*
X418024Y480152D01*
X417920Y480198D01*
X417815Y480240D01*
X417709Y480279D01*
X417601Y480314D01*
X417492Y480345D01*
X417382Y480373D01*
X417271Y480396D01*
X417160Y480416D01*
X417048Y480432D01*
X416935Y480444D01*
X416822Y480452D01*
X416709Y480456D01*
X416595Y480456D01*
X416482Y480452D01*
X416369Y480444D01*
X416256Y480432D01*
X416144Y480416D01*
X416033Y480396D01*
X415922Y480373D01*
X415812Y480345D01*
X415703Y480314D01*
X415595Y480279D01*
X415489Y480240D01*
X415384Y480198D01*
X415280Y480152D01*
X415178Y480102D01*
X415078Y480049D01*
X414980Y479992D01*
X414884Y479932D01*
X414790Y479869D01*
X414699Y479802D01*
X414609Y479733D01*
X414522Y479660D01*
X414438Y479584D01*
X414357Y479505D01*
X414278Y479424D01*
X414202Y479340D01*
X414129Y479253D01*
X414060Y479164D01*
X413993Y479072D01*
X413994Y479071D02*
X411015Y474818D01*
X410952Y474724D01*
X410892Y474628D01*
X410835Y474530D01*
X410782Y474430D01*
X410732Y474328D01*
X410686Y474224D01*
X410644Y474119D01*
X410605Y474013D01*
X410570Y473905D01*
X410539Y473796D01*
X410511Y473686D01*
X410488Y473575D01*
X410468Y473464D01*
X410452Y473352D01*
X410440Y473239D01*
X410432Y473126D01*
X410428Y473013D01*
X410428Y472899D01*
X410432Y472786D01*
X410440Y472673D01*
X410452Y472560D01*
X410468Y472448D01*
X410488Y472337D01*
X410511Y472226D01*
X410539Y472116D01*
X410570Y472007D01*
X410605Y471899D01*
X410644Y471793D01*
X410686Y471688D01*
X410732Y471584D01*
X410782Y471482D01*
X410835Y471382D01*
X410892Y471284D01*
X410952Y471188D01*
X411015Y471094D01*
X411082Y471002D01*
X411151Y470913D01*
X411224Y470826D01*
X411300Y470742D01*
X411379Y470661D01*
X411460Y470582D01*
X411544Y470506D01*
X411631Y470433D01*
X411721Y470364D01*
X411812Y470297D01*
X414471Y468436D01*
X492049Y337254D02*
X492049Y335306D01*
X492049Y337254D02*
X485558Y337254D01*
X485558Y333359D01*
X485560Y333260D01*
X485566Y333160D01*
X485575Y333061D01*
X485588Y332963D01*
X485605Y332865D01*
X485626Y332767D01*
X485651Y332671D01*
X485679Y332576D01*
X485711Y332482D01*
X485746Y332389D01*
X485785Y332297D01*
X485828Y332207D01*
X485873Y332119D01*
X485923Y332032D01*
X485975Y331948D01*
X486031Y331865D01*
X486089Y331785D01*
X486151Y331707D01*
X486216Y331632D01*
X486284Y331559D01*
X486354Y331489D01*
X486427Y331421D01*
X486502Y331356D01*
X486580Y331294D01*
X486660Y331236D01*
X486743Y331180D01*
X486827Y331128D01*
X486914Y331078D01*
X487002Y331033D01*
X487092Y330990D01*
X487184Y330951D01*
X487277Y330916D01*
X487371Y330884D01*
X487466Y330856D01*
X487562Y330831D01*
X487660Y330810D01*
X487758Y330793D01*
X487856Y330780D01*
X487955Y330771D01*
X488055Y330765D01*
X488154Y330763D01*
X494646Y330763D01*
X494745Y330765D01*
X494845Y330771D01*
X494944Y330780D01*
X495042Y330793D01*
X495140Y330810D01*
X495238Y330831D01*
X495334Y330856D01*
X495429Y330884D01*
X495523Y330916D01*
X495616Y330951D01*
X495708Y330990D01*
X495798Y331033D01*
X495886Y331078D01*
X495973Y331128D01*
X496057Y331180D01*
X496140Y331236D01*
X496220Y331294D01*
X496298Y331356D01*
X496373Y331421D01*
X496446Y331489D01*
X496516Y331559D01*
X496584Y331632D01*
X496649Y331707D01*
X496711Y331785D01*
X496769Y331865D01*
X496825Y331948D01*
X496877Y332032D01*
X496927Y332119D01*
X496972Y332207D01*
X497015Y332297D01*
X497054Y332389D01*
X497089Y332481D01*
X497121Y332576D01*
X497149Y332671D01*
X497174Y332767D01*
X497195Y332865D01*
X497212Y332963D01*
X497225Y333061D01*
X497234Y333160D01*
X497240Y333260D01*
X497242Y333359D01*
X497242Y337254D01*
X497242Y342954D02*
X485558Y342954D01*
X485558Y349446D02*
X497242Y342954D01*
X497242Y349446D02*
X485558Y349446D01*
X485558Y355146D02*
X497242Y355146D01*
X497242Y358392D01*
X497240Y358505D01*
X497234Y358618D01*
X497224Y358731D01*
X497210Y358844D01*
X497193Y358956D01*
X497171Y359067D01*
X497146Y359177D01*
X497116Y359287D01*
X497083Y359395D01*
X497046Y359502D01*
X497006Y359608D01*
X496961Y359712D01*
X496913Y359815D01*
X496862Y359916D01*
X496807Y360015D01*
X496749Y360112D01*
X496687Y360207D01*
X496622Y360300D01*
X496554Y360390D01*
X496483Y360478D01*
X496408Y360564D01*
X496331Y360647D01*
X496251Y360727D01*
X496168Y360804D01*
X496082Y360879D01*
X495994Y360950D01*
X495904Y361018D01*
X495811Y361083D01*
X495716Y361145D01*
X495619Y361203D01*
X495520Y361258D01*
X495419Y361309D01*
X495316Y361357D01*
X495212Y361402D01*
X495106Y361442D01*
X494999Y361479D01*
X494891Y361512D01*
X494781Y361542D01*
X494671Y361567D01*
X494560Y361589D01*
X494448Y361606D01*
X494335Y361620D01*
X494222Y361630D01*
X494109Y361636D01*
X493996Y361638D01*
X488804Y361638D01*
X488691Y361636D01*
X488578Y361630D01*
X488465Y361620D01*
X488352Y361606D01*
X488240Y361589D01*
X488129Y361567D01*
X488019Y361542D01*
X487909Y361512D01*
X487801Y361479D01*
X487694Y361442D01*
X487588Y361402D01*
X487484Y361357D01*
X487381Y361309D01*
X487280Y361258D01*
X487181Y361203D01*
X487084Y361145D01*
X486989Y361083D01*
X486896Y361018D01*
X486806Y360950D01*
X486718Y360879D01*
X486632Y360804D01*
X486549Y360727D01*
X486469Y360647D01*
X486392Y360564D01*
X486317Y360478D01*
X486246Y360390D01*
X486178Y360300D01*
X486113Y360207D01*
X486051Y360112D01*
X485993Y360015D01*
X485938Y359916D01*
X485887Y359815D01*
X485839Y359712D01*
X485794Y359608D01*
X485754Y359502D01*
X485717Y359395D01*
X485684Y359287D01*
X485654Y359177D01*
X485629Y359067D01*
X485607Y358956D01*
X485590Y358844D01*
X485576Y358731D01*
X485566Y358618D01*
X485560Y358505D01*
X485558Y358392D01*
X485558Y355146D01*
X449059Y243200D02*
X448086Y241514D01*
X453707Y238268D01*
X455655Y241641D01*
X455654Y241641D02*
X455702Y241728D01*
X455747Y241817D01*
X455788Y241907D01*
X455826Y241999D01*
X455860Y242093D01*
X455891Y242187D01*
X455918Y242283D01*
X455941Y242380D01*
X455961Y242477D01*
X455976Y242576D01*
X455988Y242674D01*
X455997Y242773D01*
X456001Y242873D01*
X456002Y242972D01*
X455999Y243072D01*
X455992Y243171D01*
X455981Y243270D01*
X455966Y243368D01*
X455948Y243466D01*
X455926Y243563D01*
X455900Y243659D01*
X455871Y243754D01*
X455838Y243848D01*
X455801Y243940D01*
X455761Y244031D01*
X455718Y244120D01*
X455671Y244208D01*
X455620Y244294D01*
X455567Y244378D01*
X455510Y244459D01*
X455450Y244539D01*
X455388Y244616D01*
X455322Y244691D01*
X455253Y244763D01*
X455182Y244832D01*
X455108Y244899D01*
X455032Y244963D01*
X454953Y245023D01*
X454872Y245081D01*
X454789Y245136D01*
X454704Y245187D01*
X454704Y245188D02*
X449083Y248433D01*
X449082Y248433D02*
X448995Y248481D01*
X448906Y248526D01*
X448816Y248567D01*
X448724Y248605D01*
X448630Y248639D01*
X448536Y248670D01*
X448440Y248697D01*
X448343Y248720D01*
X448246Y248740D01*
X448147Y248755D01*
X448049Y248767D01*
X447950Y248776D01*
X447850Y248780D01*
X447751Y248781D01*
X447651Y248778D01*
X447552Y248771D01*
X447453Y248760D01*
X447355Y248745D01*
X447257Y248727D01*
X447160Y248705D01*
X447064Y248679D01*
X446969Y248650D01*
X446875Y248617D01*
X446783Y248580D01*
X446692Y248540D01*
X446603Y248497D01*
X446515Y248450D01*
X446429Y248399D01*
X446345Y248346D01*
X446264Y248289D01*
X446184Y248229D01*
X446107Y248167D01*
X446032Y248101D01*
X445960Y248032D01*
X445891Y247961D01*
X445824Y247887D01*
X445760Y247811D01*
X445700Y247732D01*
X445642Y247651D01*
X445587Y247568D01*
X445536Y247483D01*
X443589Y244110D01*
X440738Y239173D02*
X450857Y233331D01*
X447611Y227709D02*
X440738Y239173D01*
X437493Y233551D02*
X447611Y227709D01*
X444761Y222772D02*
X434642Y228614D01*
X433019Y225804D01*
X432964Y225705D01*
X432913Y225604D01*
X432865Y225501D01*
X432820Y225397D01*
X432780Y225291D01*
X432743Y225184D01*
X432710Y225076D01*
X432680Y224966D01*
X432655Y224856D01*
X432633Y224745D01*
X432616Y224633D01*
X432602Y224520D01*
X432592Y224407D01*
X432586Y224294D01*
X432584Y224181D01*
X432586Y224068D01*
X432592Y223955D01*
X432602Y223842D01*
X432616Y223729D01*
X432633Y223617D01*
X432655Y223506D01*
X432680Y223396D01*
X432710Y223286D01*
X432743Y223178D01*
X432780Y223071D01*
X432820Y222965D01*
X432865Y222861D01*
X432913Y222758D01*
X432964Y222657D01*
X433019Y222558D01*
X433077Y222461D01*
X433139Y222366D01*
X433204Y222273D01*
X433272Y222183D01*
X433343Y222095D01*
X433418Y222009D01*
X433495Y221926D01*
X433575Y221846D01*
X433658Y221769D01*
X433744Y221694D01*
X433832Y221623D01*
X433922Y221555D01*
X434015Y221490D01*
X434110Y221428D01*
X434207Y221370D01*
X438705Y218774D01*
X438704Y218773D02*
X438803Y218718D01*
X438904Y218667D01*
X439007Y218619D01*
X439111Y218574D01*
X439217Y218534D01*
X439324Y218497D01*
X439432Y218464D01*
X439542Y218434D01*
X439652Y218409D01*
X439763Y218387D01*
X439875Y218370D01*
X439988Y218356D01*
X440101Y218346D01*
X440214Y218340D01*
X440327Y218338D01*
X440440Y218340D01*
X440553Y218346D01*
X440666Y218356D01*
X440779Y218370D01*
X440891Y218387D01*
X441002Y218409D01*
X441112Y218434D01*
X441222Y218464D01*
X441330Y218497D01*
X441437Y218534D01*
X441543Y218574D01*
X441647Y218619D01*
X441750Y218667D01*
X441851Y218718D01*
X441950Y218773D01*
X442047Y218831D01*
X442142Y218893D01*
X442235Y218958D01*
X442325Y219026D01*
X442414Y219097D01*
X442499Y219172D01*
X442582Y219249D01*
X442662Y219329D01*
X442739Y219412D01*
X442814Y219498D01*
X442885Y219586D01*
X442953Y219676D01*
X443018Y219769D01*
X443080Y219864D01*
X443138Y219961D01*
X443138Y219962D02*
X444761Y222772D01*
X254031Y224598D02*
X253058Y226285D01*
X247436Y223039D01*
X249383Y219666D01*
X249384Y219666D02*
X249435Y219581D01*
X249490Y219498D01*
X249547Y219417D01*
X249608Y219338D01*
X249672Y219262D01*
X249739Y219188D01*
X249808Y219117D01*
X249880Y219048D01*
X249955Y218982D01*
X250032Y218920D01*
X250111Y218860D01*
X250193Y218803D01*
X250277Y218750D01*
X250363Y218699D01*
X250450Y218652D01*
X250540Y218609D01*
X250631Y218569D01*
X250723Y218532D01*
X250817Y218499D01*
X250912Y218470D01*
X251008Y218444D01*
X251105Y218422D01*
X251203Y218404D01*
X251301Y218389D01*
X251400Y218378D01*
X251499Y218371D01*
X251599Y218368D01*
X251698Y218369D01*
X251798Y218373D01*
X251897Y218382D01*
X251996Y218394D01*
X252094Y218409D01*
X252191Y218429D01*
X252288Y218452D01*
X252384Y218479D01*
X252478Y218510D01*
X252572Y218544D01*
X252664Y218582D01*
X252754Y218623D01*
X252843Y218668D01*
X252930Y218716D01*
X258552Y221961D01*
X258552Y221962D02*
X258637Y222013D01*
X258720Y222068D01*
X258801Y222125D01*
X258880Y222186D01*
X258956Y222250D01*
X259030Y222317D01*
X259101Y222386D01*
X259170Y222458D01*
X259236Y222533D01*
X259298Y222610D01*
X259358Y222689D01*
X259415Y222771D01*
X259468Y222855D01*
X259519Y222941D01*
X259566Y223028D01*
X259609Y223118D01*
X259649Y223209D01*
X259686Y223301D01*
X259719Y223395D01*
X259748Y223490D01*
X259774Y223586D01*
X259796Y223683D01*
X259814Y223781D01*
X259829Y223879D01*
X259840Y223978D01*
X259847Y224077D01*
X259850Y224177D01*
X259849Y224276D01*
X259845Y224376D01*
X259836Y224475D01*
X259824Y224573D01*
X259809Y224672D01*
X259789Y224769D01*
X259766Y224866D01*
X259739Y224962D01*
X259708Y225056D01*
X259674Y225150D01*
X259636Y225242D01*
X259595Y225332D01*
X259550Y225421D01*
X259502Y225508D01*
X257555Y228881D01*
X254704Y233818D02*
X244586Y227976D01*
X241340Y233598D02*
X254704Y233818D01*
X251459Y239440D02*
X241340Y233598D01*
X238490Y238535D02*
X248608Y244377D01*
X246986Y247187D01*
X246986Y247188D02*
X246928Y247285D01*
X246866Y247380D01*
X246801Y247473D01*
X246733Y247563D01*
X246662Y247651D01*
X246587Y247737D01*
X246510Y247820D01*
X246430Y247900D01*
X246347Y247977D01*
X246261Y248052D01*
X246173Y248123D01*
X246083Y248191D01*
X245990Y248256D01*
X245895Y248318D01*
X245798Y248376D01*
X245699Y248431D01*
X245598Y248482D01*
X245495Y248530D01*
X245391Y248575D01*
X245285Y248615D01*
X245178Y248652D01*
X245070Y248685D01*
X244960Y248715D01*
X244850Y248740D01*
X244739Y248762D01*
X244627Y248779D01*
X244514Y248793D01*
X244401Y248803D01*
X244288Y248809D01*
X244175Y248811D01*
X244062Y248809D01*
X243949Y248803D01*
X243836Y248793D01*
X243723Y248779D01*
X243611Y248762D01*
X243500Y248740D01*
X243390Y248715D01*
X243280Y248685D01*
X243172Y248652D01*
X243065Y248615D01*
X242959Y248575D01*
X242855Y248530D01*
X242752Y248482D01*
X242651Y248431D01*
X242552Y248376D01*
X242552Y248375D02*
X238055Y245779D01*
X237958Y245721D01*
X237863Y245659D01*
X237770Y245594D01*
X237680Y245526D01*
X237592Y245455D01*
X237506Y245380D01*
X237423Y245303D01*
X237343Y245223D01*
X237266Y245140D01*
X237191Y245054D01*
X237120Y244966D01*
X237052Y244876D01*
X236987Y244783D01*
X236925Y244688D01*
X236867Y244591D01*
X236812Y244492D01*
X236761Y244391D01*
X236713Y244288D01*
X236668Y244184D01*
X236628Y244078D01*
X236591Y243971D01*
X236558Y243863D01*
X236528Y243753D01*
X236503Y243643D01*
X236481Y243532D01*
X236464Y243420D01*
X236450Y243307D01*
X236440Y243194D01*
X236434Y243081D01*
X236432Y242968D01*
X236434Y242855D01*
X236440Y242742D01*
X236450Y242629D01*
X236464Y242516D01*
X236481Y242404D01*
X236503Y242293D01*
X236528Y242183D01*
X236558Y242073D01*
X236591Y241965D01*
X236628Y241858D01*
X236668Y241752D01*
X236713Y241648D01*
X236761Y241545D01*
X236812Y241444D01*
X236867Y241345D01*
X238490Y238535D01*
X201649Y335306D02*
X201649Y337254D01*
X195158Y337254D01*
X195158Y333359D01*
X195160Y333260D01*
X195166Y333160D01*
X195175Y333061D01*
X195188Y332963D01*
X195205Y332865D01*
X195226Y332767D01*
X195251Y332671D01*
X195279Y332576D01*
X195311Y332482D01*
X195346Y332389D01*
X195385Y332297D01*
X195428Y332207D01*
X195473Y332119D01*
X195523Y332032D01*
X195575Y331948D01*
X195631Y331865D01*
X195689Y331785D01*
X195751Y331707D01*
X195816Y331632D01*
X195884Y331559D01*
X195954Y331489D01*
X196027Y331421D01*
X196102Y331356D01*
X196180Y331294D01*
X196260Y331236D01*
X196343Y331180D01*
X196427Y331128D01*
X196514Y331078D01*
X196602Y331033D01*
X196692Y330990D01*
X196784Y330951D01*
X196877Y330916D01*
X196971Y330884D01*
X197066Y330856D01*
X197162Y330831D01*
X197260Y330810D01*
X197358Y330793D01*
X197456Y330780D01*
X197555Y330771D01*
X197655Y330765D01*
X197754Y330763D01*
X204246Y330763D01*
X204345Y330765D01*
X204445Y330771D01*
X204544Y330780D01*
X204642Y330793D01*
X204740Y330810D01*
X204838Y330831D01*
X204934Y330856D01*
X205029Y330884D01*
X205123Y330916D01*
X205216Y330951D01*
X205308Y330990D01*
X205398Y331033D01*
X205486Y331078D01*
X205573Y331128D01*
X205657Y331180D01*
X205740Y331236D01*
X205820Y331294D01*
X205898Y331356D01*
X205973Y331421D01*
X206046Y331489D01*
X206116Y331559D01*
X206184Y331632D01*
X206249Y331707D01*
X206311Y331785D01*
X206369Y331865D01*
X206425Y331948D01*
X206477Y332032D01*
X206527Y332119D01*
X206572Y332207D01*
X206615Y332297D01*
X206654Y332389D01*
X206689Y332481D01*
X206721Y332576D01*
X206749Y332671D01*
X206774Y332767D01*
X206795Y332865D01*
X206812Y332963D01*
X206825Y333061D01*
X206834Y333160D01*
X206840Y333260D01*
X206842Y333359D01*
X206842Y337254D01*
X206842Y342954D02*
X195158Y342954D01*
X195158Y349446D02*
X206842Y342954D01*
X206842Y349446D02*
X195158Y349446D01*
X195158Y355146D02*
X206842Y355146D01*
X206842Y358392D01*
X206840Y358505D01*
X206834Y358618D01*
X206824Y358731D01*
X206810Y358844D01*
X206793Y358956D01*
X206771Y359067D01*
X206746Y359177D01*
X206716Y359287D01*
X206683Y359395D01*
X206646Y359502D01*
X206606Y359608D01*
X206561Y359712D01*
X206513Y359815D01*
X206462Y359916D01*
X206407Y360015D01*
X206349Y360112D01*
X206287Y360207D01*
X206222Y360300D01*
X206154Y360390D01*
X206083Y360478D01*
X206008Y360564D01*
X205931Y360647D01*
X205851Y360727D01*
X205768Y360804D01*
X205682Y360879D01*
X205594Y360950D01*
X205504Y361018D01*
X205411Y361083D01*
X205316Y361145D01*
X205219Y361203D01*
X205120Y361258D01*
X205019Y361309D01*
X204916Y361357D01*
X204812Y361402D01*
X204706Y361442D01*
X204599Y361479D01*
X204491Y361512D01*
X204381Y361542D01*
X204271Y361567D01*
X204160Y361589D01*
X204048Y361606D01*
X203935Y361620D01*
X203822Y361630D01*
X203709Y361636D01*
X203596Y361638D01*
X198404Y361638D01*
X198291Y361636D01*
X198178Y361630D01*
X198065Y361620D01*
X197952Y361606D01*
X197840Y361589D01*
X197729Y361567D01*
X197619Y361542D01*
X197509Y361512D01*
X197401Y361479D01*
X197294Y361442D01*
X197188Y361402D01*
X197084Y361357D01*
X196981Y361309D01*
X196880Y361258D01*
X196781Y361203D01*
X196684Y361145D01*
X196589Y361083D01*
X196496Y361018D01*
X196406Y360950D01*
X196318Y360879D01*
X196232Y360804D01*
X196149Y360727D01*
X196069Y360647D01*
X195992Y360564D01*
X195917Y360478D01*
X195846Y360390D01*
X195778Y360300D01*
X195713Y360207D01*
X195651Y360112D01*
X195593Y360015D01*
X195538Y359916D01*
X195487Y359815D01*
X195439Y359712D01*
X195394Y359608D01*
X195354Y359502D01*
X195317Y359395D01*
X195284Y359287D01*
X195254Y359177D01*
X195229Y359067D01*
X195207Y358956D01*
X195190Y358844D01*
X195176Y358731D01*
X195166Y358618D01*
X195160Y358505D01*
X195158Y358392D01*
X195158Y355146D01*
X270396Y471213D02*
X271991Y472330D01*
X270396Y471213D02*
X274119Y465896D01*
X277310Y468130D01*
X277309Y468130D02*
X277389Y468189D01*
X277467Y468251D01*
X277543Y468315D01*
X277616Y468383D01*
X277687Y468453D01*
X277754Y468526D01*
X277819Y468601D01*
X277881Y468679D01*
X277940Y468759D01*
X277996Y468841D01*
X278049Y468926D01*
X278098Y469012D01*
X278144Y469100D01*
X278187Y469190D01*
X278226Y469281D01*
X278261Y469374D01*
X278293Y469468D01*
X278322Y469564D01*
X278346Y469660D01*
X278367Y469757D01*
X278385Y469855D01*
X278398Y469954D01*
X278408Y470053D01*
X278414Y470152D01*
X278416Y470251D01*
X278414Y470351D01*
X278409Y470450D01*
X278399Y470549D01*
X278386Y470648D01*
X278370Y470746D01*
X278349Y470843D01*
X278325Y470940D01*
X278297Y471035D01*
X278265Y471129D01*
X278230Y471222D01*
X278191Y471314D01*
X278149Y471404D01*
X278103Y471492D01*
X278054Y471579D01*
X278002Y471663D01*
X277947Y471746D01*
X274224Y477063D01*
X274165Y477143D01*
X274103Y477221D01*
X274039Y477297D01*
X273971Y477370D01*
X273901Y477441D01*
X273828Y477508D01*
X273753Y477573D01*
X273675Y477635D01*
X273595Y477694D01*
X273513Y477750D01*
X273428Y477803D01*
X273342Y477852D01*
X273254Y477898D01*
X273164Y477941D01*
X273073Y477980D01*
X272980Y478015D01*
X272886Y478047D01*
X272790Y478076D01*
X272694Y478100D01*
X272597Y478121D01*
X272499Y478139D01*
X272400Y478152D01*
X272301Y478162D01*
X272202Y478168D01*
X272103Y478170D01*
X272003Y478168D01*
X271904Y478163D01*
X271805Y478154D01*
X271706Y478140D01*
X271608Y478124D01*
X271511Y478103D01*
X271414Y478079D01*
X271319Y478051D01*
X271225Y478019D01*
X271132Y477984D01*
X271040Y477945D01*
X270950Y477903D01*
X270862Y477857D01*
X270775Y477808D01*
X270691Y477756D01*
X270608Y477701D01*
X267418Y475467D01*
X262748Y472197D02*
X269449Y462626D01*
X264132Y458903D02*
X262748Y472197D01*
X257431Y468474D02*
X264132Y458903D01*
X259462Y455633D02*
X252761Y465204D01*
X250102Y463342D01*
X250102Y463343D02*
X250011Y463276D01*
X249921Y463207D01*
X249834Y463134D01*
X249750Y463058D01*
X249669Y462979D01*
X249590Y462898D01*
X249514Y462814D01*
X249441Y462727D01*
X249372Y462638D01*
X249305Y462546D01*
X249242Y462452D01*
X249182Y462356D01*
X249125Y462258D01*
X249072Y462158D01*
X249022Y462056D01*
X248976Y461952D01*
X248934Y461847D01*
X248895Y461741D01*
X248860Y461633D01*
X248829Y461524D01*
X248801Y461414D01*
X248778Y461303D01*
X248758Y461192D01*
X248742Y461080D01*
X248730Y460967D01*
X248722Y460854D01*
X248718Y460741D01*
X248718Y460627D01*
X248722Y460514D01*
X248730Y460401D01*
X248742Y460288D01*
X248758Y460176D01*
X248778Y460065D01*
X248801Y459954D01*
X248829Y459844D01*
X248860Y459735D01*
X248895Y459627D01*
X248934Y459521D01*
X248976Y459416D01*
X249022Y459312D01*
X249072Y459210D01*
X249125Y459110D01*
X249182Y459012D01*
X249242Y458916D01*
X249305Y458822D01*
X252284Y454568D01*
X252283Y454568D02*
X252350Y454477D01*
X252419Y454387D01*
X252492Y454300D01*
X252568Y454216D01*
X252647Y454135D01*
X252728Y454056D01*
X252812Y453980D01*
X252899Y453907D01*
X252989Y453838D01*
X253080Y453771D01*
X253174Y453708D01*
X253270Y453648D01*
X253368Y453591D01*
X253468Y453538D01*
X253570Y453488D01*
X253674Y453442D01*
X253779Y453400D01*
X253885Y453361D01*
X253993Y453326D01*
X254102Y453295D01*
X254212Y453267D01*
X254323Y453244D01*
X254434Y453224D01*
X254546Y453208D01*
X254659Y453196D01*
X254772Y453188D01*
X254885Y453184D01*
X254999Y453184D01*
X255112Y453188D01*
X255225Y453196D01*
X255338Y453208D01*
X255450Y453224D01*
X255561Y453244D01*
X255672Y453267D01*
X255782Y453295D01*
X255891Y453326D01*
X255999Y453361D01*
X256105Y453400D01*
X256210Y453442D01*
X256314Y453488D01*
X256416Y453538D01*
X256516Y453591D01*
X256614Y453648D01*
X256710Y453708D01*
X256804Y453771D01*
X259462Y455633D01*
D11*
X393575Y467883D02*
X393575Y485663D01*
X393575Y477761D02*
X383698Y477761D01*
X383698Y485663D02*
X383698Y467883D01*
X376267Y476773D02*
X376263Y477123D01*
X376250Y477472D01*
X376229Y477821D01*
X376200Y478170D01*
X376163Y478518D01*
X376117Y478865D01*
X376063Y479210D01*
X376001Y479554D01*
X375930Y479897D01*
X375851Y480238D01*
X375765Y480577D01*
X375670Y480913D01*
X375567Y481248D01*
X375456Y481579D01*
X375338Y481909D01*
X375211Y482235D01*
X375077Y482558D01*
X374935Y482877D01*
X374785Y483194D01*
X374745Y483307D01*
X374701Y483417D01*
X374653Y483527D01*
X374602Y483634D01*
X374547Y483740D01*
X374489Y483845D01*
X374427Y483947D01*
X374362Y484047D01*
X374294Y484145D01*
X374223Y484241D01*
X374148Y484334D01*
X374071Y484425D01*
X373991Y484513D01*
X373908Y484598D01*
X373822Y484681D01*
X373733Y484761D01*
X373642Y484838D01*
X373548Y484912D01*
X373452Y484983D01*
X373354Y485051D01*
X373254Y485115D01*
X373151Y485177D01*
X373047Y485234D01*
X372941Y485289D01*
X372833Y485340D01*
X372723Y485387D01*
X372612Y485431D01*
X372500Y485471D01*
X372386Y485507D01*
X372272Y485540D01*
X372156Y485569D01*
X372039Y485594D01*
X371922Y485615D01*
X371804Y485633D01*
X371685Y485646D01*
X371566Y485656D01*
X371447Y485662D01*
X371328Y485664D01*
X371328Y485663D02*
X371209Y485661D01*
X371090Y485655D01*
X370971Y485645D01*
X370852Y485632D01*
X370734Y485614D01*
X370617Y485593D01*
X370500Y485568D01*
X370384Y485539D01*
X370270Y485506D01*
X370156Y485470D01*
X370044Y485430D01*
X369933Y485386D01*
X369823Y485339D01*
X369715Y485288D01*
X369609Y485233D01*
X369505Y485176D01*
X369402Y485114D01*
X369302Y485050D01*
X369204Y484982D01*
X369108Y484911D01*
X369014Y484837D01*
X368923Y484760D01*
X368834Y484680D01*
X368749Y484597D01*
X368665Y484512D01*
X368585Y484424D01*
X368508Y484333D01*
X368433Y484240D01*
X368362Y484144D01*
X368294Y484046D01*
X368229Y483946D01*
X368167Y483844D01*
X368109Y483739D01*
X368054Y483634D01*
X368003Y483526D01*
X367955Y483416D01*
X367911Y483306D01*
X367871Y483193D01*
X367871Y483194D02*
X367721Y482877D01*
X367579Y482558D01*
X367445Y482235D01*
X367318Y481909D01*
X367200Y481579D01*
X367089Y481248D01*
X366986Y480913D01*
X366891Y480577D01*
X366805Y480238D01*
X366726Y479897D01*
X366655Y479554D01*
X366593Y479210D01*
X366539Y478865D01*
X366493Y478518D01*
X366456Y478170D01*
X366427Y477821D01*
X366406Y477472D01*
X366393Y477123D01*
X366389Y476773D01*
X376266Y476773D02*
X376262Y476423D01*
X376249Y476074D01*
X376228Y475725D01*
X376199Y475376D01*
X376162Y475028D01*
X376116Y474681D01*
X376062Y474336D01*
X376000Y473992D01*
X375929Y473649D01*
X375850Y473308D01*
X375764Y472969D01*
X375669Y472633D01*
X375566Y472298D01*
X375455Y471967D01*
X375337Y471638D01*
X375210Y471311D01*
X375076Y470988D01*
X374934Y470669D01*
X374784Y470353D01*
X374785Y470353D02*
X374745Y470240D01*
X374701Y470130D01*
X374653Y470020D01*
X374602Y469913D01*
X374547Y469807D01*
X374489Y469702D01*
X374427Y469600D01*
X374362Y469500D01*
X374294Y469402D01*
X374223Y469306D01*
X374148Y469213D01*
X374071Y469122D01*
X373991Y469034D01*
X373908Y468949D01*
X373822Y468866D01*
X373733Y468786D01*
X373642Y468709D01*
X373548Y468635D01*
X373452Y468564D01*
X373354Y468496D01*
X373254Y468432D01*
X373151Y468370D01*
X373047Y468313D01*
X372941Y468258D01*
X372833Y468207D01*
X372723Y468160D01*
X372612Y468116D01*
X372500Y468076D01*
X372386Y468040D01*
X372272Y468007D01*
X372156Y467978D01*
X372039Y467953D01*
X371922Y467932D01*
X371804Y467914D01*
X371685Y467901D01*
X371566Y467891D01*
X371447Y467885D01*
X371328Y467883D01*
X367871Y470353D02*
X367721Y470669D01*
X367579Y470988D01*
X367445Y471311D01*
X367318Y471638D01*
X367200Y471967D01*
X367089Y472298D01*
X366986Y472633D01*
X366891Y472969D01*
X366805Y473308D01*
X366726Y473649D01*
X366655Y473992D01*
X366593Y474336D01*
X366539Y474681D01*
X366493Y475028D01*
X366456Y475376D01*
X366427Y475725D01*
X366406Y476074D01*
X366393Y476423D01*
X366389Y476773D01*
X367871Y470353D02*
X367911Y470240D01*
X367955Y470130D01*
X368003Y470020D01*
X368054Y469912D01*
X368109Y469806D01*
X368167Y469702D01*
X368229Y469600D01*
X368294Y469500D01*
X368362Y469402D01*
X368433Y469306D01*
X368508Y469213D01*
X368585Y469122D01*
X368665Y469034D01*
X368749Y468949D01*
X368834Y468866D01*
X368923Y468786D01*
X369014Y468709D01*
X369108Y468635D01*
X369204Y468564D01*
X369302Y468496D01*
X369402Y468432D01*
X369505Y468370D01*
X369609Y468312D01*
X369715Y468258D01*
X369823Y468207D01*
X369933Y468160D01*
X370044Y468116D01*
X370156Y468076D01*
X370270Y468040D01*
X370384Y468007D01*
X370500Y467978D01*
X370617Y467953D01*
X370734Y467932D01*
X370852Y467914D01*
X370971Y467901D01*
X371090Y467891D01*
X371209Y467885D01*
X371328Y467883D01*
X375279Y471834D02*
X367377Y481712D01*
X359516Y467883D02*
X354577Y467883D01*
X354437Y467885D01*
X354298Y467891D01*
X354158Y467901D01*
X354019Y467915D01*
X353880Y467932D01*
X353742Y467954D01*
X353605Y467980D01*
X353468Y468009D01*
X353332Y468042D01*
X353198Y468079D01*
X353064Y468120D01*
X352932Y468165D01*
X352800Y468214D01*
X352671Y468266D01*
X352543Y468321D01*
X352416Y468381D01*
X352291Y468444D01*
X352168Y468510D01*
X352047Y468580D01*
X351928Y468653D01*
X351811Y468730D01*
X351697Y468810D01*
X351584Y468893D01*
X351474Y468979D01*
X351367Y469069D01*
X351262Y469161D01*
X351160Y469256D01*
X351060Y469354D01*
X350963Y469455D01*
X350869Y469559D01*
X350779Y469665D01*
X350691Y469774D01*
X350606Y469885D01*
X350525Y469999D01*
X350446Y470114D01*
X350371Y470232D01*
X350300Y470353D01*
X350232Y470475D01*
X350167Y470598D01*
X350106Y470724D01*
X350048Y470852D01*
X349994Y470980D01*
X349944Y471111D01*
X349897Y471243D01*
X349854Y471376D01*
X349815Y471510D01*
X349780Y471645D01*
X349749Y471781D01*
X349721Y471919D01*
X349698Y472056D01*
X349678Y472195D01*
X349662Y472334D01*
X349650Y472473D01*
X349642Y472612D01*
X349638Y472752D01*
X349638Y472892D01*
X349642Y473032D01*
X349650Y473171D01*
X349662Y473310D01*
X349678Y473449D01*
X349698Y473588D01*
X349721Y473725D01*
X349749Y473863D01*
X349780Y473999D01*
X349815Y474134D01*
X349854Y474268D01*
X349897Y474401D01*
X349944Y474533D01*
X349994Y474664D01*
X350048Y474792D01*
X350106Y474920D01*
X350167Y475046D01*
X350232Y475169D01*
X350300Y475292D01*
X350371Y475412D01*
X350446Y475530D01*
X350525Y475645D01*
X350606Y475759D01*
X350691Y475870D01*
X350779Y475979D01*
X350869Y476085D01*
X350963Y476189D01*
X351060Y476290D01*
X351160Y476388D01*
X351262Y476483D01*
X351367Y476575D01*
X351474Y476665D01*
X351584Y476751D01*
X351697Y476834D01*
X351811Y476914D01*
X351928Y476991D01*
X352047Y477064D01*
X352168Y477134D01*
X352291Y477200D01*
X352416Y477263D01*
X352543Y477323D01*
X352671Y477378D01*
X352800Y477430D01*
X352932Y477479D01*
X353064Y477524D01*
X353198Y477565D01*
X353332Y477602D01*
X353468Y477635D01*
X353605Y477664D01*
X353742Y477690D01*
X353880Y477712D01*
X354019Y477729D01*
X354158Y477743D01*
X354298Y477753D01*
X354437Y477759D01*
X354577Y477761D01*
X353589Y485663D02*
X359516Y485663D01*
X353589Y485663D02*
X353465Y485661D01*
X353341Y485655D01*
X353217Y485645D01*
X353094Y485632D01*
X352971Y485614D01*
X352849Y485593D01*
X352727Y485568D01*
X352606Y485539D01*
X352487Y485506D01*
X352368Y485470D01*
X352251Y485429D01*
X352135Y485386D01*
X352020Y485338D01*
X351907Y485287D01*
X351795Y485232D01*
X351686Y485174D01*
X351578Y485113D01*
X351472Y485048D01*
X351368Y484980D01*
X351267Y484908D01*
X351167Y484834D01*
X351071Y484756D01*
X350976Y484676D01*
X350884Y484592D01*
X350795Y484506D01*
X350709Y484417D01*
X350625Y484325D01*
X350545Y484230D01*
X350467Y484134D01*
X350393Y484034D01*
X350321Y483933D01*
X350253Y483829D01*
X350188Y483723D01*
X350127Y483615D01*
X350069Y483506D01*
X350014Y483394D01*
X349963Y483281D01*
X349915Y483166D01*
X349872Y483050D01*
X349831Y482933D01*
X349795Y482814D01*
X349762Y482695D01*
X349733Y482574D01*
X349708Y482452D01*
X349687Y482330D01*
X349669Y482207D01*
X349656Y482084D01*
X349646Y481960D01*
X349640Y481836D01*
X349638Y481712D01*
X349640Y481588D01*
X349646Y481464D01*
X349656Y481340D01*
X349669Y481217D01*
X349687Y481094D01*
X349708Y480972D01*
X349733Y480850D01*
X349762Y480729D01*
X349795Y480610D01*
X349831Y480491D01*
X349872Y480374D01*
X349915Y480258D01*
X349963Y480143D01*
X350014Y480030D01*
X350069Y479918D01*
X350127Y479809D01*
X350188Y479701D01*
X350253Y479595D01*
X350321Y479491D01*
X350393Y479390D01*
X350467Y479290D01*
X350545Y479194D01*
X350625Y479099D01*
X350709Y479007D01*
X350795Y478918D01*
X350884Y478832D01*
X350976Y478748D01*
X351071Y478668D01*
X351167Y478590D01*
X351267Y478516D01*
X351368Y478444D01*
X351472Y478376D01*
X351578Y478311D01*
X351686Y478250D01*
X351795Y478192D01*
X351907Y478137D01*
X352020Y478086D01*
X352135Y478038D01*
X352251Y477995D01*
X352368Y477954D01*
X352487Y477918D01*
X352606Y477885D01*
X352727Y477856D01*
X352849Y477831D01*
X352971Y477810D01*
X353094Y477792D01*
X353217Y477779D01*
X353341Y477769D01*
X353465Y477763D01*
X353589Y477761D01*
X357541Y477761D01*
X342122Y485663D02*
X342122Y467883D01*
X342122Y485663D02*
X337183Y485663D01*
X337043Y485661D01*
X336904Y485655D01*
X336764Y485645D01*
X336625Y485631D01*
X336486Y485614D01*
X336348Y485592D01*
X336211Y485566D01*
X336074Y485537D01*
X335938Y485504D01*
X335804Y485467D01*
X335670Y485426D01*
X335538Y485381D01*
X335406Y485332D01*
X335277Y485280D01*
X335149Y485225D01*
X335022Y485165D01*
X334897Y485102D01*
X334774Y485036D01*
X334653Y484966D01*
X334534Y484893D01*
X334417Y484816D01*
X334303Y484736D01*
X334190Y484653D01*
X334080Y484567D01*
X333973Y484477D01*
X333868Y484385D01*
X333766Y484290D01*
X333666Y484192D01*
X333569Y484091D01*
X333475Y483987D01*
X333385Y483881D01*
X333297Y483772D01*
X333212Y483661D01*
X333131Y483547D01*
X333052Y483432D01*
X332977Y483314D01*
X332906Y483194D01*
X332838Y483071D01*
X332773Y482948D01*
X332712Y482822D01*
X332654Y482694D01*
X332600Y482566D01*
X332550Y482435D01*
X332503Y482303D01*
X332460Y482170D01*
X332421Y482036D01*
X332386Y481901D01*
X332355Y481765D01*
X332327Y481627D01*
X332304Y481490D01*
X332284Y481351D01*
X332268Y481212D01*
X332256Y481073D01*
X332248Y480934D01*
X332244Y480794D01*
X332244Y480654D01*
X332248Y480514D01*
X332256Y480375D01*
X332268Y480236D01*
X332284Y480097D01*
X332304Y479958D01*
X332327Y479821D01*
X332355Y479683D01*
X332386Y479547D01*
X332421Y479412D01*
X332460Y479278D01*
X332503Y479145D01*
X332550Y479013D01*
X332600Y478882D01*
X332654Y478754D01*
X332712Y478626D01*
X332773Y478500D01*
X332838Y478377D01*
X332906Y478255D01*
X332977Y478134D01*
X333052Y478016D01*
X333131Y477901D01*
X333212Y477787D01*
X333297Y477676D01*
X333385Y477567D01*
X333475Y477461D01*
X333569Y477357D01*
X333666Y477256D01*
X333766Y477158D01*
X333868Y477063D01*
X333973Y476971D01*
X334080Y476881D01*
X334190Y476795D01*
X334303Y476712D01*
X334417Y476632D01*
X334534Y476555D01*
X334653Y476482D01*
X334774Y476412D01*
X334897Y476346D01*
X335022Y476283D01*
X335149Y476223D01*
X335277Y476168D01*
X335406Y476116D01*
X335538Y476067D01*
X335670Y476022D01*
X335804Y475981D01*
X335938Y475944D01*
X336074Y475911D01*
X336211Y475882D01*
X336348Y475856D01*
X336486Y475834D01*
X336625Y475817D01*
X336764Y475803D01*
X336904Y475793D01*
X337043Y475787D01*
X337183Y475785D01*
X342122Y475785D01*
X336195Y475785D02*
X332244Y467883D01*
X325457Y476773D02*
X325453Y477123D01*
X325440Y477472D01*
X325419Y477821D01*
X325390Y478170D01*
X325353Y478518D01*
X325307Y478865D01*
X325253Y479210D01*
X325191Y479554D01*
X325120Y479897D01*
X325041Y480238D01*
X324955Y480577D01*
X324860Y480913D01*
X324757Y481248D01*
X324646Y481579D01*
X324528Y481909D01*
X324401Y482235D01*
X324267Y482558D01*
X324125Y482877D01*
X323975Y483194D01*
X323935Y483307D01*
X323891Y483417D01*
X323843Y483527D01*
X323792Y483634D01*
X323737Y483740D01*
X323679Y483845D01*
X323617Y483947D01*
X323552Y484047D01*
X323484Y484145D01*
X323413Y484241D01*
X323338Y484334D01*
X323261Y484425D01*
X323181Y484513D01*
X323098Y484598D01*
X323012Y484681D01*
X322923Y484761D01*
X322832Y484838D01*
X322738Y484912D01*
X322642Y484983D01*
X322544Y485051D01*
X322444Y485115D01*
X322341Y485177D01*
X322237Y485234D01*
X322131Y485289D01*
X322023Y485340D01*
X321913Y485387D01*
X321802Y485431D01*
X321690Y485471D01*
X321576Y485507D01*
X321462Y485540D01*
X321346Y485569D01*
X321229Y485594D01*
X321112Y485615D01*
X320994Y485633D01*
X320875Y485646D01*
X320756Y485656D01*
X320637Y485662D01*
X320518Y485664D01*
X320518Y485663D02*
X320399Y485661D01*
X320280Y485655D01*
X320161Y485645D01*
X320042Y485632D01*
X319924Y485614D01*
X319807Y485593D01*
X319690Y485568D01*
X319574Y485539D01*
X319460Y485506D01*
X319346Y485470D01*
X319234Y485430D01*
X319123Y485386D01*
X319013Y485339D01*
X318905Y485288D01*
X318799Y485233D01*
X318695Y485176D01*
X318592Y485114D01*
X318492Y485050D01*
X318394Y484982D01*
X318298Y484911D01*
X318204Y484837D01*
X318113Y484760D01*
X318024Y484680D01*
X317939Y484597D01*
X317855Y484512D01*
X317775Y484424D01*
X317698Y484333D01*
X317623Y484240D01*
X317552Y484144D01*
X317484Y484046D01*
X317419Y483946D01*
X317357Y483844D01*
X317299Y483739D01*
X317244Y483634D01*
X317193Y483526D01*
X317145Y483416D01*
X317101Y483306D01*
X317061Y483193D01*
X317061Y483194D02*
X316911Y482877D01*
X316769Y482558D01*
X316635Y482235D01*
X316508Y481909D01*
X316390Y481579D01*
X316279Y481248D01*
X316176Y480913D01*
X316081Y480577D01*
X315995Y480238D01*
X315916Y479897D01*
X315845Y479554D01*
X315783Y479210D01*
X315729Y478865D01*
X315683Y478518D01*
X315646Y478170D01*
X315617Y477821D01*
X315596Y477472D01*
X315583Y477123D01*
X315579Y476773D01*
X325457Y476773D02*
X325453Y476423D01*
X325440Y476074D01*
X325419Y475725D01*
X325390Y475376D01*
X325353Y475028D01*
X325307Y474681D01*
X325253Y474336D01*
X325191Y473992D01*
X325120Y473649D01*
X325041Y473308D01*
X324955Y472969D01*
X324860Y472633D01*
X324757Y472298D01*
X324646Y471967D01*
X324528Y471638D01*
X324401Y471311D01*
X324267Y470988D01*
X324125Y470669D01*
X323975Y470353D01*
X323935Y470240D01*
X323891Y470130D01*
X323843Y470020D01*
X323792Y469913D01*
X323737Y469807D01*
X323679Y469702D01*
X323617Y469600D01*
X323552Y469500D01*
X323484Y469402D01*
X323413Y469306D01*
X323338Y469213D01*
X323261Y469122D01*
X323181Y469034D01*
X323098Y468949D01*
X323012Y468866D01*
X322923Y468786D01*
X322832Y468709D01*
X322738Y468635D01*
X322642Y468564D01*
X322544Y468496D01*
X322444Y468432D01*
X322341Y468370D01*
X322237Y468313D01*
X322131Y468258D01*
X322023Y468207D01*
X321913Y468160D01*
X321802Y468116D01*
X321690Y468076D01*
X321576Y468040D01*
X321462Y468007D01*
X321346Y467978D01*
X321229Y467953D01*
X321112Y467932D01*
X320994Y467914D01*
X320875Y467901D01*
X320756Y467891D01*
X320637Y467885D01*
X320518Y467883D01*
X317061Y470353D02*
X316911Y470669D01*
X316769Y470988D01*
X316635Y471311D01*
X316508Y471638D01*
X316390Y471967D01*
X316279Y472298D01*
X316176Y472633D01*
X316081Y472969D01*
X315995Y473308D01*
X315916Y473649D01*
X315845Y473992D01*
X315783Y474336D01*
X315729Y474681D01*
X315683Y475028D01*
X315646Y475376D01*
X315617Y475725D01*
X315596Y476074D01*
X315583Y476423D01*
X315579Y476773D01*
X317061Y470353D02*
X317101Y470240D01*
X317145Y470130D01*
X317193Y470020D01*
X317244Y469912D01*
X317299Y469806D01*
X317357Y469702D01*
X317419Y469600D01*
X317484Y469500D01*
X317552Y469402D01*
X317623Y469306D01*
X317698Y469213D01*
X317775Y469122D01*
X317855Y469034D01*
X317939Y468949D01*
X318024Y468866D01*
X318113Y468786D01*
X318204Y468709D01*
X318298Y468635D01*
X318394Y468564D01*
X318492Y468496D01*
X318592Y468432D01*
X318695Y468370D01*
X318799Y468312D01*
X318905Y468258D01*
X319013Y468207D01*
X319123Y468160D01*
X319234Y468116D01*
X319346Y468076D01*
X319460Y468040D01*
X319574Y468007D01*
X319690Y467978D01*
X319807Y467953D01*
X319924Y467932D01*
X320042Y467914D01*
X320161Y467901D01*
X320280Y467891D01*
X320399Y467885D01*
X320518Y467883D01*
X324469Y471834D02*
X316567Y481712D01*
X308706Y476773D02*
X308702Y477123D01*
X308689Y477472D01*
X308668Y477821D01*
X308639Y478170D01*
X308602Y478518D01*
X308556Y478865D01*
X308502Y479210D01*
X308440Y479554D01*
X308369Y479897D01*
X308290Y480238D01*
X308204Y480577D01*
X308109Y480913D01*
X308006Y481248D01*
X307895Y481579D01*
X307777Y481909D01*
X307650Y482235D01*
X307516Y482558D01*
X307374Y482877D01*
X307224Y483194D01*
X307225Y483194D02*
X307185Y483307D01*
X307141Y483417D01*
X307093Y483527D01*
X307042Y483634D01*
X306987Y483740D01*
X306929Y483845D01*
X306867Y483947D01*
X306802Y484047D01*
X306734Y484145D01*
X306663Y484241D01*
X306588Y484334D01*
X306511Y484425D01*
X306431Y484513D01*
X306348Y484598D01*
X306262Y484681D01*
X306173Y484761D01*
X306082Y484838D01*
X305988Y484912D01*
X305892Y484983D01*
X305794Y485051D01*
X305694Y485115D01*
X305591Y485177D01*
X305487Y485234D01*
X305381Y485289D01*
X305273Y485340D01*
X305163Y485387D01*
X305052Y485431D01*
X304940Y485471D01*
X304826Y485507D01*
X304712Y485540D01*
X304596Y485569D01*
X304479Y485594D01*
X304362Y485615D01*
X304244Y485633D01*
X304125Y485646D01*
X304006Y485656D01*
X303887Y485662D01*
X303768Y485664D01*
X303768Y485663D02*
X303649Y485661D01*
X303530Y485655D01*
X303411Y485645D01*
X303292Y485632D01*
X303174Y485614D01*
X303057Y485593D01*
X302940Y485568D01*
X302824Y485539D01*
X302710Y485506D01*
X302596Y485470D01*
X302484Y485430D01*
X302373Y485386D01*
X302263Y485339D01*
X302155Y485288D01*
X302049Y485233D01*
X301945Y485176D01*
X301842Y485114D01*
X301742Y485050D01*
X301644Y484982D01*
X301548Y484911D01*
X301454Y484837D01*
X301363Y484760D01*
X301274Y484680D01*
X301189Y484597D01*
X301105Y484512D01*
X301025Y484424D01*
X300948Y484333D01*
X300873Y484240D01*
X300802Y484144D01*
X300734Y484046D01*
X300669Y483946D01*
X300607Y483844D01*
X300549Y483739D01*
X300494Y483634D01*
X300443Y483526D01*
X300395Y483416D01*
X300351Y483306D01*
X300311Y483193D01*
X300311Y483194D02*
X300161Y482877D01*
X300019Y482558D01*
X299885Y482235D01*
X299758Y481909D01*
X299640Y481579D01*
X299529Y481248D01*
X299426Y480913D01*
X299331Y480577D01*
X299245Y480238D01*
X299166Y479897D01*
X299095Y479554D01*
X299033Y479210D01*
X298979Y478865D01*
X298933Y478518D01*
X298896Y478170D01*
X298867Y477821D01*
X298846Y477472D01*
X298833Y477123D01*
X298829Y476773D01*
X308706Y476773D02*
X308702Y476423D01*
X308689Y476074D01*
X308668Y475725D01*
X308639Y475376D01*
X308602Y475028D01*
X308556Y474681D01*
X308502Y474336D01*
X308440Y473992D01*
X308369Y473649D01*
X308290Y473308D01*
X308204Y472969D01*
X308109Y472633D01*
X308006Y472298D01*
X307895Y471967D01*
X307777Y471638D01*
X307650Y471311D01*
X307516Y470988D01*
X307374Y470669D01*
X307224Y470353D01*
X307225Y470353D02*
X307185Y470240D01*
X307141Y470130D01*
X307093Y470020D01*
X307042Y469913D01*
X306987Y469807D01*
X306929Y469702D01*
X306867Y469600D01*
X306802Y469500D01*
X306734Y469402D01*
X306663Y469306D01*
X306588Y469213D01*
X306511Y469122D01*
X306431Y469034D01*
X306348Y468949D01*
X306262Y468866D01*
X306173Y468786D01*
X306082Y468709D01*
X305988Y468635D01*
X305892Y468564D01*
X305794Y468496D01*
X305694Y468432D01*
X305591Y468370D01*
X305487Y468313D01*
X305381Y468258D01*
X305273Y468207D01*
X305163Y468160D01*
X305052Y468116D01*
X304940Y468076D01*
X304826Y468040D01*
X304712Y468007D01*
X304596Y467978D01*
X304479Y467953D01*
X304362Y467932D01*
X304244Y467914D01*
X304125Y467901D01*
X304006Y467891D01*
X303887Y467885D01*
X303768Y467883D01*
X300311Y470353D02*
X300161Y470669D01*
X300019Y470988D01*
X299885Y471311D01*
X299758Y471638D01*
X299640Y471967D01*
X299529Y472298D01*
X299426Y472633D01*
X299331Y472969D01*
X299245Y473308D01*
X299166Y473649D01*
X299095Y473992D01*
X299033Y474336D01*
X298979Y474681D01*
X298933Y475028D01*
X298896Y475376D01*
X298867Y475725D01*
X298846Y476074D01*
X298833Y476423D01*
X298829Y476773D01*
X300311Y470353D02*
X300351Y470240D01*
X300395Y470130D01*
X300443Y470020D01*
X300494Y469912D01*
X300549Y469806D01*
X300607Y469702D01*
X300669Y469600D01*
X300734Y469500D01*
X300802Y469402D01*
X300873Y469306D01*
X300948Y469213D01*
X301025Y469122D01*
X301105Y469034D01*
X301189Y468949D01*
X301274Y468866D01*
X301363Y468786D01*
X301454Y468709D01*
X301548Y468635D01*
X301644Y468564D01*
X301742Y468496D01*
X301842Y468432D01*
X301945Y468370D01*
X302049Y468312D01*
X302155Y468258D01*
X302263Y468207D01*
X302373Y468160D01*
X302484Y468116D01*
X302596Y468076D01*
X302710Y468040D01*
X302824Y468007D01*
X302940Y467978D01*
X303057Y467953D01*
X303174Y467932D01*
X303292Y467914D01*
X303411Y467901D01*
X303530Y467891D01*
X303649Y467885D01*
X303768Y467883D01*
X307719Y471834D02*
X299816Y481712D01*
X322464Y268302D02*
X325174Y268302D01*
X322464Y268302D02*
X322464Y259271D01*
X327883Y259271D01*
X328001Y259273D01*
X328119Y259279D01*
X328237Y259288D01*
X328354Y259302D01*
X328471Y259319D01*
X328588Y259340D01*
X328703Y259365D01*
X328818Y259394D01*
X328932Y259427D01*
X329044Y259463D01*
X329155Y259503D01*
X329265Y259546D01*
X329374Y259593D01*
X329481Y259643D01*
X329586Y259698D01*
X329689Y259755D01*
X329790Y259816D01*
X329890Y259880D01*
X329987Y259947D01*
X330082Y260017D01*
X330174Y260091D01*
X330265Y260167D01*
X330352Y260247D01*
X330437Y260329D01*
X330519Y260414D01*
X330599Y260501D01*
X330675Y260592D01*
X330749Y260684D01*
X330819Y260779D01*
X330886Y260876D01*
X330950Y260976D01*
X331011Y261077D01*
X331068Y261180D01*
X331123Y261285D01*
X331173Y261392D01*
X331220Y261501D01*
X331263Y261611D01*
X331303Y261722D01*
X331339Y261834D01*
X331372Y261948D01*
X331401Y262063D01*
X331426Y262178D01*
X331447Y262295D01*
X331464Y262412D01*
X331478Y262529D01*
X331487Y262647D01*
X331493Y262765D01*
X331495Y262883D01*
X331495Y271914D01*
X331493Y272032D01*
X331487Y272150D01*
X331478Y272268D01*
X331464Y272385D01*
X331447Y272502D01*
X331426Y272619D01*
X331401Y272734D01*
X331372Y272849D01*
X331339Y272963D01*
X331303Y273075D01*
X331263Y273186D01*
X331220Y273296D01*
X331173Y273405D01*
X331123Y273512D01*
X331068Y273617D01*
X331011Y273720D01*
X330950Y273821D01*
X330886Y273921D01*
X330819Y274018D01*
X330749Y274113D01*
X330675Y274205D01*
X330599Y274296D01*
X330519Y274383D01*
X330437Y274468D01*
X330352Y274550D01*
X330265Y274630D01*
X330174Y274706D01*
X330082Y274780D01*
X329987Y274850D01*
X329890Y274917D01*
X329790Y274981D01*
X329689Y275042D01*
X329586Y275099D01*
X329481Y275154D01*
X329374Y275204D01*
X329265Y275251D01*
X329155Y275294D01*
X329044Y275334D01*
X328932Y275370D01*
X328818Y275403D01*
X328703Y275432D01*
X328588Y275457D01*
X328471Y275478D01*
X328354Y275495D01*
X328237Y275509D01*
X328119Y275518D01*
X328001Y275524D01*
X327883Y275526D01*
X327883Y275527D02*
X322464Y275527D01*
X314822Y275527D02*
X314822Y259271D01*
X305791Y259271D02*
X314822Y275527D01*
X305791Y275527D02*
X305791Y259271D01*
X298149Y259271D02*
X298149Y275527D01*
X293633Y275527D01*
X293502Y275525D01*
X293370Y275519D01*
X293239Y275510D01*
X293109Y275496D01*
X292978Y275479D01*
X292849Y275458D01*
X292720Y275434D01*
X292592Y275405D01*
X292464Y275373D01*
X292338Y275337D01*
X292213Y275298D01*
X292088Y275255D01*
X291966Y275208D01*
X291844Y275158D01*
X291724Y275104D01*
X291606Y275047D01*
X291490Y274986D01*
X291375Y274922D01*
X291262Y274855D01*
X291151Y274784D01*
X291043Y274710D01*
X290936Y274633D01*
X290832Y274553D01*
X290730Y274470D01*
X290631Y274385D01*
X290534Y274296D01*
X290440Y274204D01*
X290348Y274110D01*
X290259Y274013D01*
X290174Y273914D01*
X290091Y273812D01*
X290011Y273708D01*
X289934Y273601D01*
X289860Y273493D01*
X289789Y273382D01*
X289722Y273269D01*
X289658Y273154D01*
X289597Y273038D01*
X289540Y272920D01*
X289486Y272800D01*
X289436Y272678D01*
X289389Y272556D01*
X289346Y272431D01*
X289307Y272306D01*
X289271Y272180D01*
X289239Y272052D01*
X289210Y271924D01*
X289186Y271795D01*
X289165Y271666D01*
X289148Y271535D01*
X289134Y271405D01*
X289125Y271274D01*
X289119Y271142D01*
X289117Y271011D01*
X289118Y271011D02*
X289118Y263786D01*
X289117Y263786D02*
X289119Y263655D01*
X289125Y263523D01*
X289134Y263392D01*
X289148Y263262D01*
X289165Y263131D01*
X289186Y263002D01*
X289210Y262873D01*
X289239Y262745D01*
X289271Y262617D01*
X289307Y262491D01*
X289346Y262366D01*
X289389Y262241D01*
X289436Y262119D01*
X289486Y261997D01*
X289540Y261877D01*
X289597Y261759D01*
X289658Y261643D01*
X289722Y261528D01*
X289789Y261415D01*
X289860Y261304D01*
X289934Y261196D01*
X290011Y261089D01*
X290091Y260985D01*
X290174Y260883D01*
X290259Y260784D01*
X290348Y260687D01*
X290440Y260593D01*
X290534Y260501D01*
X290631Y260412D01*
X290730Y260327D01*
X290832Y260244D01*
X290936Y260164D01*
X291043Y260087D01*
X291151Y260013D01*
X291262Y259942D01*
X291375Y259875D01*
X291490Y259811D01*
X291606Y259750D01*
X291724Y259693D01*
X291844Y259639D01*
X291966Y259589D01*
X292088Y259542D01*
X292213Y259499D01*
X292338Y259460D01*
X292464Y259424D01*
X292592Y259392D01*
X292720Y259363D01*
X292849Y259339D01*
X292978Y259318D01*
X293109Y259301D01*
X293239Y259287D01*
X293370Y259278D01*
X293502Y259272D01*
X293633Y259270D01*
X293633Y259271D02*
X298149Y259271D01*
X422718Y258991D02*
X428137Y258991D01*
X422718Y258992D02*
X422600Y258994D01*
X422482Y259000D01*
X422364Y259009D01*
X422247Y259023D01*
X422130Y259040D01*
X422013Y259061D01*
X421898Y259086D01*
X421783Y259115D01*
X421669Y259148D01*
X421557Y259184D01*
X421446Y259224D01*
X421336Y259267D01*
X421227Y259314D01*
X421120Y259364D01*
X421015Y259419D01*
X420912Y259476D01*
X420811Y259537D01*
X420711Y259601D01*
X420614Y259668D01*
X420519Y259738D01*
X420427Y259812D01*
X420336Y259888D01*
X420249Y259968D01*
X420164Y260050D01*
X420082Y260135D01*
X420002Y260222D01*
X419926Y260313D01*
X419852Y260405D01*
X419782Y260500D01*
X419715Y260597D01*
X419651Y260697D01*
X419590Y260798D01*
X419533Y260901D01*
X419478Y261006D01*
X419428Y261113D01*
X419381Y261222D01*
X419338Y261332D01*
X419298Y261443D01*
X419262Y261555D01*
X419229Y261669D01*
X419200Y261784D01*
X419175Y261899D01*
X419154Y262016D01*
X419137Y262133D01*
X419123Y262250D01*
X419114Y262368D01*
X419108Y262486D01*
X419106Y262604D01*
X419105Y262604D02*
X419105Y264410D01*
X419106Y264410D02*
X419108Y264528D01*
X419114Y264646D01*
X419123Y264764D01*
X419137Y264881D01*
X419154Y264998D01*
X419175Y265115D01*
X419200Y265230D01*
X419229Y265345D01*
X419262Y265459D01*
X419298Y265571D01*
X419338Y265682D01*
X419381Y265792D01*
X419428Y265901D01*
X419478Y266008D01*
X419533Y266113D01*
X419590Y266216D01*
X419651Y266317D01*
X419715Y266417D01*
X419782Y266514D01*
X419852Y266609D01*
X419926Y266701D01*
X420002Y266792D01*
X420082Y266879D01*
X420164Y266964D01*
X420249Y267046D01*
X420336Y267126D01*
X420427Y267202D01*
X420519Y267276D01*
X420614Y267346D01*
X420711Y267413D01*
X420811Y267477D01*
X420912Y267538D01*
X421015Y267595D01*
X421120Y267650D01*
X421227Y267700D01*
X421336Y267747D01*
X421446Y267790D01*
X421557Y267830D01*
X421669Y267866D01*
X421783Y267899D01*
X421898Y267928D01*
X422013Y267953D01*
X422130Y267974D01*
X422247Y267991D01*
X422364Y268005D01*
X422482Y268014D01*
X422600Y268020D01*
X422718Y268022D01*
X428137Y268022D01*
X428137Y275247D01*
X419105Y275247D01*
X412366Y265313D02*
X401529Y265313D01*
X394790Y262604D02*
X391178Y275247D01*
X394790Y262604D02*
X385759Y262604D01*
X388468Y266216D02*
X388468Y258991D01*
X379159Y267119D02*
X379155Y267439D01*
X379144Y267758D01*
X379125Y268078D01*
X379098Y268396D01*
X379064Y268714D01*
X379022Y269031D01*
X378972Y269347D01*
X378915Y269662D01*
X378851Y269975D01*
X378779Y270287D01*
X378700Y270597D01*
X378613Y270904D01*
X378519Y271210D01*
X378418Y271513D01*
X378309Y271814D01*
X378194Y272112D01*
X378071Y272408D01*
X377941Y272700D01*
X377804Y272989D01*
X377804Y272990D02*
X377765Y273098D01*
X377722Y273205D01*
X377676Y273310D01*
X377625Y273414D01*
X377572Y273516D01*
X377515Y273616D01*
X377454Y273714D01*
X377390Y273809D01*
X377323Y273903D01*
X377252Y273994D01*
X377179Y274083D01*
X377102Y274169D01*
X377023Y274252D01*
X376941Y274333D01*
X376856Y274411D01*
X376768Y274485D01*
X376678Y274557D01*
X376586Y274625D01*
X376491Y274691D01*
X376394Y274753D01*
X376295Y274811D01*
X376193Y274867D01*
X376091Y274918D01*
X375986Y274966D01*
X375880Y275011D01*
X375772Y275052D01*
X375663Y275089D01*
X375553Y275122D01*
X375441Y275151D01*
X375329Y275177D01*
X375216Y275199D01*
X375102Y275216D01*
X374988Y275230D01*
X374873Y275240D01*
X374758Y275246D01*
X374643Y275248D01*
X374528Y275246D01*
X374413Y275240D01*
X374298Y275230D01*
X374184Y275216D01*
X374070Y275199D01*
X373957Y275177D01*
X373845Y275151D01*
X373733Y275122D01*
X373623Y275089D01*
X373514Y275052D01*
X373406Y275011D01*
X373300Y274966D01*
X373196Y274918D01*
X373093Y274867D01*
X372992Y274811D01*
X372892Y274753D01*
X372795Y274691D01*
X372701Y274626D01*
X372608Y274557D01*
X372518Y274485D01*
X372430Y274411D01*
X372345Y274333D01*
X372263Y274252D01*
X372184Y274169D01*
X372107Y274083D01*
X372034Y273994D01*
X371963Y273903D01*
X371896Y273809D01*
X371832Y273714D01*
X371771Y273616D01*
X371714Y273516D01*
X371661Y273414D01*
X371610Y273310D01*
X371564Y273205D01*
X371521Y273098D01*
X371482Y272990D01*
X371483Y272989D02*
X371346Y272700D01*
X371216Y272408D01*
X371093Y272112D01*
X370978Y271814D01*
X370869Y271513D01*
X370768Y271210D01*
X370674Y270904D01*
X370587Y270597D01*
X370508Y270287D01*
X370436Y269975D01*
X370372Y269662D01*
X370315Y269347D01*
X370265Y269031D01*
X370223Y268714D01*
X370189Y268396D01*
X370162Y268078D01*
X370143Y267758D01*
X370132Y267439D01*
X370128Y267119D01*
X379158Y267119D02*
X379154Y266799D01*
X379143Y266480D01*
X379124Y266160D01*
X379097Y265842D01*
X379063Y265524D01*
X379021Y265207D01*
X378971Y264891D01*
X378914Y264576D01*
X378850Y264263D01*
X378778Y263951D01*
X378699Y263641D01*
X378612Y263334D01*
X378518Y263028D01*
X378417Y262725D01*
X378308Y262424D01*
X378193Y262126D01*
X378070Y261830D01*
X377940Y261538D01*
X377803Y261249D01*
X377804Y261249D02*
X377765Y261141D01*
X377722Y261034D01*
X377676Y260929D01*
X377625Y260825D01*
X377572Y260723D01*
X377515Y260623D01*
X377454Y260525D01*
X377390Y260430D01*
X377323Y260336D01*
X377252Y260245D01*
X377179Y260156D01*
X377102Y260070D01*
X377023Y259987D01*
X376941Y259906D01*
X376856Y259828D01*
X376768Y259754D01*
X376678Y259682D01*
X376585Y259613D01*
X376491Y259548D01*
X376394Y259486D01*
X376294Y259428D01*
X376193Y259372D01*
X376091Y259321D01*
X375986Y259273D01*
X375880Y259228D01*
X375772Y259187D01*
X375663Y259150D01*
X375553Y259117D01*
X375441Y259088D01*
X375329Y259062D01*
X375216Y259040D01*
X375102Y259023D01*
X374988Y259009D01*
X374873Y258999D01*
X374758Y258993D01*
X374643Y258991D01*
X371483Y261249D02*
X371346Y261538D01*
X371216Y261830D01*
X371093Y262126D01*
X370978Y262424D01*
X370869Y262725D01*
X370768Y263028D01*
X370674Y263334D01*
X370587Y263641D01*
X370508Y263951D01*
X370436Y264263D01*
X370372Y264576D01*
X370315Y264891D01*
X370265Y265207D01*
X370223Y265524D01*
X370189Y265842D01*
X370162Y266160D01*
X370143Y266480D01*
X370132Y266799D01*
X370128Y267119D01*
X371482Y261249D02*
X371521Y261141D01*
X371564Y261034D01*
X371610Y260929D01*
X371661Y260825D01*
X371714Y260723D01*
X371772Y260623D01*
X371832Y260525D01*
X371896Y260430D01*
X371963Y260336D01*
X372034Y260245D01*
X372107Y260156D01*
X372184Y260070D01*
X372263Y259987D01*
X372345Y259906D01*
X372430Y259828D01*
X372518Y259754D01*
X372608Y259682D01*
X372701Y259613D01*
X372795Y259548D01*
X372892Y259486D01*
X372992Y259428D01*
X373093Y259372D01*
X373196Y259321D01*
X373300Y259273D01*
X373406Y259228D01*
X373514Y259187D01*
X373623Y259150D01*
X373733Y259117D01*
X373845Y259088D01*
X373957Y259062D01*
X374070Y259040D01*
X374184Y259023D01*
X374298Y259009D01*
X374413Y258999D01*
X374528Y258993D01*
X374643Y258991D01*
X378256Y262604D02*
X371031Y271635D01*
X364431Y275247D02*
X359012Y258991D01*
X353593Y275247D01*
D10*
X416941Y429390D02*
X416941Y435994D01*
X416941Y429390D02*
X416939Y429290D01*
X416933Y429191D01*
X416923Y429091D01*
X416910Y428993D01*
X416892Y428894D01*
X416871Y428797D01*
X416846Y428701D01*
X416817Y428605D01*
X416784Y428511D01*
X416748Y428418D01*
X416708Y428327D01*
X416664Y428237D01*
X416617Y428149D01*
X416567Y428063D01*
X416513Y427979D01*
X416456Y427897D01*
X416396Y427818D01*
X416332Y427740D01*
X416266Y427666D01*
X416197Y427594D01*
X416125Y427525D01*
X416051Y427459D01*
X415973Y427395D01*
X415894Y427335D01*
X415812Y427278D01*
X415728Y427224D01*
X415642Y427174D01*
X415554Y427127D01*
X415464Y427083D01*
X415373Y427043D01*
X415280Y427007D01*
X415186Y426974D01*
X415090Y426945D01*
X414994Y426920D01*
X414897Y426899D01*
X414798Y426881D01*
X414700Y426868D01*
X414600Y426858D01*
X414501Y426852D01*
X414401Y426850D01*
X414301Y426852D01*
X414202Y426858D01*
X414102Y426868D01*
X414004Y426881D01*
X413905Y426899D01*
X413808Y426920D01*
X413712Y426945D01*
X413616Y426974D01*
X413522Y427007D01*
X413429Y427043D01*
X413338Y427083D01*
X413248Y427127D01*
X413160Y427174D01*
X413074Y427224D01*
X412990Y427278D01*
X412908Y427335D01*
X412829Y427395D01*
X412751Y427459D01*
X412677Y427525D01*
X412605Y427594D01*
X412536Y427666D01*
X412470Y427740D01*
X412406Y427818D01*
X412346Y427897D01*
X412289Y427979D01*
X412235Y428063D01*
X412185Y428149D01*
X412138Y428237D01*
X412094Y428327D01*
X412054Y428418D01*
X412018Y428511D01*
X411985Y428605D01*
X411956Y428701D01*
X411931Y428797D01*
X411910Y428894D01*
X411892Y428993D01*
X411879Y429091D01*
X411869Y429191D01*
X411863Y429290D01*
X411861Y429390D01*
X411861Y435994D01*
X407492Y433962D02*
X404952Y435994D01*
X404952Y426850D01*
X407492Y426850D02*
X402412Y426850D01*
D12*
X226250Y391950D02*
X226150Y319100D01*
X269150Y319100D02*
X269150Y392100D01*
D11*
X229150Y393600D02*
X229150Y399600D01*
X232150Y396600D02*
X226150Y396600D01*
D13*
X243675Y294169D02*
X243675Y292080D01*
X243677Y291991D01*
X243683Y291903D01*
X243692Y291815D01*
X243705Y291727D01*
X243722Y291640D01*
X243742Y291554D01*
X243767Y291469D01*
X243794Y291384D01*
X243826Y291301D01*
X243860Y291220D01*
X243899Y291140D01*
X243940Y291062D01*
X243985Y290985D01*
X244033Y290911D01*
X244084Y290838D01*
X244138Y290768D01*
X244196Y290701D01*
X244256Y290635D01*
X244318Y290573D01*
X244384Y290513D01*
X244451Y290455D01*
X244521Y290401D01*
X244594Y290350D01*
X244668Y290302D01*
X244745Y290257D01*
X244823Y290216D01*
X244903Y290177D01*
X244984Y290143D01*
X245067Y290111D01*
X245152Y290084D01*
X245237Y290059D01*
X245323Y290039D01*
X245410Y290022D01*
X245498Y290009D01*
X245586Y290000D01*
X245674Y289994D01*
X245763Y289992D01*
X250984Y289992D01*
X251075Y289994D01*
X251166Y290000D01*
X251257Y290010D01*
X251347Y290024D01*
X251436Y290041D01*
X251524Y290063D01*
X251612Y290089D01*
X251698Y290118D01*
X251783Y290151D01*
X251866Y290188D01*
X251948Y290228D01*
X252028Y290272D01*
X252106Y290319D01*
X252182Y290370D01*
X252255Y290423D01*
X252326Y290480D01*
X252395Y290541D01*
X252460Y290604D01*
X252523Y290669D01*
X252583Y290738D01*
X252641Y290809D01*
X252694Y290882D01*
X252745Y290958D01*
X252792Y291036D01*
X252836Y291116D01*
X252876Y291198D01*
X252913Y291281D01*
X252946Y291366D01*
X252975Y291452D01*
X253001Y291540D01*
X253023Y291628D01*
X253040Y291717D01*
X253054Y291807D01*
X253064Y291898D01*
X253070Y291989D01*
X253072Y292080D01*
X253073Y292080D02*
X253073Y294169D01*
X253073Y300509D02*
X253071Y300604D01*
X253065Y300698D01*
X253056Y300792D01*
X253043Y300886D01*
X253026Y300979D01*
X253005Y301071D01*
X252980Y301163D01*
X252952Y301253D01*
X252920Y301342D01*
X252885Y301430D01*
X252846Y301516D01*
X252804Y301601D01*
X252758Y301684D01*
X252709Y301765D01*
X252657Y301844D01*
X252602Y301921D01*
X252543Y301995D01*
X252482Y302067D01*
X252418Y302137D01*
X252351Y302204D01*
X252281Y302268D01*
X252209Y302329D01*
X252135Y302388D01*
X252058Y302443D01*
X251979Y302495D01*
X251898Y302544D01*
X251815Y302590D01*
X251730Y302632D01*
X251644Y302671D01*
X251556Y302706D01*
X251467Y302738D01*
X251377Y302766D01*
X251285Y302791D01*
X251193Y302812D01*
X251100Y302829D01*
X251006Y302842D01*
X250912Y302851D01*
X250818Y302857D01*
X250723Y302859D01*
X253072Y300509D02*
X253070Y300401D01*
X253064Y300292D01*
X253054Y300184D01*
X253041Y300077D01*
X253023Y299970D01*
X253002Y299863D01*
X252977Y299758D01*
X252948Y299653D01*
X252916Y299550D01*
X252879Y299448D01*
X252839Y299347D01*
X252796Y299248D01*
X252749Y299150D01*
X252698Y299054D01*
X252644Y298960D01*
X252587Y298868D01*
X252526Y298778D01*
X252462Y298690D01*
X252396Y298605D01*
X252326Y298522D01*
X252253Y298442D01*
X252177Y298364D01*
X252099Y298289D01*
X252018Y298217D01*
X251934Y298148D01*
X251848Y298082D01*
X251760Y298019D01*
X251669Y297960D01*
X251577Y297903D01*
X251482Y297850D01*
X251386Y297801D01*
X251287Y297755D01*
X251188Y297712D01*
X251086Y297673D01*
X250984Y297638D01*
X248895Y302076D02*
X248964Y302145D01*
X249035Y302211D01*
X249108Y302275D01*
X249184Y302336D01*
X249263Y302394D01*
X249343Y302448D01*
X249426Y302500D01*
X249510Y302548D01*
X249596Y302594D01*
X249684Y302635D01*
X249774Y302674D01*
X249865Y302709D01*
X249957Y302740D01*
X250050Y302768D01*
X250144Y302792D01*
X250239Y302812D01*
X250335Y302829D01*
X250432Y302842D01*
X250529Y302851D01*
X250626Y302857D01*
X250723Y302859D01*
X248896Y302075D02*
X243675Y297638D01*
X243675Y302859D01*
M02*
