G04 EAGLE Gerber RS-274X export*
G75*
%MOMM*%
%FSLAX34Y34*%
%LPD*%
%INTop Copper*%
%IPPOS*%
%AMOC8*
5,1,8,0,0,1.08239X$1,22.5*%
G01*
%ADD10C,1.000000*%
%ADD11R,2.500000X2.500000*%
%ADD12C,2.500000*%
%ADD13P,1.732040X8X112.500000*%
%ADD14C,1.600200*%
%ADD15R,0.800000X1.600000*%
%ADD16R,2.900000X5.400000*%
%ADD17R,0.800000X0.800000*%
%ADD18R,1.100000X1.000000*%
%ADD19C,1.016000*%
%ADD20C,0.304800*%
%ADD21C,0.756400*%
%ADD22C,0.609600*%

G36*
X278630Y195708D02*
X278630Y195708D01*
X278658Y195706D01*
X278726Y195728D01*
X278797Y195742D01*
X278820Y195758D01*
X278847Y195767D01*
X278902Y195814D01*
X278961Y195855D01*
X278976Y195879D01*
X278998Y195897D01*
X279029Y195962D01*
X279068Y196022D01*
X279073Y196050D01*
X279085Y196076D01*
X279094Y196177D01*
X279101Y196219D01*
X279099Y196229D01*
X279100Y196242D01*
X279043Y196957D01*
X413361Y196957D01*
X413304Y196242D01*
X413308Y196213D01*
X413303Y196185D01*
X413320Y196116D01*
X413328Y196044D01*
X413343Y196020D01*
X413349Y195992D01*
X413392Y195934D01*
X413428Y195872D01*
X413450Y195855D01*
X413467Y195832D01*
X413529Y195795D01*
X413586Y195752D01*
X413614Y195745D01*
X413638Y195730D01*
X413738Y195714D01*
X413779Y195703D01*
X413789Y195705D01*
X413802Y195703D01*
X432802Y195703D01*
X432878Y195718D01*
X432956Y195727D01*
X432975Y195738D01*
X432997Y195742D01*
X433061Y195786D01*
X433129Y195825D01*
X433145Y195844D01*
X433161Y195855D01*
X433185Y195893D01*
X433235Y195953D01*
X442735Y212453D01*
X442744Y212480D01*
X442760Y212504D01*
X442775Y212574D01*
X442798Y212642D01*
X442795Y212670D01*
X442801Y212698D01*
X442788Y212769D01*
X442782Y212840D01*
X442769Y212865D01*
X442763Y212893D01*
X442723Y212953D01*
X442690Y213016D01*
X442668Y213034D01*
X442652Y213058D01*
X442569Y213116D01*
X442537Y213143D01*
X442526Y213146D01*
X442516Y213153D01*
X441888Y213450D01*
X509010Y329711D01*
X509618Y329291D01*
X509645Y329280D01*
X509667Y329261D01*
X509736Y329241D01*
X509801Y329213D01*
X509830Y329213D01*
X509858Y329205D01*
X509929Y329213D01*
X510000Y329213D01*
X510027Y329224D01*
X510056Y329227D01*
X510118Y329262D01*
X510183Y329290D01*
X510204Y329310D01*
X510229Y329325D01*
X510292Y329402D01*
X510322Y329432D01*
X510326Y329442D01*
X510335Y329453D01*
X519835Y345953D01*
X519845Y345985D01*
X519854Y345998D01*
X519858Y346022D01*
X519859Y346026D01*
X519890Y346096D01*
X519890Y346120D01*
X519898Y346142D01*
X519892Y346218D01*
X519893Y346295D01*
X519883Y346319D01*
X519882Y346340D01*
X519861Y346379D01*
X519835Y346451D01*
X510335Y362951D01*
X510316Y362973D01*
X510303Y362999D01*
X510250Y363047D01*
X510203Y363100D01*
X510177Y363113D01*
X510156Y363132D01*
X510088Y363155D01*
X510024Y363186D01*
X509995Y363188D01*
X509968Y363197D01*
X509896Y363192D01*
X509825Y363195D01*
X509798Y363185D01*
X509769Y363183D01*
X509679Y363141D01*
X509639Y363126D01*
X509631Y363119D01*
X509618Y363113D01*
X509010Y362693D01*
X441888Y478954D01*
X442516Y479251D01*
X442538Y479268D01*
X442565Y479278D01*
X442617Y479327D01*
X442675Y479370D01*
X442689Y479395D01*
X442710Y479414D01*
X442739Y479480D01*
X442775Y479542D01*
X442778Y479570D01*
X442790Y479596D01*
X442791Y479668D01*
X442800Y479739D01*
X442792Y479766D01*
X442793Y479795D01*
X442757Y479890D01*
X442746Y479930D01*
X442739Y479939D01*
X442735Y479951D01*
X433235Y496451D01*
X433183Y496510D01*
X433137Y496572D01*
X433118Y496583D01*
X433103Y496600D01*
X433033Y496634D01*
X432966Y496674D01*
X432942Y496678D01*
X432924Y496686D01*
X432879Y496688D01*
X432802Y496701D01*
X413802Y496701D01*
X413774Y496696D01*
X413746Y496698D01*
X413678Y496676D01*
X413607Y496662D01*
X413584Y496646D01*
X413557Y496637D01*
X413502Y496590D01*
X413443Y496549D01*
X413428Y496525D01*
X413407Y496507D01*
X413375Y496442D01*
X413336Y496382D01*
X413331Y496354D01*
X413319Y496328D01*
X413310Y496227D01*
X413303Y496185D01*
X413305Y496175D01*
X413304Y496162D01*
X413361Y495447D01*
X279043Y495447D01*
X279100Y496162D01*
X279096Y496191D01*
X279101Y496219D01*
X279084Y496288D01*
X279076Y496360D01*
X279062Y496384D01*
X279055Y496412D01*
X279012Y496470D01*
X278977Y496532D01*
X278954Y496549D01*
X278937Y496572D01*
X278875Y496609D01*
X278818Y496652D01*
X278790Y496659D01*
X278766Y496674D01*
X278666Y496690D01*
X278625Y496701D01*
X278615Y496699D01*
X278602Y496701D01*
X259602Y496701D01*
X259526Y496686D01*
X259448Y496677D01*
X259429Y496666D01*
X259407Y496662D01*
X259343Y496618D01*
X259275Y496579D01*
X259259Y496560D01*
X259243Y496549D01*
X259219Y496511D01*
X259169Y496451D01*
X249669Y479951D01*
X249660Y479924D01*
X249644Y479900D01*
X249629Y479830D01*
X249606Y479762D01*
X249609Y479734D01*
X249603Y479706D01*
X249617Y479636D01*
X249622Y479564D01*
X249635Y479539D01*
X249641Y479511D01*
X249681Y479451D01*
X249714Y479388D01*
X249736Y479370D01*
X249752Y479346D01*
X249835Y479288D01*
X249867Y479261D01*
X249878Y479258D01*
X249889Y479251D01*
X250516Y478954D01*
X183394Y362693D01*
X182786Y363113D01*
X182759Y363124D01*
X182737Y363143D01*
X182668Y363163D01*
X182603Y363191D01*
X182574Y363191D01*
X182546Y363199D01*
X182475Y363191D01*
X182404Y363192D01*
X182377Y363180D01*
X182348Y363177D01*
X182286Y363142D01*
X182221Y363114D01*
X182200Y363094D01*
X182175Y363079D01*
X182112Y363002D01*
X182082Y362972D01*
X182078Y362962D01*
X182069Y362951D01*
X172569Y346451D01*
X172545Y346378D01*
X172514Y346308D01*
X172514Y346284D01*
X172506Y346262D01*
X172513Y346186D01*
X172512Y346109D01*
X172521Y346085D01*
X172522Y346064D01*
X172543Y346025D01*
X172562Y345973D01*
X172563Y345967D01*
X172565Y345965D01*
X172569Y345953D01*
X182069Y329453D01*
X182088Y329431D01*
X182101Y329405D01*
X182154Y329357D01*
X182201Y329304D01*
X182227Y329291D01*
X182249Y329272D01*
X182316Y329249D01*
X182380Y329218D01*
X182409Y329217D01*
X182436Y329207D01*
X182508Y329212D01*
X182579Y329209D01*
X182606Y329219D01*
X182635Y329221D01*
X182725Y329263D01*
X182765Y329278D01*
X182773Y329285D01*
X182786Y329291D01*
X183394Y329711D01*
X250516Y213450D01*
X249889Y213153D01*
X249866Y213136D01*
X249839Y213126D01*
X249787Y213077D01*
X249729Y213034D01*
X249715Y213009D01*
X249694Y212990D01*
X249665Y212924D01*
X249629Y212862D01*
X249626Y212834D01*
X249614Y212808D01*
X249613Y212736D01*
X249604Y212665D01*
X249612Y212638D01*
X249612Y212609D01*
X249647Y212514D01*
X249658Y212474D01*
X249665Y212465D01*
X249669Y212453D01*
X259169Y195953D01*
X259221Y195895D01*
X259267Y195832D01*
X259286Y195821D01*
X259301Y195804D01*
X259371Y195770D01*
X259438Y195730D01*
X259463Y195726D01*
X259480Y195718D01*
X259525Y195716D01*
X259602Y195703D01*
X278602Y195703D01*
X278630Y195708D01*
G37*
%LPC*%
G36*
X361170Y336232D02*
X361170Y336232D01*
X358742Y337237D01*
X356884Y339095D01*
X355879Y341523D01*
X355879Y383877D01*
X356884Y386305D01*
X376642Y406062D01*
X376642Y406068D01*
X376645Y406071D01*
X376645Y440382D01*
X377538Y441275D01*
X407802Y441275D01*
X408695Y440382D01*
X408695Y419857D01*
X408705Y419845D01*
X408706Y419846D01*
X408707Y419845D01*
X432613Y419845D01*
X432625Y419855D01*
X432624Y419856D01*
X432625Y419857D01*
X432625Y421872D01*
X433518Y422765D01*
X442782Y422765D01*
X443675Y421872D01*
X443675Y417061D01*
X443678Y417056D01*
X443678Y417052D01*
X443749Y416981D01*
X444755Y414554D01*
X444755Y411926D01*
X443749Y409499D01*
X443678Y409428D01*
X443678Y409424D01*
X443676Y409422D01*
X443677Y409421D01*
X443675Y409419D01*
X443675Y404608D01*
X442782Y403715D01*
X433518Y403715D01*
X432625Y404608D01*
X432625Y406623D01*
X432615Y406635D01*
X432614Y406634D01*
X432613Y406635D01*
X408707Y406635D01*
X408695Y406625D01*
X408696Y406624D01*
X408695Y406623D01*
X408695Y385118D01*
X407802Y384225D01*
X377538Y384225D01*
X376645Y385118D01*
X376645Y387356D01*
X376643Y387359D01*
X376643Y387363D01*
X376639Y387364D01*
X376635Y387368D01*
X376631Y387364D01*
X376625Y387364D01*
X369092Y379831D01*
X369091Y379825D01*
X369088Y379823D01*
X369088Y341523D01*
X368083Y339095D01*
X366225Y337237D01*
X363797Y336232D01*
X361170Y336232D01*
G37*
%LPD*%
%LPC*%
G36*
X356438Y224735D02*
X356438Y224735D01*
X355545Y225628D01*
X355545Y251892D01*
X356438Y252785D01*
X382702Y252785D01*
X383595Y251892D01*
X383595Y245377D01*
X383605Y245365D01*
X383606Y245366D01*
X383607Y245365D01*
X401843Y245365D01*
X401847Y245368D01*
X401852Y245368D01*
X439022Y282539D01*
X439022Y282544D01*
X439026Y282547D01*
X439026Y291718D01*
X439022Y291722D01*
X439022Y291727D01*
X437694Y293054D01*
X436244Y296555D01*
X436244Y300345D01*
X437694Y303846D01*
X440374Y306526D01*
X443875Y307976D01*
X447665Y307976D01*
X451166Y306526D01*
X453846Y303846D01*
X455296Y300345D01*
X455296Y296555D01*
X453846Y293054D01*
X452239Y291447D01*
X452238Y291441D01*
X452235Y291439D01*
X452235Y278493D01*
X451230Y276065D01*
X408325Y233161D01*
X405898Y232155D01*
X383607Y232155D01*
X383595Y232145D01*
X383596Y232144D01*
X383595Y232143D01*
X383595Y225628D01*
X382702Y224735D01*
X356438Y224735D01*
G37*
%LPD*%
%LPC*%
G36*
X315980Y224735D02*
X315980Y224735D01*
X310826Y226870D01*
X306880Y230816D01*
X305487Y234180D01*
X305479Y234184D01*
X305476Y234187D01*
X301756Y234187D01*
X253061Y282882D01*
X253056Y282882D01*
X253055Y282883D01*
X253053Y282885D01*
X249368Y282885D01*
X248475Y283778D01*
X248475Y293042D01*
X249368Y293935D01*
X258632Y293935D01*
X259525Y293042D01*
X259525Y289357D01*
X259528Y289353D01*
X259528Y289349D01*
X305489Y243388D01*
X305491Y243388D01*
X305491Y243386D01*
X305496Y243388D01*
X305505Y243387D01*
X305505Y243391D01*
X305508Y243392D01*
X306880Y246704D01*
X310826Y250650D01*
X315980Y252785D01*
X321560Y252785D01*
X326714Y250650D01*
X330660Y246704D01*
X332795Y241550D01*
X332795Y235970D01*
X330660Y230816D01*
X326714Y226870D01*
X321560Y224735D01*
X315980Y224735D01*
G37*
%LPD*%
%LPC*%
G36*
X441824Y324484D02*
X441824Y324484D01*
X436244Y330064D01*
X436244Y334190D01*
X436241Y334195D01*
X436241Y334199D01*
X432551Y337889D01*
X431545Y340316D01*
X431545Y380554D01*
X432551Y382981D01*
X432622Y383052D01*
X432622Y383058D01*
X432625Y383061D01*
X432625Y387872D01*
X433518Y388765D01*
X442782Y388765D01*
X443675Y387872D01*
X443675Y383061D01*
X443678Y383056D01*
X443678Y383052D01*
X443749Y382981D01*
X444755Y380554D01*
X444755Y344371D01*
X444758Y344366D01*
X444758Y344362D01*
X445581Y343539D01*
X445587Y343539D01*
X445588Y343537D01*
X445590Y343536D01*
X449716Y343536D01*
X455296Y337956D01*
X455296Y330064D01*
X449716Y324484D01*
X441824Y324484D01*
G37*
%LPD*%
%LPC*%
G36*
X252686Y333365D02*
X252686Y333365D01*
X252495Y333444D01*
X252492Y333443D01*
X252491Y333445D01*
X247868Y333445D01*
X246975Y334338D01*
X246975Y345602D01*
X247392Y346018D01*
X247392Y346024D01*
X247395Y346026D01*
X247395Y348783D01*
X247392Y348787D01*
X247392Y348791D01*
X245041Y351142D01*
X245035Y351142D01*
X245033Y351145D01*
X229826Y351145D01*
X229635Y351224D01*
X229633Y351223D01*
X229631Y351225D01*
X225008Y351225D01*
X224115Y352118D01*
X224115Y363382D01*
X225008Y364275D01*
X229631Y364275D01*
X229633Y364277D01*
X229635Y364276D01*
X229826Y364355D01*
X246296Y364355D01*
X246298Y364356D01*
X246300Y364356D01*
X246301Y364356D01*
X246412Y364402D01*
X249040Y364402D01*
X251467Y363396D01*
X259599Y355265D01*
X260605Y352837D01*
X260605Y346026D01*
X260608Y346022D01*
X260608Y346018D01*
X261025Y345602D01*
X261025Y334338D01*
X260132Y333445D01*
X255509Y333445D01*
X255507Y333443D01*
X255505Y333444D01*
X255314Y333365D01*
X252686Y333365D01*
G37*
%LPD*%
%LPC*%
G36*
X252686Y296805D02*
X252686Y296805D01*
X250259Y297811D01*
X250188Y297882D01*
X250182Y297882D01*
X250179Y297885D01*
X249368Y297885D01*
X248475Y298778D01*
X248475Y299589D01*
X248472Y299594D01*
X248472Y299598D01*
X248401Y299669D01*
X247395Y302096D01*
X247395Y316914D01*
X247392Y316918D01*
X247392Y316922D01*
X246975Y317338D01*
X246975Y328602D01*
X247868Y329495D01*
X252491Y329495D01*
X252493Y329497D01*
X252495Y329496D01*
X252686Y329575D01*
X255314Y329575D01*
X255505Y329496D01*
X255508Y329497D01*
X255509Y329495D01*
X260132Y329495D01*
X261025Y328602D01*
X261025Y317338D01*
X260608Y316922D01*
X260608Y316918D01*
X260608Y316916D01*
X260605Y316914D01*
X260605Y302096D01*
X259599Y299669D01*
X259528Y299598D01*
X259528Y299592D01*
X259525Y299589D01*
X259525Y298778D01*
X258632Y297885D01*
X257821Y297885D01*
X257816Y297882D01*
X257812Y297882D01*
X257741Y297811D01*
X255314Y296805D01*
X252686Y296805D01*
G37*
%LPD*%
D10*
X428802Y489302D03*
X511402Y346202D03*
X428802Y203102D03*
X263602Y203102D03*
X181002Y346202D03*
X263602Y489302D03*
D11*
X369570Y238760D03*
D12*
X318770Y238760D03*
D13*
X445770Y334010D03*
D14*
X445770Y298450D03*
D15*
X438150Y379240D03*
X438150Y413240D03*
D16*
X392670Y412750D03*
X295670Y412750D03*
D17*
X254000Y303410D03*
X254000Y288410D03*
D18*
X254000Y322970D03*
X254000Y339970D03*
X231140Y357750D03*
X231140Y340750D03*
D19*
X438150Y341630D02*
X445770Y334010D01*
X438150Y341630D02*
X438150Y379240D01*
D20*
X438150Y364439D01*
X437985Y364274D01*
D21*
X437985Y364274D03*
D22*
X303650Y238760D02*
X254000Y288410D01*
X303650Y238760D02*
X318770Y238760D01*
D20*
X263602Y203102D02*
X231140Y259329D01*
X231140Y340750D01*
X225688Y346202D01*
X181002Y346202D01*
X263602Y428802D01*
X263602Y489302D01*
X428802Y489302D01*
X428802Y203102D02*
X263602Y203102D01*
X428802Y203102D02*
X511402Y346202D01*
D21*
X263309Y412928D03*
D20*
X263487Y412750D01*
D19*
X295670Y412750D01*
X369570Y238760D02*
X404584Y238760D01*
X445630Y279806D01*
X445630Y298310D01*
D20*
X445770Y298450D01*
D19*
X438150Y413240D02*
X393160Y413240D01*
D20*
X392670Y412750D01*
D19*
X362483Y382563D01*
X362483Y342837D01*
D21*
X362483Y342837D03*
D19*
X254000Y322970D02*
X254000Y303410D01*
X254000Y339970D02*
X254000Y351523D01*
X247726Y357797D01*
D20*
X247679Y357750D01*
D19*
X231140Y357750D01*
M02*
