G04 EAGLE Gerber RS-274X export*
G75*
%MOMM*%
%FSLAX34Y34*%
%LPD*%
%INSilkscreen Top*%
%IPPOS*%
%AMOC8*
5,1,8,0,0,1.08239X$1,22.5*%
G01*
%ADD10C,0.101600*%
%ADD11R,0.014731X0.014731*%
%ADD12R,0.147319X0.014731*%
%ADD13R,0.265175X0.014731*%
%ADD14R,0.383031X0.014731*%
%ADD15R,0.515619X0.014731*%
%ADD16R,0.633475X0.014731*%
%ADD17R,0.751331X0.014731*%
%ADD18R,0.883919X0.014731*%
%ADD19R,1.001775X0.014731*%
%ADD20R,1.119631X0.014731*%
%ADD21R,1.134363X0.014731*%
%ADD22R,1.149094X0.014731*%
%ADD23R,1.163825X0.014731*%
%ADD24R,1.178556X0.014731*%
%ADD25R,1.193288X0.014731*%
%ADD26R,1.222756X0.014731*%
%ADD27R,1.237488X0.014731*%
%ADD28R,1.266950X0.014731*%
%ADD29R,1.281681X0.014731*%
%ADD30R,1.311144X0.014731*%
%ADD31R,1.325881X0.014731*%
%ADD32R,1.355344X0.014731*%
%ADD33R,1.370075X0.014731*%
%ADD34R,1.384806X0.014731*%
%ADD35R,1.399538X0.014731*%
%ADD36R,1.414275X0.014731*%
%ADD37R,1.443738X0.014731*%
%ADD38R,1.458469X0.014731*%
%ADD39R,1.487931X0.014731*%
%ADD40R,1.502663X0.014731*%
%ADD41R,1.517394X0.014731*%
%ADD42R,1.532125X0.014731*%
%ADD43R,1.546856X0.014731*%
%ADD44R,1.576319X0.014731*%
%ADD45R,1.605788X0.014731*%
%ADD46R,1.620519X0.014731*%
%ADD47R,1.649981X0.014731*%
%ADD48R,1.664713X0.014731*%
%ADD49R,1.694175X0.014731*%
%ADD50R,1.708913X0.014731*%
%ADD51R,1.738375X0.014731*%
%ADD52R,1.753106X0.014731*%
%ADD53R,1.767838X0.014731*%
%ADD54R,1.782569X0.014731*%
%ADD55R,1.797306X0.014731*%
%ADD56R,0.117856X0.014731*%
%ADD57R,1.826769X0.014731*%
%ADD58R,0.235713X0.014731*%
%ADD59R,0.353569X0.014731*%
%ADD60R,1.856231X0.014731*%
%ADD61R,0.486156X0.014731*%
%ADD62R,1.870963X0.014731*%
%ADD63R,0.604013X0.014731*%
%ADD64R,0.721869X0.014731*%
%ADD65R,1.885694X0.014731*%
%ADD66R,0.839719X0.014731*%
%ADD67R,0.972306X0.014731*%
%ADD68R,1.090169X0.014731*%
%ADD69R,1.208025X0.014731*%
%ADD70R,1.252219X0.014731*%
%ADD71R,1.296412X0.014731*%
%ADD72R,1.340612X0.014731*%
%ADD73R,1.826763X0.014731*%
%ADD74R,1.414269X0.014731*%
%ADD75R,1.812031X0.014731*%
%ADD76R,1.429000X0.014731*%
%ADD77R,1.458462X0.014731*%
%ADD78R,1.473200X0.014731*%
%ADD79R,1.723644X0.014731*%
%ADD80R,1.694181X0.014731*%
%ADD81R,1.679450X0.014731*%
%ADD82R,1.561594X0.014731*%
%ADD83R,1.576325X0.014731*%
%ADD84R,1.591056X0.014731*%
%ADD85R,1.635250X0.014731*%
%ADD86R,1.561588X0.014731*%
%ADD87R,1.443731X0.014731*%
%ADD88R,1.797300X0.014731*%
%ADD89R,1.841500X0.014731*%
%ADD90R,1.311150X0.014731*%
%ADD91R,1.296419X0.014731*%
%ADD92R,1.193294X0.014731*%
%ADD93R,0.957575X0.014731*%
%ADD94R,0.589281X0.014731*%
%ADD95R,0.471425X0.014731*%
%ADD96R,0.220975X0.014731*%
%ADD97R,1.812038X0.014731*%
%ADD98R,0.103119X0.014731*%
%ADD99R,0.029463X0.014731*%
%ADD100R,0.162050X0.014731*%
%ADD101R,0.397763X0.014731*%
%ADD102R,0.648206X0.014731*%
%ADD103R,1.679444X0.014731*%
%ADD104R,1.016506X0.014731*%
%ADD105R,1.104900X0.014731*%
%ADD106R,1.222750X0.014731*%
%ADD107R,1.429006X0.014731*%
%ADD108R,1.208019X0.014731*%
%ADD109R,0.987044X0.014731*%
%ADD110R,0.854456X0.014731*%
%ADD111R,0.618744X0.014731*%
%ADD112R,0.500888X0.014731*%
%ADD113R,0.368300X0.014731*%
%ADD114R,0.132587X0.014731*%
%ADD115R,1.664719X0.014731*%
%ADD116R,1.075438X0.014731*%
%ADD117R,0.942844X0.014731*%
%ADD118R,0.707131X0.014731*%
%ADD119R,0.456694X0.014731*%
%ADD120R,0.088388X0.014731*%
%ADD121C,0.152400*%
%ADD122C,0.254000*%
%ADD123R,12.300000X1.000000*%
%ADD124C,0.076200*%
%ADD125C,0.203200*%
%ADD126C,0.127000*%


D10*
X429698Y469767D02*
X431320Y466956D01*
X431378Y466859D01*
X431440Y466764D01*
X431505Y466671D01*
X431573Y466581D01*
X431644Y466493D01*
X431719Y466407D01*
X431796Y466324D01*
X431876Y466244D01*
X431959Y466167D01*
X432045Y466092D01*
X432133Y466021D01*
X432223Y465953D01*
X432316Y465888D01*
X432411Y465826D01*
X432508Y465768D01*
X432607Y465713D01*
X432708Y465662D01*
X432811Y465614D01*
X432915Y465569D01*
X433021Y465529D01*
X433128Y465492D01*
X433236Y465459D01*
X433346Y465429D01*
X433456Y465404D01*
X433567Y465382D01*
X433679Y465365D01*
X433792Y465351D01*
X433905Y465341D01*
X434018Y465335D01*
X434131Y465333D01*
X434244Y465335D01*
X434357Y465341D01*
X434470Y465351D01*
X434583Y465365D01*
X434695Y465382D01*
X434806Y465404D01*
X434916Y465429D01*
X435026Y465459D01*
X435134Y465492D01*
X435241Y465529D01*
X435347Y465569D01*
X435451Y465614D01*
X435554Y465662D01*
X435655Y465713D01*
X435754Y465768D01*
X435851Y465826D01*
X435946Y465888D01*
X436039Y465953D01*
X436129Y466021D01*
X436217Y466092D01*
X436303Y466167D01*
X436386Y466244D01*
X436466Y466324D01*
X436543Y466407D01*
X436618Y466493D01*
X436689Y466581D01*
X436757Y466671D01*
X436822Y466764D01*
X436884Y466859D01*
X436942Y466956D01*
X436997Y467055D01*
X437048Y467156D01*
X437096Y467259D01*
X437141Y467363D01*
X437181Y467469D01*
X437218Y467576D01*
X437251Y467684D01*
X437281Y467794D01*
X437306Y467904D01*
X437328Y468015D01*
X437345Y468127D01*
X437359Y468240D01*
X437369Y468353D01*
X437375Y468466D01*
X437377Y468579D01*
X437375Y468692D01*
X437369Y468805D01*
X437359Y468918D01*
X437345Y469031D01*
X437328Y469143D01*
X437306Y469254D01*
X437281Y469364D01*
X437251Y469474D01*
X437218Y469582D01*
X437181Y469689D01*
X437141Y469795D01*
X437096Y469899D01*
X437048Y470002D01*
X436997Y470103D01*
X436942Y470202D01*
X441763Y472236D02*
X439816Y475609D01*
X441764Y472237D02*
X441813Y472148D01*
X441858Y472058D01*
X441900Y471967D01*
X441938Y471873D01*
X441972Y471779D01*
X442003Y471683D01*
X442030Y471586D01*
X442053Y471488D01*
X442073Y471389D01*
X442088Y471289D01*
X442100Y471189D01*
X442108Y471089D01*
X442112Y470988D01*
X442112Y470888D01*
X442108Y470787D01*
X442100Y470687D01*
X442088Y470587D01*
X442073Y470487D01*
X442053Y470388D01*
X442030Y470290D01*
X442003Y470193D01*
X441972Y470097D01*
X441938Y470003D01*
X441900Y469909D01*
X441858Y469818D01*
X441813Y469728D01*
X441764Y469640D01*
X441712Y469553D01*
X441657Y469469D01*
X441598Y469387D01*
X441536Y469308D01*
X441472Y469230D01*
X441404Y469156D01*
X441333Y469084D01*
X441260Y469015D01*
X441184Y468949D01*
X441106Y468885D01*
X441025Y468825D01*
X440942Y468768D01*
X440857Y468715D01*
X440770Y468664D01*
X440681Y468617D01*
X440590Y468574D01*
X440497Y468534D01*
X440403Y468498D01*
X440308Y468465D01*
X440211Y468436D01*
X440114Y468411D01*
X440015Y468390D01*
X439916Y468372D01*
X439816Y468359D01*
X439716Y468349D01*
X439616Y468343D01*
X439515Y468341D01*
X439414Y468343D01*
X439314Y468349D01*
X439214Y468359D01*
X439114Y468372D01*
X439015Y468390D01*
X438916Y468411D01*
X438819Y468436D01*
X438722Y468465D01*
X438627Y468498D01*
X438533Y468534D01*
X438440Y468574D01*
X438349Y468617D01*
X438260Y468664D01*
X438173Y468715D01*
X438088Y468768D01*
X438005Y468825D01*
X437924Y468885D01*
X437846Y468949D01*
X437770Y469015D01*
X437697Y469084D01*
X437626Y469156D01*
X437558Y469230D01*
X437494Y469308D01*
X437432Y469387D01*
X437373Y469469D01*
X437318Y469553D01*
X437266Y469640D01*
X435968Y471888D01*
X445207Y466273D02*
X437035Y457058D01*
X449101Y459527D01*
X441127Y449970D02*
X442750Y447159D01*
X442808Y447062D01*
X442870Y446967D01*
X442935Y446874D01*
X443003Y446784D01*
X443074Y446696D01*
X443149Y446610D01*
X443226Y446527D01*
X443306Y446447D01*
X443389Y446370D01*
X443475Y446295D01*
X443563Y446224D01*
X443653Y446156D01*
X443746Y446091D01*
X443841Y446029D01*
X443938Y445971D01*
X444037Y445916D01*
X444138Y445865D01*
X444241Y445817D01*
X444345Y445772D01*
X444451Y445732D01*
X444558Y445695D01*
X444666Y445662D01*
X444776Y445632D01*
X444886Y445607D01*
X444997Y445585D01*
X445109Y445568D01*
X445222Y445554D01*
X445335Y445544D01*
X445448Y445538D01*
X445561Y445536D01*
X445674Y445538D01*
X445787Y445544D01*
X445900Y445554D01*
X446013Y445568D01*
X446125Y445585D01*
X446236Y445607D01*
X446346Y445632D01*
X446456Y445662D01*
X446564Y445695D01*
X446671Y445732D01*
X446777Y445772D01*
X446881Y445817D01*
X446984Y445865D01*
X447085Y445916D01*
X447184Y445971D01*
X447281Y446029D01*
X447376Y446091D01*
X447469Y446156D01*
X447559Y446224D01*
X447647Y446295D01*
X447733Y446370D01*
X447816Y446447D01*
X447896Y446527D01*
X447973Y446610D01*
X448048Y446696D01*
X448119Y446784D01*
X448187Y446874D01*
X448252Y446967D01*
X448314Y447062D01*
X448372Y447159D01*
X448427Y447258D01*
X448478Y447359D01*
X448526Y447462D01*
X448571Y447566D01*
X448611Y447672D01*
X448648Y447779D01*
X448681Y447887D01*
X448711Y447997D01*
X448736Y448107D01*
X448758Y448218D01*
X448775Y448330D01*
X448789Y448443D01*
X448799Y448556D01*
X448805Y448669D01*
X448807Y448782D01*
X448805Y448895D01*
X448799Y449008D01*
X448789Y449121D01*
X448775Y449234D01*
X448758Y449346D01*
X448736Y449457D01*
X448711Y449567D01*
X448681Y449677D01*
X448648Y449785D01*
X448611Y449892D01*
X448571Y449998D01*
X448526Y450102D01*
X448478Y450205D01*
X448427Y450306D01*
X448372Y450405D01*
X453193Y452439D02*
X451246Y455812D01*
X453194Y452440D02*
X453243Y452351D01*
X453288Y452261D01*
X453330Y452170D01*
X453368Y452076D01*
X453402Y451982D01*
X453433Y451886D01*
X453460Y451789D01*
X453483Y451691D01*
X453503Y451592D01*
X453518Y451492D01*
X453530Y451392D01*
X453538Y451292D01*
X453542Y451191D01*
X453542Y451091D01*
X453538Y450990D01*
X453530Y450890D01*
X453518Y450790D01*
X453503Y450690D01*
X453483Y450591D01*
X453460Y450493D01*
X453433Y450396D01*
X453402Y450300D01*
X453368Y450206D01*
X453330Y450112D01*
X453288Y450021D01*
X453243Y449931D01*
X453194Y449843D01*
X453142Y449756D01*
X453087Y449672D01*
X453028Y449590D01*
X452966Y449511D01*
X452902Y449433D01*
X452834Y449359D01*
X452763Y449287D01*
X452690Y449218D01*
X452614Y449152D01*
X452536Y449088D01*
X452455Y449028D01*
X452372Y448971D01*
X452287Y448918D01*
X452200Y448867D01*
X452111Y448820D01*
X452020Y448777D01*
X451927Y448737D01*
X451833Y448701D01*
X451738Y448668D01*
X451641Y448639D01*
X451544Y448614D01*
X451445Y448593D01*
X451346Y448575D01*
X451246Y448562D01*
X451146Y448552D01*
X451046Y448546D01*
X450945Y448544D01*
X450844Y448546D01*
X450744Y448552D01*
X450644Y448562D01*
X450544Y448575D01*
X450445Y448593D01*
X450346Y448614D01*
X450249Y448639D01*
X450152Y448668D01*
X450057Y448701D01*
X449963Y448737D01*
X449870Y448777D01*
X449779Y448820D01*
X449690Y448867D01*
X449603Y448918D01*
X449518Y448971D01*
X449435Y449028D01*
X449354Y449088D01*
X449276Y449152D01*
X449200Y449218D01*
X449127Y449287D01*
X449056Y449359D01*
X448988Y449433D01*
X448924Y449511D01*
X448862Y449590D01*
X448803Y449672D01*
X448748Y449756D01*
X448696Y449843D01*
X448696Y449842D02*
X447398Y452091D01*
X445471Y439850D02*
X460435Y442493D01*
X459284Y436696D02*
X463156Y435183D01*
X453037Y429341D01*
X451414Y432152D02*
X454660Y426531D01*
X456805Y422816D02*
X468871Y425285D01*
X460699Y416070D01*
X462742Y418374D02*
X459821Y423433D01*
X497242Y318443D02*
X497242Y315198D01*
X497242Y318443D02*
X497240Y318556D01*
X497234Y318669D01*
X497224Y318782D01*
X497210Y318895D01*
X497193Y319007D01*
X497171Y319118D01*
X497146Y319228D01*
X497116Y319338D01*
X497083Y319446D01*
X497046Y319553D01*
X497006Y319659D01*
X496961Y319763D01*
X496913Y319866D01*
X496862Y319967D01*
X496807Y320066D01*
X496749Y320163D01*
X496687Y320258D01*
X496622Y320351D01*
X496554Y320441D01*
X496483Y320529D01*
X496408Y320615D01*
X496331Y320698D01*
X496251Y320778D01*
X496168Y320855D01*
X496082Y320930D01*
X495994Y321001D01*
X495904Y321069D01*
X495811Y321134D01*
X495716Y321196D01*
X495619Y321254D01*
X495520Y321309D01*
X495419Y321360D01*
X495316Y321408D01*
X495212Y321453D01*
X495106Y321493D01*
X494999Y321530D01*
X494891Y321563D01*
X494781Y321593D01*
X494671Y321618D01*
X494560Y321640D01*
X494448Y321657D01*
X494335Y321671D01*
X494222Y321681D01*
X494109Y321687D01*
X493996Y321689D01*
X493883Y321687D01*
X493770Y321681D01*
X493657Y321671D01*
X493544Y321657D01*
X493432Y321640D01*
X493321Y321618D01*
X493211Y321593D01*
X493101Y321563D01*
X492993Y321530D01*
X492886Y321493D01*
X492780Y321453D01*
X492676Y321408D01*
X492573Y321360D01*
X492472Y321309D01*
X492373Y321254D01*
X492276Y321196D01*
X492181Y321134D01*
X492088Y321069D01*
X491998Y321001D01*
X491910Y320930D01*
X491824Y320855D01*
X491741Y320778D01*
X491661Y320698D01*
X491584Y320615D01*
X491509Y320529D01*
X491438Y320441D01*
X491370Y320351D01*
X491305Y320258D01*
X491243Y320163D01*
X491185Y320066D01*
X491130Y319967D01*
X491079Y319866D01*
X491031Y319763D01*
X490986Y319659D01*
X490946Y319553D01*
X490909Y319446D01*
X490876Y319338D01*
X490846Y319228D01*
X490821Y319118D01*
X490799Y319007D01*
X490782Y318895D01*
X490768Y318782D01*
X490758Y318669D01*
X490752Y318556D01*
X490750Y318443D01*
X485558Y319093D02*
X485558Y315198D01*
X485558Y319093D02*
X485560Y319194D01*
X485566Y319294D01*
X485576Y319394D01*
X485589Y319494D01*
X485607Y319593D01*
X485628Y319692D01*
X485653Y319789D01*
X485682Y319886D01*
X485715Y319981D01*
X485751Y320075D01*
X485791Y320167D01*
X485834Y320258D01*
X485881Y320347D01*
X485931Y320434D01*
X485985Y320520D01*
X486042Y320603D01*
X486102Y320683D01*
X486165Y320762D01*
X486232Y320838D01*
X486301Y320911D01*
X486373Y320981D01*
X486447Y321049D01*
X486524Y321114D01*
X486604Y321175D01*
X486686Y321234D01*
X486770Y321289D01*
X486856Y321341D01*
X486944Y321390D01*
X487034Y321435D01*
X487126Y321477D01*
X487219Y321515D01*
X487314Y321549D01*
X487409Y321580D01*
X487506Y321607D01*
X487604Y321630D01*
X487703Y321650D01*
X487803Y321665D01*
X487903Y321677D01*
X488003Y321685D01*
X488104Y321689D01*
X488204Y321689D01*
X488305Y321685D01*
X488405Y321677D01*
X488505Y321665D01*
X488605Y321650D01*
X488704Y321630D01*
X488802Y321607D01*
X488899Y321580D01*
X488994Y321549D01*
X489089Y321515D01*
X489182Y321477D01*
X489274Y321435D01*
X489364Y321390D01*
X489452Y321341D01*
X489538Y321289D01*
X489622Y321234D01*
X489704Y321175D01*
X489784Y321114D01*
X489861Y321049D01*
X489935Y320981D01*
X490007Y320911D01*
X490076Y320838D01*
X490143Y320762D01*
X490206Y320683D01*
X490266Y320603D01*
X490323Y320520D01*
X490377Y320434D01*
X490427Y320347D01*
X490474Y320258D01*
X490517Y320167D01*
X490557Y320075D01*
X490593Y319981D01*
X490626Y319886D01*
X490655Y319789D01*
X490680Y319692D01*
X490701Y319593D01*
X490719Y319494D01*
X490732Y319394D01*
X490742Y319294D01*
X490748Y319194D01*
X490750Y319093D01*
X490751Y319093D02*
X490751Y316496D01*
X485558Y325979D02*
X497242Y329873D01*
X485558Y333768D01*
X497242Y338058D02*
X497242Y341303D01*
X497240Y341416D01*
X497234Y341529D01*
X497224Y341642D01*
X497210Y341755D01*
X497193Y341867D01*
X497171Y341978D01*
X497146Y342088D01*
X497116Y342198D01*
X497083Y342306D01*
X497046Y342413D01*
X497006Y342519D01*
X496961Y342623D01*
X496913Y342726D01*
X496862Y342827D01*
X496807Y342926D01*
X496749Y343023D01*
X496687Y343118D01*
X496622Y343211D01*
X496554Y343301D01*
X496483Y343389D01*
X496408Y343475D01*
X496331Y343558D01*
X496251Y343638D01*
X496168Y343715D01*
X496082Y343790D01*
X495994Y343861D01*
X495904Y343929D01*
X495811Y343994D01*
X495716Y344056D01*
X495619Y344114D01*
X495520Y344169D01*
X495419Y344220D01*
X495316Y344268D01*
X495212Y344313D01*
X495106Y344353D01*
X494999Y344390D01*
X494891Y344423D01*
X494781Y344453D01*
X494671Y344478D01*
X494560Y344500D01*
X494448Y344517D01*
X494335Y344531D01*
X494222Y344541D01*
X494109Y344547D01*
X493996Y344549D01*
X493883Y344547D01*
X493770Y344541D01*
X493657Y344531D01*
X493544Y344517D01*
X493432Y344500D01*
X493321Y344478D01*
X493211Y344453D01*
X493101Y344423D01*
X492993Y344390D01*
X492886Y344353D01*
X492780Y344313D01*
X492676Y344268D01*
X492573Y344220D01*
X492472Y344169D01*
X492373Y344114D01*
X492276Y344056D01*
X492181Y343994D01*
X492088Y343929D01*
X491998Y343861D01*
X491910Y343790D01*
X491824Y343715D01*
X491741Y343638D01*
X491661Y343558D01*
X491584Y343475D01*
X491509Y343389D01*
X491438Y343301D01*
X491370Y343211D01*
X491305Y343118D01*
X491243Y343023D01*
X491185Y342926D01*
X491130Y342827D01*
X491079Y342726D01*
X491031Y342623D01*
X490986Y342519D01*
X490946Y342413D01*
X490909Y342306D01*
X490876Y342198D01*
X490846Y342088D01*
X490821Y341978D01*
X490799Y341867D01*
X490782Y341755D01*
X490768Y341642D01*
X490758Y341529D01*
X490752Y341416D01*
X490750Y341303D01*
X485558Y341953D02*
X485558Y338058D01*
X485558Y341953D02*
X485560Y342054D01*
X485566Y342154D01*
X485576Y342254D01*
X485589Y342354D01*
X485607Y342453D01*
X485628Y342552D01*
X485653Y342649D01*
X485682Y342746D01*
X485715Y342841D01*
X485751Y342935D01*
X485791Y343027D01*
X485834Y343118D01*
X485881Y343207D01*
X485931Y343294D01*
X485985Y343380D01*
X486042Y343463D01*
X486102Y343543D01*
X486165Y343622D01*
X486232Y343698D01*
X486301Y343771D01*
X486373Y343841D01*
X486447Y343909D01*
X486524Y343974D01*
X486604Y344035D01*
X486686Y344094D01*
X486770Y344149D01*
X486856Y344201D01*
X486944Y344250D01*
X487034Y344295D01*
X487126Y344337D01*
X487219Y344375D01*
X487314Y344409D01*
X487409Y344440D01*
X487506Y344467D01*
X487604Y344490D01*
X487703Y344510D01*
X487803Y344525D01*
X487903Y344537D01*
X488003Y344545D01*
X488104Y344549D01*
X488204Y344549D01*
X488305Y344545D01*
X488405Y344537D01*
X488505Y344525D01*
X488605Y344510D01*
X488704Y344490D01*
X488802Y344467D01*
X488899Y344440D01*
X488994Y344409D01*
X489089Y344375D01*
X489182Y344337D01*
X489274Y344295D01*
X489364Y344250D01*
X489452Y344201D01*
X489538Y344149D01*
X489622Y344094D01*
X489704Y344035D01*
X489784Y343974D01*
X489861Y343909D01*
X489935Y343841D01*
X490007Y343771D01*
X490076Y343698D01*
X490143Y343622D01*
X490206Y343543D01*
X490266Y343463D01*
X490323Y343380D01*
X490377Y343294D01*
X490427Y343207D01*
X490474Y343118D01*
X490517Y343027D01*
X490557Y342935D01*
X490593Y342841D01*
X490626Y342746D01*
X490655Y342649D01*
X490680Y342552D01*
X490701Y342453D01*
X490719Y342354D01*
X490732Y342254D01*
X490742Y342154D01*
X490748Y342054D01*
X490750Y341953D01*
X490751Y341953D02*
X490751Y339356D01*
X498540Y348994D02*
X484260Y354187D01*
X488154Y358632D02*
X485558Y361877D01*
X497242Y361877D01*
X497242Y358632D02*
X497242Y365123D01*
X497242Y369413D02*
X485558Y373307D01*
X497242Y377202D01*
X494321Y376228D02*
X494321Y370386D01*
X441693Y219284D02*
X440070Y216473D01*
X441693Y219284D02*
X441748Y219383D01*
X441799Y219484D01*
X441847Y219587D01*
X441892Y219691D01*
X441932Y219797D01*
X441969Y219904D01*
X442002Y220012D01*
X442032Y220122D01*
X442057Y220232D01*
X442079Y220343D01*
X442096Y220455D01*
X442110Y220568D01*
X442120Y220681D01*
X442126Y220794D01*
X442128Y220907D01*
X442126Y221020D01*
X442120Y221133D01*
X442110Y221246D01*
X442096Y221359D01*
X442079Y221471D01*
X442057Y221582D01*
X442032Y221692D01*
X442002Y221802D01*
X441969Y221910D01*
X441932Y222017D01*
X441892Y222123D01*
X441847Y222227D01*
X441799Y222330D01*
X441748Y222431D01*
X441693Y222530D01*
X441635Y222627D01*
X441573Y222722D01*
X441508Y222815D01*
X441440Y222905D01*
X441369Y222993D01*
X441294Y223079D01*
X441217Y223162D01*
X441137Y223242D01*
X441054Y223319D01*
X440968Y223394D01*
X440880Y223465D01*
X440790Y223533D01*
X440697Y223598D01*
X440602Y223660D01*
X440505Y223718D01*
X440406Y223773D01*
X440305Y223824D01*
X440202Y223872D01*
X440098Y223917D01*
X439992Y223957D01*
X439885Y223994D01*
X439777Y224027D01*
X439667Y224057D01*
X439557Y224082D01*
X439446Y224104D01*
X439334Y224121D01*
X439221Y224135D01*
X439108Y224145D01*
X438995Y224151D01*
X438882Y224153D01*
X438769Y224151D01*
X438656Y224145D01*
X438543Y224135D01*
X438430Y224121D01*
X438318Y224104D01*
X438207Y224082D01*
X438097Y224057D01*
X437987Y224027D01*
X437879Y223994D01*
X437772Y223957D01*
X437666Y223917D01*
X437562Y223872D01*
X437459Y223824D01*
X437358Y223773D01*
X437259Y223718D01*
X437162Y223660D01*
X437067Y223598D01*
X436974Y223533D01*
X436884Y223465D01*
X436796Y223394D01*
X436710Y223319D01*
X436627Y223242D01*
X436547Y223162D01*
X436470Y223079D01*
X436395Y222993D01*
X436324Y222905D01*
X436256Y222815D01*
X436191Y222722D01*
X436129Y222627D01*
X436071Y222530D01*
X431899Y225688D02*
X429952Y222315D01*
X431899Y225688D02*
X431951Y225774D01*
X432006Y225858D01*
X432065Y225940D01*
X432126Y226020D01*
X432191Y226097D01*
X432259Y226171D01*
X432329Y226243D01*
X432402Y226312D01*
X432478Y226379D01*
X432557Y226442D01*
X432637Y226502D01*
X432720Y226559D01*
X432806Y226613D01*
X432893Y226663D01*
X432982Y226710D01*
X433073Y226753D01*
X433165Y226793D01*
X433259Y226829D01*
X433354Y226862D01*
X433451Y226891D01*
X433548Y226916D01*
X433647Y226937D01*
X433746Y226955D01*
X433846Y226968D01*
X433946Y226978D01*
X434046Y226984D01*
X434147Y226986D01*
X434248Y226984D01*
X434348Y226978D01*
X434448Y226968D01*
X434548Y226955D01*
X434647Y226937D01*
X434746Y226916D01*
X434843Y226891D01*
X434940Y226862D01*
X435035Y226829D01*
X435129Y226793D01*
X435221Y226753D01*
X435312Y226710D01*
X435401Y226663D01*
X435488Y226613D01*
X435574Y226559D01*
X435657Y226502D01*
X435737Y226442D01*
X435816Y226379D01*
X435892Y226312D01*
X435965Y226243D01*
X436035Y226171D01*
X436103Y226097D01*
X436168Y226020D01*
X436229Y225940D01*
X436288Y225858D01*
X436343Y225774D01*
X436395Y225688D01*
X436444Y225600D01*
X436489Y225510D01*
X436531Y225418D01*
X436569Y225325D01*
X436603Y225230D01*
X436634Y225135D01*
X436661Y225038D01*
X436684Y224940D01*
X436704Y224841D01*
X436719Y224741D01*
X436731Y224641D01*
X436739Y224541D01*
X436743Y224440D01*
X436743Y224340D01*
X436739Y224239D01*
X436731Y224139D01*
X436719Y224039D01*
X436704Y223939D01*
X436684Y223840D01*
X436661Y223742D01*
X436634Y223645D01*
X436603Y223550D01*
X436569Y223455D01*
X436531Y223362D01*
X436489Y223270D01*
X436444Y223180D01*
X436395Y223092D01*
X436396Y223092D02*
X435098Y220843D01*
X435342Y231652D02*
X447408Y229183D01*
X439237Y238397D01*
X451500Y236271D02*
X453123Y239081D01*
X453178Y239180D01*
X453229Y239281D01*
X453277Y239384D01*
X453322Y239488D01*
X453362Y239594D01*
X453399Y239701D01*
X453432Y239809D01*
X453462Y239919D01*
X453487Y240029D01*
X453509Y240140D01*
X453526Y240252D01*
X453540Y240365D01*
X453550Y240478D01*
X453556Y240591D01*
X453558Y240704D01*
X453556Y240817D01*
X453550Y240930D01*
X453540Y241043D01*
X453526Y241156D01*
X453509Y241268D01*
X453487Y241379D01*
X453462Y241489D01*
X453432Y241599D01*
X453399Y241707D01*
X453362Y241814D01*
X453322Y241920D01*
X453277Y242024D01*
X453229Y242127D01*
X453178Y242228D01*
X453123Y242327D01*
X453065Y242424D01*
X453003Y242519D01*
X452938Y242612D01*
X452870Y242702D01*
X452799Y242790D01*
X452724Y242876D01*
X452647Y242959D01*
X452567Y243039D01*
X452484Y243116D01*
X452398Y243191D01*
X452310Y243262D01*
X452220Y243330D01*
X452127Y243395D01*
X452032Y243457D01*
X451935Y243515D01*
X451836Y243570D01*
X451735Y243621D01*
X451632Y243669D01*
X451528Y243714D01*
X451422Y243754D01*
X451315Y243791D01*
X451207Y243824D01*
X451097Y243854D01*
X450987Y243879D01*
X450876Y243901D01*
X450764Y243918D01*
X450651Y243932D01*
X450538Y243942D01*
X450425Y243948D01*
X450312Y243950D01*
X450199Y243948D01*
X450086Y243942D01*
X449973Y243932D01*
X449860Y243918D01*
X449748Y243901D01*
X449637Y243879D01*
X449527Y243854D01*
X449417Y243824D01*
X449309Y243791D01*
X449202Y243754D01*
X449096Y243714D01*
X448992Y243669D01*
X448889Y243621D01*
X448788Y243570D01*
X448689Y243515D01*
X448592Y243457D01*
X448497Y243395D01*
X448404Y243330D01*
X448314Y243262D01*
X448226Y243191D01*
X448140Y243116D01*
X448057Y243039D01*
X447977Y242959D01*
X447900Y242876D01*
X447825Y242790D01*
X447754Y242702D01*
X447686Y242612D01*
X447621Y242519D01*
X447559Y242424D01*
X447501Y242327D01*
X443329Y245485D02*
X441381Y242113D01*
X443329Y245485D02*
X443381Y245571D01*
X443436Y245655D01*
X443495Y245737D01*
X443556Y245817D01*
X443621Y245894D01*
X443689Y245968D01*
X443759Y246040D01*
X443832Y246109D01*
X443908Y246176D01*
X443987Y246239D01*
X444067Y246299D01*
X444150Y246356D01*
X444236Y246410D01*
X444323Y246460D01*
X444412Y246507D01*
X444503Y246550D01*
X444595Y246590D01*
X444689Y246626D01*
X444784Y246659D01*
X444881Y246688D01*
X444978Y246713D01*
X445077Y246734D01*
X445176Y246752D01*
X445276Y246765D01*
X445376Y246775D01*
X445476Y246781D01*
X445577Y246783D01*
X445678Y246781D01*
X445778Y246775D01*
X445878Y246765D01*
X445978Y246752D01*
X446077Y246734D01*
X446176Y246713D01*
X446273Y246688D01*
X446370Y246659D01*
X446465Y246626D01*
X446559Y246590D01*
X446651Y246550D01*
X446742Y246507D01*
X446831Y246460D01*
X446918Y246410D01*
X447004Y246356D01*
X447087Y246299D01*
X447167Y246239D01*
X447246Y246176D01*
X447322Y246109D01*
X447395Y246040D01*
X447465Y245968D01*
X447533Y245894D01*
X447598Y245817D01*
X447659Y245737D01*
X447718Y245655D01*
X447773Y245571D01*
X447825Y245485D01*
X447874Y245397D01*
X447919Y245307D01*
X447961Y245215D01*
X447999Y245122D01*
X448033Y245027D01*
X448064Y244932D01*
X448091Y244835D01*
X448114Y244737D01*
X448134Y244638D01*
X448149Y244538D01*
X448161Y244438D01*
X448169Y244338D01*
X448173Y244237D01*
X448173Y244137D01*
X448169Y244036D01*
X448161Y243936D01*
X448149Y243836D01*
X448134Y243736D01*
X448114Y243637D01*
X448091Y243539D01*
X448064Y243442D01*
X448033Y243347D01*
X447999Y243252D01*
X447961Y243159D01*
X447919Y243067D01*
X447874Y242977D01*
X447825Y242889D01*
X447826Y242889D02*
X446528Y240640D01*
X458092Y245092D02*
X448322Y256730D01*
X453917Y258632D02*
X453291Y262741D01*
X463410Y256899D01*
X461787Y254088D02*
X465033Y259710D01*
X467177Y263425D02*
X459006Y272639D01*
X471072Y270170D01*
X468056Y270788D02*
X465135Y265728D01*
X222519Y268084D02*
X220896Y270894D01*
X222518Y268083D02*
X222576Y267986D01*
X222638Y267891D01*
X222703Y267798D01*
X222771Y267708D01*
X222842Y267620D01*
X222917Y267534D01*
X222994Y267451D01*
X223074Y267371D01*
X223157Y267294D01*
X223243Y267219D01*
X223331Y267148D01*
X223421Y267080D01*
X223514Y267015D01*
X223609Y266953D01*
X223706Y266895D01*
X223805Y266840D01*
X223906Y266789D01*
X224009Y266741D01*
X224113Y266696D01*
X224219Y266656D01*
X224326Y266619D01*
X224434Y266586D01*
X224544Y266556D01*
X224654Y266531D01*
X224765Y266509D01*
X224877Y266492D01*
X224990Y266478D01*
X225103Y266468D01*
X225216Y266462D01*
X225329Y266460D01*
X225442Y266462D01*
X225555Y266468D01*
X225668Y266478D01*
X225781Y266492D01*
X225893Y266509D01*
X226004Y266531D01*
X226114Y266556D01*
X226224Y266586D01*
X226332Y266619D01*
X226439Y266656D01*
X226545Y266696D01*
X226649Y266741D01*
X226752Y266789D01*
X226853Y266840D01*
X226952Y266895D01*
X227049Y266953D01*
X227144Y267015D01*
X227237Y267080D01*
X227327Y267148D01*
X227415Y267219D01*
X227501Y267294D01*
X227584Y267371D01*
X227664Y267451D01*
X227741Y267534D01*
X227816Y267620D01*
X227887Y267708D01*
X227955Y267798D01*
X228020Y267891D01*
X228082Y267986D01*
X228140Y268083D01*
X228195Y268182D01*
X228246Y268283D01*
X228294Y268386D01*
X228339Y268490D01*
X228379Y268596D01*
X228416Y268703D01*
X228449Y268811D01*
X228479Y268921D01*
X228504Y269031D01*
X228526Y269142D01*
X228543Y269254D01*
X228557Y269367D01*
X228567Y269480D01*
X228573Y269593D01*
X228575Y269706D01*
X228573Y269819D01*
X228567Y269932D01*
X228557Y270045D01*
X228543Y270158D01*
X228526Y270270D01*
X228504Y270381D01*
X228479Y270491D01*
X228449Y270601D01*
X228416Y270709D01*
X228379Y270816D01*
X228339Y270922D01*
X228294Y271026D01*
X228246Y271129D01*
X228195Y271230D01*
X228140Y271329D01*
X232962Y273363D02*
X231015Y276736D01*
X232962Y273364D02*
X233011Y273275D01*
X233056Y273185D01*
X233098Y273094D01*
X233136Y273000D01*
X233170Y272906D01*
X233201Y272810D01*
X233228Y272713D01*
X233251Y272615D01*
X233271Y272516D01*
X233286Y272416D01*
X233298Y272316D01*
X233306Y272216D01*
X233310Y272115D01*
X233310Y272015D01*
X233306Y271914D01*
X233298Y271814D01*
X233286Y271714D01*
X233271Y271614D01*
X233251Y271515D01*
X233228Y271417D01*
X233201Y271320D01*
X233170Y271224D01*
X233136Y271130D01*
X233098Y271036D01*
X233056Y270945D01*
X233011Y270855D01*
X232962Y270767D01*
X232910Y270680D01*
X232855Y270596D01*
X232796Y270514D01*
X232734Y270435D01*
X232670Y270357D01*
X232602Y270283D01*
X232531Y270211D01*
X232458Y270142D01*
X232382Y270076D01*
X232304Y270012D01*
X232223Y269952D01*
X232140Y269895D01*
X232055Y269842D01*
X231968Y269791D01*
X231879Y269744D01*
X231788Y269701D01*
X231695Y269661D01*
X231601Y269625D01*
X231506Y269592D01*
X231409Y269563D01*
X231312Y269538D01*
X231213Y269517D01*
X231114Y269499D01*
X231014Y269486D01*
X230914Y269476D01*
X230814Y269470D01*
X230713Y269468D01*
X230612Y269470D01*
X230512Y269476D01*
X230412Y269486D01*
X230312Y269499D01*
X230213Y269517D01*
X230114Y269538D01*
X230017Y269563D01*
X229920Y269592D01*
X229825Y269625D01*
X229731Y269661D01*
X229638Y269701D01*
X229547Y269744D01*
X229458Y269791D01*
X229371Y269842D01*
X229286Y269895D01*
X229203Y269952D01*
X229122Y270012D01*
X229044Y270076D01*
X228968Y270142D01*
X228895Y270211D01*
X228824Y270283D01*
X228756Y270357D01*
X228692Y270435D01*
X228630Y270514D01*
X228571Y270596D01*
X228516Y270680D01*
X228464Y270767D01*
X228465Y270767D02*
X227166Y273016D01*
X236405Y267400D02*
X228234Y258185D01*
X240300Y260654D01*
X232326Y251097D02*
X233949Y248286D01*
X233948Y248286D02*
X234006Y248189D01*
X234068Y248094D01*
X234133Y248001D01*
X234201Y247911D01*
X234272Y247823D01*
X234347Y247737D01*
X234424Y247654D01*
X234504Y247574D01*
X234587Y247497D01*
X234673Y247422D01*
X234761Y247351D01*
X234851Y247283D01*
X234944Y247218D01*
X235039Y247156D01*
X235136Y247098D01*
X235235Y247043D01*
X235336Y246992D01*
X235439Y246944D01*
X235543Y246899D01*
X235649Y246859D01*
X235756Y246822D01*
X235864Y246789D01*
X235974Y246759D01*
X236084Y246734D01*
X236195Y246712D01*
X236307Y246695D01*
X236420Y246681D01*
X236533Y246671D01*
X236646Y246665D01*
X236759Y246663D01*
X236872Y246665D01*
X236985Y246671D01*
X237098Y246681D01*
X237211Y246695D01*
X237323Y246712D01*
X237434Y246734D01*
X237544Y246759D01*
X237654Y246789D01*
X237762Y246822D01*
X237869Y246859D01*
X237975Y246899D01*
X238079Y246944D01*
X238182Y246992D01*
X238283Y247043D01*
X238382Y247098D01*
X238479Y247156D01*
X238574Y247218D01*
X238667Y247283D01*
X238757Y247351D01*
X238845Y247422D01*
X238931Y247497D01*
X239014Y247574D01*
X239094Y247654D01*
X239171Y247737D01*
X239246Y247823D01*
X239317Y247911D01*
X239385Y248001D01*
X239450Y248094D01*
X239512Y248189D01*
X239570Y248286D01*
X239625Y248385D01*
X239676Y248486D01*
X239724Y248589D01*
X239769Y248693D01*
X239809Y248799D01*
X239846Y248906D01*
X239879Y249014D01*
X239909Y249124D01*
X239934Y249234D01*
X239956Y249345D01*
X239973Y249457D01*
X239987Y249570D01*
X239997Y249683D01*
X240003Y249796D01*
X240005Y249909D01*
X240003Y250022D01*
X239997Y250135D01*
X239987Y250248D01*
X239973Y250361D01*
X239956Y250473D01*
X239934Y250584D01*
X239909Y250694D01*
X239879Y250804D01*
X239846Y250912D01*
X239809Y251019D01*
X239769Y251125D01*
X239724Y251229D01*
X239676Y251332D01*
X239625Y251433D01*
X239570Y251532D01*
X244392Y253566D02*
X242444Y256939D01*
X244392Y253567D02*
X244441Y253478D01*
X244486Y253388D01*
X244528Y253297D01*
X244566Y253203D01*
X244600Y253109D01*
X244631Y253013D01*
X244658Y252916D01*
X244681Y252818D01*
X244701Y252719D01*
X244716Y252619D01*
X244728Y252519D01*
X244736Y252419D01*
X244740Y252318D01*
X244740Y252218D01*
X244736Y252117D01*
X244728Y252017D01*
X244716Y251917D01*
X244701Y251817D01*
X244681Y251718D01*
X244658Y251620D01*
X244631Y251523D01*
X244600Y251427D01*
X244566Y251333D01*
X244528Y251239D01*
X244486Y251148D01*
X244441Y251058D01*
X244392Y250970D01*
X244340Y250883D01*
X244285Y250799D01*
X244226Y250717D01*
X244164Y250638D01*
X244100Y250560D01*
X244032Y250486D01*
X243961Y250414D01*
X243888Y250345D01*
X243812Y250279D01*
X243734Y250215D01*
X243653Y250155D01*
X243570Y250098D01*
X243485Y250045D01*
X243398Y249994D01*
X243309Y249947D01*
X243218Y249904D01*
X243125Y249864D01*
X243031Y249828D01*
X242936Y249795D01*
X242839Y249766D01*
X242742Y249741D01*
X242643Y249720D01*
X242544Y249702D01*
X242444Y249689D01*
X242344Y249679D01*
X242244Y249673D01*
X242143Y249671D01*
X242042Y249673D01*
X241942Y249679D01*
X241842Y249689D01*
X241742Y249702D01*
X241643Y249720D01*
X241544Y249741D01*
X241447Y249766D01*
X241350Y249795D01*
X241255Y249828D01*
X241161Y249864D01*
X241068Y249904D01*
X240977Y249947D01*
X240888Y249994D01*
X240801Y250045D01*
X240716Y250098D01*
X240633Y250155D01*
X240552Y250215D01*
X240474Y250279D01*
X240398Y250345D01*
X240325Y250414D01*
X240254Y250486D01*
X240186Y250560D01*
X240122Y250638D01*
X240060Y250717D01*
X240001Y250799D01*
X239946Y250883D01*
X239894Y250970D01*
X239895Y250970D02*
X238596Y253218D01*
X236670Y240977D02*
X251633Y243620D01*
X250483Y237823D02*
X254354Y236311D01*
X244236Y230469D01*
X242613Y233279D02*
X245858Y227658D01*
X248003Y223943D02*
X260069Y226412D01*
X251898Y217197D01*
X253941Y219501D02*
X251020Y224560D01*
X206842Y315198D02*
X206842Y318443D01*
X206840Y318556D01*
X206834Y318669D01*
X206824Y318782D01*
X206810Y318895D01*
X206793Y319007D01*
X206771Y319118D01*
X206746Y319228D01*
X206716Y319338D01*
X206683Y319446D01*
X206646Y319553D01*
X206606Y319659D01*
X206561Y319763D01*
X206513Y319866D01*
X206462Y319967D01*
X206407Y320066D01*
X206349Y320163D01*
X206287Y320258D01*
X206222Y320351D01*
X206154Y320441D01*
X206083Y320529D01*
X206008Y320615D01*
X205931Y320698D01*
X205851Y320778D01*
X205768Y320855D01*
X205682Y320930D01*
X205594Y321001D01*
X205504Y321069D01*
X205411Y321134D01*
X205316Y321196D01*
X205219Y321254D01*
X205120Y321309D01*
X205019Y321360D01*
X204916Y321408D01*
X204812Y321453D01*
X204706Y321493D01*
X204599Y321530D01*
X204491Y321563D01*
X204381Y321593D01*
X204271Y321618D01*
X204160Y321640D01*
X204048Y321657D01*
X203935Y321671D01*
X203822Y321681D01*
X203709Y321687D01*
X203596Y321689D01*
X203483Y321687D01*
X203370Y321681D01*
X203257Y321671D01*
X203144Y321657D01*
X203032Y321640D01*
X202921Y321618D01*
X202811Y321593D01*
X202701Y321563D01*
X202593Y321530D01*
X202486Y321493D01*
X202380Y321453D01*
X202276Y321408D01*
X202173Y321360D01*
X202072Y321309D01*
X201973Y321254D01*
X201876Y321196D01*
X201781Y321134D01*
X201688Y321069D01*
X201598Y321001D01*
X201510Y320930D01*
X201424Y320855D01*
X201341Y320778D01*
X201261Y320698D01*
X201184Y320615D01*
X201109Y320529D01*
X201038Y320441D01*
X200970Y320351D01*
X200905Y320258D01*
X200843Y320163D01*
X200785Y320066D01*
X200730Y319967D01*
X200679Y319866D01*
X200631Y319763D01*
X200586Y319659D01*
X200546Y319553D01*
X200509Y319446D01*
X200476Y319338D01*
X200446Y319228D01*
X200421Y319118D01*
X200399Y319007D01*
X200382Y318895D01*
X200368Y318782D01*
X200358Y318669D01*
X200352Y318556D01*
X200350Y318443D01*
X195158Y319093D02*
X195158Y315198D01*
X195158Y319093D02*
X195160Y319194D01*
X195166Y319294D01*
X195176Y319394D01*
X195189Y319494D01*
X195207Y319593D01*
X195228Y319692D01*
X195253Y319789D01*
X195282Y319886D01*
X195315Y319981D01*
X195351Y320075D01*
X195391Y320167D01*
X195434Y320258D01*
X195481Y320347D01*
X195531Y320434D01*
X195585Y320520D01*
X195642Y320603D01*
X195702Y320683D01*
X195765Y320762D01*
X195832Y320838D01*
X195901Y320911D01*
X195973Y320981D01*
X196047Y321049D01*
X196124Y321114D01*
X196204Y321175D01*
X196286Y321234D01*
X196370Y321289D01*
X196456Y321341D01*
X196544Y321390D01*
X196634Y321435D01*
X196726Y321477D01*
X196819Y321515D01*
X196914Y321549D01*
X197009Y321580D01*
X197106Y321607D01*
X197204Y321630D01*
X197303Y321650D01*
X197403Y321665D01*
X197503Y321677D01*
X197603Y321685D01*
X197704Y321689D01*
X197804Y321689D01*
X197905Y321685D01*
X198005Y321677D01*
X198105Y321665D01*
X198205Y321650D01*
X198304Y321630D01*
X198402Y321607D01*
X198499Y321580D01*
X198594Y321549D01*
X198689Y321515D01*
X198782Y321477D01*
X198874Y321435D01*
X198964Y321390D01*
X199052Y321341D01*
X199138Y321289D01*
X199222Y321234D01*
X199304Y321175D01*
X199384Y321114D01*
X199461Y321049D01*
X199535Y320981D01*
X199607Y320911D01*
X199676Y320838D01*
X199743Y320762D01*
X199806Y320683D01*
X199866Y320603D01*
X199923Y320520D01*
X199977Y320434D01*
X200027Y320347D01*
X200074Y320258D01*
X200117Y320167D01*
X200157Y320075D01*
X200193Y319981D01*
X200226Y319886D01*
X200255Y319789D01*
X200280Y319692D01*
X200301Y319593D01*
X200319Y319494D01*
X200332Y319394D01*
X200342Y319294D01*
X200348Y319194D01*
X200350Y319093D01*
X200351Y319093D02*
X200351Y316496D01*
X195158Y325979D02*
X206842Y329873D01*
X195158Y333768D01*
X206842Y338058D02*
X206842Y341303D01*
X206840Y341416D01*
X206834Y341529D01*
X206824Y341642D01*
X206810Y341755D01*
X206793Y341867D01*
X206771Y341978D01*
X206746Y342088D01*
X206716Y342198D01*
X206683Y342306D01*
X206646Y342413D01*
X206606Y342519D01*
X206561Y342623D01*
X206513Y342726D01*
X206462Y342827D01*
X206407Y342926D01*
X206349Y343023D01*
X206287Y343118D01*
X206222Y343211D01*
X206154Y343301D01*
X206083Y343389D01*
X206008Y343475D01*
X205931Y343558D01*
X205851Y343638D01*
X205768Y343715D01*
X205682Y343790D01*
X205594Y343861D01*
X205504Y343929D01*
X205411Y343994D01*
X205316Y344056D01*
X205219Y344114D01*
X205120Y344169D01*
X205019Y344220D01*
X204916Y344268D01*
X204812Y344313D01*
X204706Y344353D01*
X204599Y344390D01*
X204491Y344423D01*
X204381Y344453D01*
X204271Y344478D01*
X204160Y344500D01*
X204048Y344517D01*
X203935Y344531D01*
X203822Y344541D01*
X203709Y344547D01*
X203596Y344549D01*
X203483Y344547D01*
X203370Y344541D01*
X203257Y344531D01*
X203144Y344517D01*
X203032Y344500D01*
X202921Y344478D01*
X202811Y344453D01*
X202701Y344423D01*
X202593Y344390D01*
X202486Y344353D01*
X202380Y344313D01*
X202276Y344268D01*
X202173Y344220D01*
X202072Y344169D01*
X201973Y344114D01*
X201876Y344056D01*
X201781Y343994D01*
X201688Y343929D01*
X201598Y343861D01*
X201510Y343790D01*
X201424Y343715D01*
X201341Y343638D01*
X201261Y343558D01*
X201184Y343475D01*
X201109Y343389D01*
X201038Y343301D01*
X200970Y343211D01*
X200905Y343118D01*
X200843Y343023D01*
X200785Y342926D01*
X200730Y342827D01*
X200679Y342726D01*
X200631Y342623D01*
X200586Y342519D01*
X200546Y342413D01*
X200509Y342306D01*
X200476Y342198D01*
X200446Y342088D01*
X200421Y341978D01*
X200399Y341867D01*
X200382Y341755D01*
X200368Y341642D01*
X200358Y341529D01*
X200352Y341416D01*
X200350Y341303D01*
X195158Y341953D02*
X195158Y338058D01*
X195158Y341953D02*
X195160Y342054D01*
X195166Y342154D01*
X195176Y342254D01*
X195189Y342354D01*
X195207Y342453D01*
X195228Y342552D01*
X195253Y342649D01*
X195282Y342746D01*
X195315Y342841D01*
X195351Y342935D01*
X195391Y343027D01*
X195434Y343118D01*
X195481Y343207D01*
X195531Y343294D01*
X195585Y343380D01*
X195642Y343463D01*
X195702Y343543D01*
X195765Y343622D01*
X195832Y343698D01*
X195901Y343771D01*
X195973Y343841D01*
X196047Y343909D01*
X196124Y343974D01*
X196204Y344035D01*
X196286Y344094D01*
X196370Y344149D01*
X196456Y344201D01*
X196544Y344250D01*
X196634Y344295D01*
X196726Y344337D01*
X196819Y344375D01*
X196914Y344409D01*
X197009Y344440D01*
X197106Y344467D01*
X197204Y344490D01*
X197303Y344510D01*
X197403Y344525D01*
X197503Y344537D01*
X197603Y344545D01*
X197704Y344549D01*
X197804Y344549D01*
X197905Y344545D01*
X198005Y344537D01*
X198105Y344525D01*
X198205Y344510D01*
X198304Y344490D01*
X198402Y344467D01*
X198499Y344440D01*
X198594Y344409D01*
X198689Y344375D01*
X198782Y344337D01*
X198874Y344295D01*
X198964Y344250D01*
X199052Y344201D01*
X199138Y344149D01*
X199222Y344094D01*
X199304Y344035D01*
X199384Y343974D01*
X199461Y343909D01*
X199535Y343841D01*
X199607Y343771D01*
X199676Y343698D01*
X199743Y343622D01*
X199806Y343543D01*
X199866Y343463D01*
X199923Y343380D01*
X199977Y343294D01*
X200027Y343207D01*
X200074Y343118D01*
X200117Y343027D01*
X200157Y342935D01*
X200193Y342841D01*
X200226Y342746D01*
X200255Y342649D01*
X200280Y342552D01*
X200301Y342453D01*
X200319Y342354D01*
X200332Y342254D01*
X200342Y342154D01*
X200348Y342054D01*
X200350Y341953D01*
X200351Y341953D02*
X200351Y339356D01*
X208140Y348994D02*
X193860Y354187D01*
X197754Y358632D02*
X195158Y361877D01*
X206842Y361877D01*
X206842Y358632D02*
X206842Y365123D01*
X206842Y369413D02*
X195158Y373307D01*
X206842Y377202D01*
X203921Y376228D02*
X203921Y370386D01*
X232069Y419245D02*
X233691Y422056D01*
X233692Y422055D02*
X233747Y422154D01*
X233798Y422255D01*
X233846Y422358D01*
X233891Y422462D01*
X233931Y422568D01*
X233968Y422675D01*
X234001Y422783D01*
X234031Y422893D01*
X234056Y423003D01*
X234078Y423114D01*
X234095Y423226D01*
X234109Y423339D01*
X234119Y423452D01*
X234125Y423565D01*
X234127Y423678D01*
X234125Y423791D01*
X234119Y423904D01*
X234109Y424017D01*
X234095Y424130D01*
X234078Y424242D01*
X234056Y424353D01*
X234031Y424463D01*
X234001Y424573D01*
X233968Y424681D01*
X233931Y424788D01*
X233891Y424894D01*
X233846Y424998D01*
X233798Y425101D01*
X233747Y425202D01*
X233692Y425301D01*
X233634Y425398D01*
X233572Y425493D01*
X233507Y425586D01*
X233439Y425676D01*
X233368Y425764D01*
X233293Y425850D01*
X233216Y425933D01*
X233136Y426013D01*
X233053Y426090D01*
X232967Y426165D01*
X232879Y426236D01*
X232789Y426304D01*
X232696Y426369D01*
X232601Y426431D01*
X232504Y426489D01*
X232405Y426544D01*
X232304Y426595D01*
X232201Y426643D01*
X232097Y426688D01*
X231991Y426728D01*
X231884Y426765D01*
X231776Y426798D01*
X231666Y426828D01*
X231556Y426853D01*
X231445Y426875D01*
X231333Y426892D01*
X231220Y426906D01*
X231107Y426916D01*
X230994Y426922D01*
X230881Y426924D01*
X230768Y426922D01*
X230655Y426916D01*
X230542Y426906D01*
X230429Y426892D01*
X230317Y426875D01*
X230206Y426853D01*
X230096Y426828D01*
X229986Y426798D01*
X229878Y426765D01*
X229771Y426728D01*
X229665Y426688D01*
X229561Y426643D01*
X229458Y426595D01*
X229357Y426544D01*
X229258Y426489D01*
X229161Y426431D01*
X229066Y426369D01*
X228973Y426304D01*
X228883Y426236D01*
X228795Y426165D01*
X228709Y426090D01*
X228626Y426013D01*
X228546Y425933D01*
X228469Y425850D01*
X228394Y425764D01*
X228323Y425676D01*
X228255Y425586D01*
X228190Y425493D01*
X228128Y425398D01*
X228070Y425301D01*
X223897Y428460D02*
X221950Y425087D01*
X223898Y428460D02*
X223950Y428546D01*
X224005Y428630D01*
X224064Y428712D01*
X224125Y428792D01*
X224190Y428869D01*
X224258Y428943D01*
X224328Y429015D01*
X224401Y429084D01*
X224477Y429151D01*
X224556Y429214D01*
X224636Y429274D01*
X224719Y429331D01*
X224805Y429385D01*
X224892Y429435D01*
X224981Y429482D01*
X225072Y429525D01*
X225164Y429565D01*
X225258Y429601D01*
X225353Y429634D01*
X225450Y429663D01*
X225547Y429688D01*
X225646Y429709D01*
X225745Y429727D01*
X225845Y429740D01*
X225945Y429750D01*
X226045Y429756D01*
X226146Y429758D01*
X226247Y429756D01*
X226347Y429750D01*
X226447Y429740D01*
X226547Y429727D01*
X226646Y429709D01*
X226745Y429688D01*
X226842Y429663D01*
X226939Y429634D01*
X227034Y429601D01*
X227128Y429565D01*
X227220Y429525D01*
X227311Y429482D01*
X227400Y429435D01*
X227487Y429385D01*
X227573Y429331D01*
X227656Y429274D01*
X227736Y429214D01*
X227815Y429151D01*
X227891Y429084D01*
X227964Y429015D01*
X228034Y428943D01*
X228102Y428869D01*
X228167Y428792D01*
X228228Y428712D01*
X228287Y428630D01*
X228342Y428546D01*
X228394Y428460D01*
X228443Y428372D01*
X228488Y428282D01*
X228530Y428190D01*
X228568Y428097D01*
X228602Y428002D01*
X228633Y427907D01*
X228660Y427810D01*
X228683Y427712D01*
X228703Y427613D01*
X228718Y427513D01*
X228730Y427413D01*
X228738Y427313D01*
X228742Y427212D01*
X228742Y427112D01*
X228738Y427011D01*
X228730Y426911D01*
X228718Y426811D01*
X228703Y426711D01*
X228683Y426612D01*
X228660Y426514D01*
X228633Y426417D01*
X228602Y426322D01*
X228568Y426227D01*
X228530Y426134D01*
X228488Y426042D01*
X228443Y425952D01*
X228394Y425864D01*
X228395Y425863D02*
X227096Y423615D01*
X227340Y434423D02*
X239406Y431954D01*
X231235Y441169D01*
X243499Y439042D02*
X245121Y441853D01*
X245122Y441853D02*
X245177Y441952D01*
X245228Y442053D01*
X245276Y442156D01*
X245321Y442260D01*
X245361Y442366D01*
X245398Y442473D01*
X245431Y442581D01*
X245461Y442691D01*
X245486Y442801D01*
X245508Y442912D01*
X245525Y443024D01*
X245539Y443137D01*
X245549Y443250D01*
X245555Y443363D01*
X245557Y443476D01*
X245555Y443589D01*
X245549Y443702D01*
X245539Y443815D01*
X245525Y443928D01*
X245508Y444040D01*
X245486Y444151D01*
X245461Y444261D01*
X245431Y444371D01*
X245398Y444479D01*
X245361Y444586D01*
X245321Y444692D01*
X245276Y444796D01*
X245228Y444899D01*
X245177Y445000D01*
X245122Y445099D01*
X245064Y445196D01*
X245002Y445291D01*
X244937Y445384D01*
X244869Y445474D01*
X244798Y445562D01*
X244723Y445648D01*
X244646Y445731D01*
X244566Y445811D01*
X244483Y445888D01*
X244397Y445963D01*
X244309Y446034D01*
X244219Y446102D01*
X244126Y446167D01*
X244031Y446229D01*
X243934Y446287D01*
X243835Y446342D01*
X243734Y446393D01*
X243631Y446441D01*
X243527Y446486D01*
X243421Y446526D01*
X243314Y446563D01*
X243206Y446596D01*
X243096Y446626D01*
X242986Y446651D01*
X242875Y446673D01*
X242763Y446690D01*
X242650Y446704D01*
X242537Y446714D01*
X242424Y446720D01*
X242311Y446722D01*
X242198Y446720D01*
X242085Y446714D01*
X241972Y446704D01*
X241859Y446690D01*
X241747Y446673D01*
X241636Y446651D01*
X241526Y446626D01*
X241416Y446596D01*
X241308Y446563D01*
X241201Y446526D01*
X241095Y446486D01*
X240991Y446441D01*
X240888Y446393D01*
X240787Y446342D01*
X240688Y446287D01*
X240591Y446229D01*
X240496Y446167D01*
X240403Y446102D01*
X240313Y446034D01*
X240225Y445963D01*
X240139Y445888D01*
X240056Y445811D01*
X239976Y445731D01*
X239899Y445648D01*
X239824Y445562D01*
X239753Y445474D01*
X239685Y445384D01*
X239620Y445291D01*
X239558Y445196D01*
X239500Y445099D01*
X235327Y448257D02*
X233380Y444884D01*
X235328Y448257D02*
X235380Y448343D01*
X235435Y448427D01*
X235494Y448509D01*
X235555Y448589D01*
X235620Y448666D01*
X235688Y448740D01*
X235758Y448812D01*
X235831Y448881D01*
X235907Y448948D01*
X235986Y449011D01*
X236066Y449071D01*
X236149Y449128D01*
X236235Y449182D01*
X236322Y449232D01*
X236411Y449279D01*
X236502Y449322D01*
X236594Y449362D01*
X236688Y449398D01*
X236783Y449431D01*
X236880Y449460D01*
X236977Y449485D01*
X237076Y449506D01*
X237175Y449524D01*
X237275Y449537D01*
X237375Y449547D01*
X237475Y449553D01*
X237576Y449555D01*
X237677Y449553D01*
X237777Y449547D01*
X237877Y449537D01*
X237977Y449524D01*
X238076Y449506D01*
X238175Y449485D01*
X238272Y449460D01*
X238369Y449431D01*
X238464Y449398D01*
X238558Y449362D01*
X238650Y449322D01*
X238741Y449279D01*
X238830Y449232D01*
X238917Y449182D01*
X239003Y449128D01*
X239086Y449071D01*
X239166Y449011D01*
X239245Y448948D01*
X239321Y448881D01*
X239394Y448812D01*
X239464Y448740D01*
X239532Y448666D01*
X239597Y448589D01*
X239658Y448509D01*
X239717Y448427D01*
X239772Y448343D01*
X239824Y448257D01*
X239873Y448169D01*
X239918Y448079D01*
X239960Y447987D01*
X239998Y447894D01*
X240032Y447799D01*
X240063Y447704D01*
X240090Y447607D01*
X240113Y447509D01*
X240133Y447410D01*
X240148Y447310D01*
X240160Y447210D01*
X240168Y447110D01*
X240172Y447009D01*
X240172Y446909D01*
X240168Y446808D01*
X240160Y446708D01*
X240148Y446608D01*
X240133Y446508D01*
X240113Y446409D01*
X240090Y446311D01*
X240063Y446214D01*
X240032Y446119D01*
X239998Y446024D01*
X239960Y445931D01*
X239918Y445839D01*
X239873Y445749D01*
X239824Y445661D01*
X238526Y443412D01*
X250091Y447864D02*
X240320Y459501D01*
X245916Y461404D02*
X245290Y465512D01*
X255408Y459670D01*
X253786Y456860D02*
X257031Y462481D01*
X259176Y466196D02*
X251005Y475411D01*
X263071Y472942D01*
X260054Y473559D02*
X257133Y468500D01*
D11*
X238592Y379329D03*
D12*
X238077Y379476D03*
D13*
X237487Y379623D03*
D14*
X237046Y379771D03*
D15*
X236530Y379918D03*
D16*
X236088Y380065D03*
D17*
X235499Y380213D03*
D18*
X234983Y380360D03*
D19*
X234541Y380507D03*
D20*
X234099Y380655D03*
D21*
X234025Y380802D03*
D22*
X234099Y380949D03*
D23*
X234173Y381097D03*
D24*
X234099Y381244D03*
D25*
X234173Y381391D03*
D26*
X234173Y381538D03*
D27*
X234246Y381686D03*
X234246Y381833D03*
D28*
X234246Y381980D03*
D29*
X234320Y382128D03*
D30*
X234320Y382275D03*
X234320Y382422D03*
D31*
X234394Y382570D03*
D32*
X234394Y382717D03*
D33*
X234467Y382864D03*
D34*
X234394Y383012D03*
D35*
X234467Y383159D03*
D36*
X234541Y383306D03*
D37*
X234541Y383454D03*
X234541Y383601D03*
D38*
X234615Y383748D03*
D39*
X234615Y383896D03*
D40*
X234688Y384043D03*
D41*
X234615Y384190D03*
D42*
X234688Y384338D03*
D43*
X234762Y384485D03*
D44*
X234762Y384632D03*
X234762Y384780D03*
D45*
X234762Y384927D03*
D46*
X234836Y385074D03*
X234836Y385221D03*
D47*
X234836Y385369D03*
D48*
X234909Y385516D03*
D49*
X234909Y385663D03*
X234909Y385811D03*
D50*
X234983Y385958D03*
D51*
X234983Y386105D03*
D52*
X235057Y386253D03*
D53*
X234983Y386400D03*
D54*
X235057Y386547D03*
D55*
X235130Y386695D03*
D56*
X255608Y386695D03*
D57*
X235130Y386842D03*
D58*
X255019Y386842D03*
D57*
X235130Y386989D03*
D59*
X254577Y386989D03*
D60*
X235130Y387137D03*
D61*
X254061Y387137D03*
D62*
X235204Y387284D03*
D63*
X253619Y387284D03*
D62*
X235204Y387431D03*
D64*
X253030Y387431D03*
D65*
X235130Y387579D03*
D66*
X252588Y387579D03*
D65*
X235130Y387726D03*
D67*
X252072Y387726D03*
D62*
X235057Y387873D03*
D68*
X251630Y387873D03*
D65*
X234983Y388021D03*
D20*
X251483Y388021D03*
D65*
X234983Y388168D03*
D22*
X251483Y388168D03*
D65*
X234836Y388315D03*
D23*
X251557Y388315D03*
D65*
X234836Y388463D03*
D24*
X251630Y388463D03*
D62*
X234762Y388610D03*
D25*
X251557Y388610D03*
D65*
X234688Y388757D03*
D69*
X251630Y388757D03*
D65*
X234688Y388904D03*
D27*
X251630Y388904D03*
D65*
X234541Y389052D03*
D70*
X251704Y389052D03*
D65*
X234541Y389199D03*
D70*
X251704Y389199D03*
D62*
X234467Y389346D03*
D29*
X251704Y389346D03*
D65*
X234394Y389494D03*
D71*
X251778Y389494D03*
D65*
X234394Y389641D03*
D31*
X251778Y389641D03*
D65*
X234246Y389788D03*
D31*
X251778Y389788D03*
D65*
X234246Y389936D03*
D72*
X251851Y389936D03*
D62*
X234173Y390083D03*
D33*
X251851Y390083D03*
D60*
X234246Y390230D03*
D34*
X251925Y390230D03*
D60*
X234246Y390378D03*
D35*
X251851Y390378D03*
D73*
X234246Y390525D03*
D74*
X251925Y390525D03*
D75*
X234320Y390672D03*
D76*
X251998Y390672D03*
D54*
X234320Y390820D03*
D77*
X251998Y390820D03*
D54*
X234320Y390967D03*
D77*
X251998Y390967D03*
D53*
X234394Y391114D03*
D78*
X252072Y391114D03*
D51*
X234394Y391262D03*
D40*
X252072Y391262D03*
D79*
X234467Y391409D03*
D40*
X252072Y391409D03*
D50*
X234394Y391556D03*
D42*
X252072Y391556D03*
D80*
X234467Y391704D03*
D43*
X252146Y391704D03*
D81*
X234541Y391851D03*
D82*
X252219Y391851D03*
D47*
X234541Y391998D03*
D83*
X252146Y391998D03*
D47*
X234541Y392146D03*
D84*
X252219Y392146D03*
D85*
X234615Y392293D03*
D46*
X252219Y392293D03*
D45*
X234615Y392440D03*
D85*
X252293Y392440D03*
D45*
X234615Y392587D03*
D85*
X252293Y392587D03*
D83*
X234615Y392735D03*
D48*
X252293Y392735D03*
D86*
X234688Y392882D03*
D81*
X252367Y392882D03*
D43*
X234762Y393029D03*
D50*
X252367Y393029D03*
D42*
X234688Y393177D03*
D50*
X252367Y393177D03*
D41*
X234762Y393324D03*
D79*
X252440Y393324D03*
D39*
X234762Y393471D03*
D52*
X252440Y393471D03*
D78*
X234836Y393619D03*
D53*
X252514Y393619D03*
D78*
X234836Y393766D03*
D54*
X252440Y393766D03*
D87*
X234836Y393913D03*
D88*
X252514Y393913D03*
D76*
X234909Y394061D03*
D75*
X252588Y394061D03*
D35*
X234909Y394208D03*
D89*
X252588Y394208D03*
D35*
X234909Y394355D03*
D89*
X252588Y394355D03*
D34*
X234983Y394503D03*
D62*
X252588Y394503D03*
D32*
X234983Y394650D03*
D65*
X252661Y394650D03*
D72*
X235057Y394797D03*
D62*
X252588Y394797D03*
D31*
X234983Y394945D03*
D65*
X252514Y394945D03*
D90*
X235057Y395092D03*
D65*
X252514Y395092D03*
D91*
X235130Y395239D03*
D62*
X252440Y395239D03*
D28*
X235130Y395387D03*
D65*
X252367Y395387D03*
D28*
X235130Y395534D03*
D65*
X252367Y395534D03*
D70*
X235204Y395681D03*
D65*
X252219Y395681D03*
D26*
X235204Y395829D03*
D65*
X252219Y395829D03*
D69*
X235278Y395976D03*
D62*
X252146Y395976D03*
D92*
X235204Y396123D03*
D65*
X252072Y396123D03*
D24*
X235278Y396270D03*
D65*
X252072Y396270D03*
D23*
X235351Y396418D03*
D65*
X251925Y396418D03*
D22*
X235278Y396565D03*
D65*
X251925Y396565D03*
D21*
X235351Y396712D03*
D62*
X251851Y396712D03*
D68*
X235278Y396860D03*
D65*
X251778Y396860D03*
D93*
X234762Y397007D03*
D65*
X251778Y397007D03*
D66*
X234173Y397154D03*
D65*
X251630Y397154D03*
D64*
X233731Y397302D03*
D65*
X251630Y397302D03*
D94*
X233215Y397449D03*
D60*
X251630Y397449D03*
D95*
X232773Y397596D03*
D89*
X251704Y397596D03*
D59*
X232184Y397744D03*
D89*
X251704Y397744D03*
D96*
X231668Y397891D03*
D97*
X251704Y397891D03*
D98*
X231226Y398038D03*
D55*
X251778Y398038D03*
D99*
X241023Y398186D03*
D54*
X251704Y398186D03*
D100*
X240508Y398333D03*
D53*
X251778Y398333D03*
D13*
X239992Y398480D03*
D52*
X251851Y398480D03*
D101*
X239476Y398628D03*
D79*
X251851Y398628D03*
D15*
X239034Y398775D03*
D79*
X251851Y398775D03*
D102*
X238519Y398922D03*
D80*
X251851Y398922D03*
D17*
X238003Y399070D03*
D103*
X251925Y399070D03*
D18*
X237487Y399217D03*
D48*
X251998Y399217D03*
D104*
X236972Y399364D03*
D47*
X251925Y399364D03*
D105*
X236530Y399512D03*
D85*
X251998Y399512D03*
D21*
X236530Y399659D03*
D46*
X252072Y399659D03*
D22*
X236604Y399806D03*
D84*
X252072Y399806D03*
D23*
X236677Y399953D03*
D84*
X252072Y399953D03*
D24*
X236604Y400101D03*
D86*
X252072Y400101D03*
D25*
X236677Y400248D03*
D43*
X252146Y400248D03*
D106*
X236677Y400395D03*
D42*
X252219Y400395D03*
D27*
X236751Y400543D03*
D41*
X252146Y400543D03*
D27*
X236751Y400690D03*
D40*
X252219Y400690D03*
D28*
X236751Y400837D03*
D78*
X252219Y400837D03*
D29*
X236825Y400985D03*
D38*
X252293Y400985D03*
D30*
X236825Y401132D03*
D38*
X252293Y401132D03*
D30*
X236825Y401279D03*
D107*
X252293Y401279D03*
D31*
X236898Y401427D03*
D74*
X252367Y401427D03*
D32*
X236898Y401574D03*
D34*
X252367Y401574D03*
D33*
X236972Y401721D03*
D34*
X252367Y401721D03*
X236898Y401869D03*
D33*
X252440Y401869D03*
D35*
X236972Y402016D03*
D72*
X252440Y402016D03*
D74*
X237046Y402163D03*
D72*
X252440Y402163D03*
D37*
X237046Y402311D03*
D90*
X252440Y402311D03*
D37*
X237046Y402458D03*
D71*
X252514Y402458D03*
D78*
X237046Y402605D03*
D29*
X252588Y402605D03*
D39*
X237119Y402753D03*
D28*
X252514Y402753D03*
D40*
X237193Y402900D03*
D70*
X252588Y402900D03*
D41*
X237119Y403047D03*
D26*
X252588Y403047D03*
D42*
X237193Y403195D03*
D108*
X252661Y403195D03*
D86*
X237193Y403342D03*
D108*
X252661Y403342D03*
D44*
X237266Y403489D03*
D24*
X252661Y403489D03*
D44*
X237266Y403636D03*
D23*
X252735Y403636D03*
D45*
X237266Y403784D03*
D22*
X252809Y403784D03*
D46*
X237340Y403931D03*
D21*
X252735Y403931D03*
D46*
X237340Y404078D03*
D105*
X252735Y404078D03*
D47*
X237340Y404226D03*
D109*
X252293Y404226D03*
D48*
X237414Y404373D03*
D110*
X251778Y404373D03*
D49*
X237414Y404520D03*
D17*
X251262Y404520D03*
D49*
X237414Y404668D03*
D111*
X250746Y404668D03*
D50*
X237487Y404815D03*
D112*
X250304Y404815D03*
D51*
X237487Y404962D03*
D113*
X249789Y404962D03*
D52*
X237561Y405110D03*
D13*
X249273Y405110D03*
D53*
X237487Y405257D03*
D114*
X248757Y405257D03*
D54*
X237561Y405404D03*
D11*
X248315Y405404D03*
D55*
X237635Y405552D03*
D57*
X237635Y405699D03*
X237635Y405846D03*
D60*
X237635Y405994D03*
D62*
X237708Y406141D03*
X237708Y406288D03*
D65*
X237635Y406436D03*
X237635Y406583D03*
X237487Y406730D03*
X237487Y406878D03*
D62*
X237414Y407025D03*
D65*
X237340Y407172D03*
X237340Y407319D03*
X237193Y407467D03*
X237193Y407614D03*
D62*
X237119Y407761D03*
D65*
X237046Y407909D03*
X237046Y408056D03*
D62*
X236972Y408203D03*
D65*
X236898Y408351D03*
X236898Y408498D03*
X236751Y408645D03*
X236751Y408793D03*
D62*
X236677Y408940D03*
D60*
X236751Y409087D03*
X236751Y409235D03*
D73*
X236751Y409382D03*
D75*
X236825Y409529D03*
D54*
X236825Y409677D03*
X236825Y409824D03*
D53*
X236898Y409971D03*
D51*
X236898Y410119D03*
D79*
X236972Y410266D03*
D50*
X236898Y410413D03*
D80*
X236972Y410561D03*
D81*
X237046Y410708D03*
D115*
X236972Y410855D03*
D47*
X237046Y411002D03*
D46*
X237046Y411150D03*
D45*
X237119Y411297D03*
X237119Y411444D03*
D83*
X237119Y411592D03*
D86*
X237193Y411739D03*
D42*
X237193Y411886D03*
X237193Y412034D03*
D41*
X237266Y412181D03*
D39*
X237266Y412328D03*
D78*
X237340Y412476D03*
X237340Y412623D03*
D87*
X237340Y412770D03*
D76*
X237414Y412918D03*
D35*
X237414Y413065D03*
X237414Y413212D03*
D34*
X237487Y413360D03*
D32*
X237487Y413507D03*
D72*
X237561Y413654D03*
D31*
X237487Y413802D03*
D90*
X237561Y413949D03*
D91*
X237635Y414096D03*
D28*
X237635Y414244D03*
X237635Y414391D03*
D27*
X237635Y414538D03*
D26*
X237708Y414685D03*
D69*
X237782Y414833D03*
D92*
X237708Y414980D03*
D24*
X237782Y415127D03*
D22*
X237782Y415275D03*
X237782Y415422D03*
D21*
X237856Y415569D03*
D116*
X237708Y415717D03*
D117*
X237193Y415864D03*
D66*
X236677Y416011D03*
D118*
X236162Y416159D03*
D94*
X235720Y416306D03*
D119*
X235204Y416453D03*
D59*
X234688Y416601D03*
D96*
X234173Y416748D03*
D120*
X233657Y416895D03*
D121*
X274990Y298680D02*
X277700Y298680D01*
X277700Y289649D01*
X272281Y289649D01*
X272163Y289651D01*
X272045Y289657D01*
X271927Y289666D01*
X271810Y289680D01*
X271693Y289697D01*
X271576Y289718D01*
X271461Y289743D01*
X271346Y289772D01*
X271232Y289805D01*
X271120Y289841D01*
X271009Y289881D01*
X270899Y289924D01*
X270790Y289971D01*
X270683Y290021D01*
X270578Y290076D01*
X270475Y290133D01*
X270374Y290194D01*
X270274Y290258D01*
X270177Y290325D01*
X270082Y290395D01*
X269990Y290469D01*
X269899Y290545D01*
X269812Y290625D01*
X269727Y290707D01*
X269645Y290792D01*
X269565Y290879D01*
X269489Y290970D01*
X269415Y291062D01*
X269345Y291157D01*
X269278Y291254D01*
X269214Y291354D01*
X269153Y291455D01*
X269096Y291558D01*
X269041Y291663D01*
X268991Y291770D01*
X268944Y291879D01*
X268901Y291989D01*
X268861Y292100D01*
X268825Y292212D01*
X268792Y292326D01*
X268763Y292441D01*
X268738Y292556D01*
X268717Y292673D01*
X268700Y292790D01*
X268686Y292907D01*
X268677Y293025D01*
X268671Y293143D01*
X268669Y293261D01*
X268669Y302292D01*
X268671Y302410D01*
X268677Y302528D01*
X268686Y302646D01*
X268700Y302763D01*
X268717Y302880D01*
X268738Y302997D01*
X268763Y303112D01*
X268792Y303227D01*
X268825Y303341D01*
X268861Y303453D01*
X268901Y303564D01*
X268944Y303674D01*
X268991Y303783D01*
X269041Y303890D01*
X269095Y303995D01*
X269153Y304098D01*
X269214Y304199D01*
X269278Y304299D01*
X269345Y304396D01*
X269415Y304491D01*
X269489Y304583D01*
X269565Y304674D01*
X269645Y304761D01*
X269727Y304846D01*
X269812Y304928D01*
X269899Y305008D01*
X269990Y305084D01*
X270082Y305158D01*
X270177Y305228D01*
X270274Y305295D01*
X270374Y305359D01*
X270475Y305420D01*
X270578Y305477D01*
X270683Y305531D01*
X270790Y305582D01*
X270899Y305629D01*
X271009Y305672D01*
X271120Y305712D01*
X271232Y305748D01*
X271346Y305781D01*
X271461Y305810D01*
X271576Y305835D01*
X271693Y305856D01*
X271810Y305873D01*
X271927Y305887D01*
X272045Y305896D01*
X272163Y305902D01*
X272281Y305904D01*
X272281Y305905D02*
X277700Y305905D01*
X285342Y305905D02*
X285342Y289649D01*
X294373Y289649D02*
X285342Y305905D01*
X294373Y305905D02*
X294373Y289649D01*
X302015Y289649D02*
X302015Y305905D01*
X306531Y305905D01*
X306662Y305903D01*
X306794Y305897D01*
X306925Y305888D01*
X307055Y305874D01*
X307186Y305857D01*
X307315Y305836D01*
X307444Y305812D01*
X307572Y305783D01*
X307700Y305751D01*
X307826Y305715D01*
X307951Y305676D01*
X308076Y305633D01*
X308198Y305586D01*
X308320Y305536D01*
X308440Y305482D01*
X308558Y305425D01*
X308674Y305364D01*
X308789Y305300D01*
X308902Y305233D01*
X309013Y305162D01*
X309121Y305088D01*
X309228Y305011D01*
X309332Y304931D01*
X309434Y304848D01*
X309533Y304763D01*
X309630Y304674D01*
X309724Y304582D01*
X309816Y304488D01*
X309905Y304391D01*
X309990Y304292D01*
X310073Y304190D01*
X310153Y304086D01*
X310230Y303979D01*
X310304Y303871D01*
X310375Y303760D01*
X310442Y303647D01*
X310506Y303532D01*
X310567Y303416D01*
X310624Y303298D01*
X310678Y303178D01*
X310728Y303056D01*
X310775Y302934D01*
X310818Y302809D01*
X310857Y302684D01*
X310893Y302558D01*
X310925Y302430D01*
X310954Y302302D01*
X310978Y302173D01*
X310999Y302044D01*
X311016Y301913D01*
X311030Y301783D01*
X311039Y301652D01*
X311045Y301520D01*
X311047Y301389D01*
X311046Y301389D02*
X311046Y294164D01*
X311047Y294164D02*
X311045Y294033D01*
X311039Y293901D01*
X311030Y293770D01*
X311016Y293640D01*
X310999Y293509D01*
X310978Y293380D01*
X310954Y293251D01*
X310925Y293123D01*
X310893Y292995D01*
X310857Y292869D01*
X310818Y292744D01*
X310775Y292619D01*
X310728Y292497D01*
X310678Y292375D01*
X310624Y292255D01*
X310567Y292137D01*
X310506Y292021D01*
X310442Y291906D01*
X310375Y291793D01*
X310304Y291682D01*
X310230Y291574D01*
X310153Y291467D01*
X310073Y291363D01*
X309990Y291261D01*
X309905Y291162D01*
X309816Y291065D01*
X309724Y290971D01*
X309630Y290879D01*
X309533Y290790D01*
X309434Y290705D01*
X309332Y290622D01*
X309228Y290542D01*
X309121Y290465D01*
X309013Y290391D01*
X308902Y290320D01*
X308789Y290253D01*
X308674Y290189D01*
X308558Y290128D01*
X308440Y290071D01*
X308320Y290017D01*
X308198Y289967D01*
X308076Y289920D01*
X307951Y289877D01*
X307826Y289838D01*
X307700Y289802D01*
X307572Y289770D01*
X307444Y289741D01*
X307315Y289717D01*
X307185Y289696D01*
X307055Y289679D01*
X306925Y289665D01*
X306794Y289656D01*
X306662Y289650D01*
X306531Y289648D01*
X306531Y289649D02*
X302015Y289649D01*
X330447Y289662D02*
X335866Y289662D01*
X335984Y289664D01*
X336102Y289670D01*
X336220Y289679D01*
X336337Y289693D01*
X336454Y289710D01*
X336571Y289731D01*
X336686Y289756D01*
X336801Y289785D01*
X336915Y289818D01*
X337027Y289854D01*
X337138Y289894D01*
X337248Y289937D01*
X337357Y289984D01*
X337464Y290034D01*
X337569Y290089D01*
X337672Y290146D01*
X337773Y290207D01*
X337873Y290271D01*
X337970Y290338D01*
X338065Y290408D01*
X338157Y290482D01*
X338248Y290558D01*
X338335Y290638D01*
X338420Y290720D01*
X338502Y290805D01*
X338582Y290892D01*
X338658Y290983D01*
X338732Y291075D01*
X338802Y291170D01*
X338869Y291267D01*
X338933Y291367D01*
X338994Y291468D01*
X339051Y291571D01*
X339106Y291676D01*
X339156Y291783D01*
X339203Y291892D01*
X339246Y292002D01*
X339286Y292113D01*
X339322Y292225D01*
X339355Y292339D01*
X339384Y292454D01*
X339409Y292569D01*
X339430Y292686D01*
X339447Y292803D01*
X339461Y292920D01*
X339470Y293038D01*
X339476Y293156D01*
X339478Y293274D01*
X339478Y295080D01*
X339476Y295198D01*
X339470Y295316D01*
X339461Y295434D01*
X339447Y295551D01*
X339430Y295668D01*
X339409Y295785D01*
X339384Y295900D01*
X339355Y296015D01*
X339322Y296129D01*
X339286Y296241D01*
X339246Y296352D01*
X339203Y296462D01*
X339156Y296571D01*
X339106Y296678D01*
X339051Y296783D01*
X338994Y296886D01*
X338933Y296987D01*
X338869Y297087D01*
X338802Y297184D01*
X338732Y297279D01*
X338658Y297371D01*
X338582Y297462D01*
X338502Y297549D01*
X338420Y297634D01*
X338335Y297716D01*
X338248Y297796D01*
X338157Y297872D01*
X338065Y297946D01*
X337970Y298016D01*
X337873Y298083D01*
X337773Y298147D01*
X337672Y298208D01*
X337569Y298265D01*
X337464Y298320D01*
X337357Y298370D01*
X337248Y298417D01*
X337138Y298460D01*
X337027Y298500D01*
X336915Y298536D01*
X336801Y298569D01*
X336686Y298598D01*
X336571Y298623D01*
X336454Y298644D01*
X336337Y298661D01*
X336220Y298675D01*
X336102Y298684D01*
X335984Y298690D01*
X335866Y298692D01*
X335866Y298693D02*
X330447Y298693D01*
X330447Y305918D01*
X339478Y305918D01*
X346217Y295983D02*
X357055Y295983D01*
X363794Y293274D02*
X367406Y305918D01*
X363794Y293274D02*
X372825Y293274D01*
X370115Y296886D02*
X370115Y289662D01*
X379425Y297790D02*
X379429Y298110D01*
X379440Y298429D01*
X379459Y298749D01*
X379486Y299067D01*
X379520Y299385D01*
X379562Y299702D01*
X379612Y300018D01*
X379669Y300333D01*
X379733Y300646D01*
X379805Y300958D01*
X379884Y301268D01*
X379971Y301575D01*
X380065Y301881D01*
X380166Y302184D01*
X380275Y302485D01*
X380390Y302783D01*
X380513Y303079D01*
X380643Y303371D01*
X380780Y303660D01*
X380779Y303660D02*
X380818Y303768D01*
X380861Y303875D01*
X380907Y303980D01*
X380958Y304084D01*
X381011Y304186D01*
X381068Y304286D01*
X381129Y304384D01*
X381193Y304479D01*
X381260Y304573D01*
X381331Y304664D01*
X381404Y304753D01*
X381481Y304839D01*
X381560Y304922D01*
X381642Y305003D01*
X381727Y305081D01*
X381815Y305155D01*
X381905Y305227D01*
X381997Y305295D01*
X382092Y305361D01*
X382189Y305423D01*
X382288Y305481D01*
X382390Y305537D01*
X382492Y305588D01*
X382597Y305636D01*
X382703Y305681D01*
X382811Y305722D01*
X382920Y305759D01*
X383030Y305792D01*
X383142Y305821D01*
X383254Y305847D01*
X383367Y305869D01*
X383481Y305886D01*
X383595Y305900D01*
X383710Y305910D01*
X383825Y305916D01*
X383940Y305918D01*
X384055Y305916D01*
X384170Y305910D01*
X384285Y305900D01*
X384399Y305886D01*
X384513Y305869D01*
X384626Y305847D01*
X384738Y305821D01*
X384850Y305792D01*
X384960Y305759D01*
X385069Y305722D01*
X385177Y305681D01*
X385283Y305636D01*
X385388Y305588D01*
X385490Y305537D01*
X385591Y305481D01*
X385691Y305423D01*
X385788Y305361D01*
X385882Y305296D01*
X385975Y305227D01*
X386065Y305155D01*
X386153Y305081D01*
X386238Y305003D01*
X386320Y304922D01*
X386399Y304839D01*
X386476Y304753D01*
X386549Y304664D01*
X386620Y304573D01*
X386687Y304479D01*
X386751Y304384D01*
X386812Y304286D01*
X386869Y304186D01*
X386922Y304084D01*
X386973Y303980D01*
X387019Y303875D01*
X387062Y303768D01*
X387101Y303660D01*
X387238Y303371D01*
X387368Y303079D01*
X387491Y302783D01*
X387606Y302485D01*
X387715Y302184D01*
X387816Y301881D01*
X387910Y301575D01*
X387997Y301268D01*
X388076Y300958D01*
X388148Y300646D01*
X388212Y300333D01*
X388269Y300018D01*
X388319Y299702D01*
X388361Y299385D01*
X388395Y299067D01*
X388422Y298749D01*
X388441Y298429D01*
X388452Y298110D01*
X388456Y297790D01*
X379425Y297790D02*
X379429Y297470D01*
X379440Y297151D01*
X379459Y296831D01*
X379486Y296513D01*
X379520Y296195D01*
X379562Y295878D01*
X379612Y295562D01*
X379669Y295247D01*
X379733Y294934D01*
X379805Y294622D01*
X379884Y294312D01*
X379971Y294005D01*
X380065Y293699D01*
X380166Y293396D01*
X380275Y293095D01*
X380390Y292797D01*
X380513Y292501D01*
X380643Y292209D01*
X380780Y291920D01*
X380779Y291919D02*
X380818Y291811D01*
X380861Y291704D01*
X380907Y291599D01*
X380958Y291495D01*
X381011Y291393D01*
X381068Y291293D01*
X381129Y291195D01*
X381193Y291100D01*
X381260Y291006D01*
X381331Y290915D01*
X381404Y290826D01*
X381481Y290740D01*
X381560Y290657D01*
X381642Y290576D01*
X381727Y290498D01*
X381815Y290424D01*
X381905Y290352D01*
X381998Y290283D01*
X382092Y290218D01*
X382189Y290156D01*
X382289Y290098D01*
X382390Y290042D01*
X382492Y289991D01*
X382597Y289943D01*
X382703Y289898D01*
X382811Y289857D01*
X382920Y289820D01*
X383030Y289787D01*
X383142Y289758D01*
X383254Y289732D01*
X383367Y289710D01*
X383481Y289693D01*
X383595Y289679D01*
X383710Y289669D01*
X383825Y289663D01*
X383940Y289661D01*
X387101Y291920D02*
X387238Y292209D01*
X387368Y292501D01*
X387491Y292797D01*
X387606Y293095D01*
X387715Y293396D01*
X387816Y293699D01*
X387910Y294005D01*
X387997Y294312D01*
X388076Y294622D01*
X388148Y294934D01*
X388212Y295247D01*
X388269Y295562D01*
X388319Y295878D01*
X388361Y296195D01*
X388395Y296513D01*
X388422Y296831D01*
X388441Y297151D01*
X388452Y297470D01*
X388456Y297790D01*
X387101Y291919D02*
X387062Y291811D01*
X387019Y291704D01*
X386973Y291599D01*
X386922Y291495D01*
X386869Y291393D01*
X386812Y291293D01*
X386751Y291195D01*
X386687Y291100D01*
X386620Y291006D01*
X386549Y290915D01*
X386476Y290826D01*
X386399Y290740D01*
X386320Y290657D01*
X386238Y290576D01*
X386153Y290498D01*
X386065Y290424D01*
X385975Y290352D01*
X385882Y290283D01*
X385788Y290218D01*
X385691Y290156D01*
X385591Y290098D01*
X385490Y290042D01*
X385387Y289991D01*
X385283Y289943D01*
X385177Y289898D01*
X385069Y289857D01*
X384960Y289820D01*
X384850Y289787D01*
X384738Y289758D01*
X384626Y289732D01*
X384513Y289710D01*
X384399Y289693D01*
X384285Y289679D01*
X384170Y289669D01*
X384055Y289663D01*
X383940Y289661D01*
X380328Y293274D02*
X387553Y302305D01*
X394153Y305918D02*
X399572Y289662D01*
X404990Y305918D01*
D122*
X406570Y285260D02*
X406570Y200260D01*
X285270Y200260D02*
X285270Y285260D01*
X406570Y285260D01*
X406570Y200260D02*
X285270Y200260D01*
D123*
X345670Y279760D03*
D124*
X280309Y237580D02*
X270911Y237580D01*
X270911Y240191D01*
X270910Y240191D02*
X270912Y240292D01*
X270918Y240393D01*
X270928Y240494D01*
X270941Y240594D01*
X270959Y240694D01*
X270980Y240793D01*
X271006Y240891D01*
X271035Y240988D01*
X271067Y241084D01*
X271104Y241178D01*
X271144Y241271D01*
X271188Y241363D01*
X271235Y241452D01*
X271286Y241540D01*
X271340Y241626D01*
X271397Y241709D01*
X271457Y241791D01*
X271521Y241869D01*
X271587Y241946D01*
X271657Y242019D01*
X271729Y242090D01*
X271804Y242158D01*
X271882Y242223D01*
X271962Y242285D01*
X272044Y242344D01*
X272129Y242400D01*
X272216Y242452D01*
X272304Y242501D01*
X272395Y242547D01*
X272487Y242588D01*
X272581Y242627D01*
X272676Y242661D01*
X272772Y242692D01*
X272870Y242719D01*
X272968Y242743D01*
X273068Y242762D01*
X273168Y242778D01*
X273268Y242790D01*
X273369Y242798D01*
X273470Y242802D01*
X273572Y242802D01*
X273673Y242798D01*
X273774Y242790D01*
X273874Y242778D01*
X273974Y242762D01*
X274074Y242743D01*
X274172Y242719D01*
X274270Y242692D01*
X274366Y242661D01*
X274461Y242627D01*
X274555Y242588D01*
X274647Y242547D01*
X274738Y242501D01*
X274827Y242452D01*
X274913Y242400D01*
X274998Y242344D01*
X275080Y242285D01*
X275160Y242223D01*
X275238Y242158D01*
X275313Y242090D01*
X275385Y242019D01*
X275455Y241946D01*
X275521Y241869D01*
X275585Y241791D01*
X275645Y241709D01*
X275702Y241626D01*
X275756Y241540D01*
X275807Y241452D01*
X275854Y241363D01*
X275898Y241271D01*
X275938Y241178D01*
X275975Y241084D01*
X276007Y240988D01*
X276036Y240891D01*
X276062Y240793D01*
X276083Y240694D01*
X276101Y240594D01*
X276114Y240494D01*
X276124Y240393D01*
X276130Y240292D01*
X276132Y240191D01*
X276132Y237580D01*
X270910Y249160D02*
X270912Y249255D01*
X270918Y249349D01*
X270927Y249443D01*
X270940Y249537D01*
X270957Y249630D01*
X270978Y249722D01*
X271003Y249814D01*
X271031Y249904D01*
X271063Y249993D01*
X271098Y250081D01*
X271137Y250167D01*
X271179Y250252D01*
X271225Y250335D01*
X271274Y250416D01*
X271326Y250495D01*
X271381Y250572D01*
X271440Y250646D01*
X271501Y250718D01*
X271565Y250788D01*
X271632Y250855D01*
X271702Y250919D01*
X271774Y250980D01*
X271848Y251039D01*
X271925Y251094D01*
X272004Y251146D01*
X272085Y251195D01*
X272168Y251241D01*
X272253Y251283D01*
X272339Y251322D01*
X272427Y251357D01*
X272516Y251389D01*
X272606Y251417D01*
X272698Y251442D01*
X272790Y251463D01*
X272883Y251480D01*
X272977Y251493D01*
X273071Y251502D01*
X273165Y251508D01*
X273260Y251510D01*
X270911Y249160D02*
X270913Y249052D01*
X270919Y248943D01*
X270929Y248835D01*
X270942Y248728D01*
X270960Y248621D01*
X270981Y248514D01*
X271006Y248409D01*
X271035Y248304D01*
X271067Y248201D01*
X271104Y248099D01*
X271144Y247998D01*
X271187Y247899D01*
X271234Y247801D01*
X271285Y247705D01*
X271339Y247611D01*
X271396Y247519D01*
X271457Y247429D01*
X271521Y247341D01*
X271587Y247256D01*
X271657Y247173D01*
X271730Y247093D01*
X271806Y247015D01*
X271884Y246940D01*
X271965Y246868D01*
X272049Y246799D01*
X272135Y246733D01*
X272223Y246670D01*
X272314Y246611D01*
X272406Y246554D01*
X272501Y246501D01*
X272598Y246452D01*
X272696Y246406D01*
X272795Y246363D01*
X272897Y246324D01*
X272999Y246289D01*
X275088Y250727D02*
X275019Y250796D01*
X274948Y250862D01*
X274875Y250926D01*
X274799Y250987D01*
X274720Y251045D01*
X274640Y251099D01*
X274557Y251151D01*
X274473Y251199D01*
X274387Y251245D01*
X274299Y251286D01*
X274209Y251325D01*
X274118Y251360D01*
X274026Y251391D01*
X273933Y251419D01*
X273839Y251443D01*
X273744Y251463D01*
X273648Y251480D01*
X273551Y251493D01*
X273454Y251502D01*
X273357Y251508D01*
X273260Y251510D01*
X275088Y250726D02*
X280309Y246288D01*
X280309Y251509D01*
D121*
X434340Y281940D02*
X434340Y289560D01*
X438150Y285750D02*
X430530Y285750D01*
X405130Y316230D02*
X405142Y317227D01*
X405179Y318224D01*
X405240Y319220D01*
X405326Y320213D01*
X405436Y321205D01*
X405570Y322193D01*
X405728Y323178D01*
X405911Y324158D01*
X406117Y325134D01*
X406348Y326105D01*
X406602Y327069D01*
X406880Y328027D01*
X407181Y328978D01*
X407506Y329921D01*
X407853Y330856D01*
X408224Y331782D01*
X408617Y332699D01*
X409032Y333606D01*
X409469Y334502D01*
X409929Y335388D01*
X410410Y336261D01*
X410912Y337123D01*
X411435Y337972D01*
X411979Y338808D01*
X412543Y339631D01*
X413128Y340439D01*
X413732Y341233D01*
X414355Y342012D01*
X414997Y342775D01*
X415658Y343522D01*
X416337Y344253D01*
X417033Y344967D01*
X417747Y345663D01*
X418478Y346342D01*
X419225Y347003D01*
X419988Y347645D01*
X420767Y348268D01*
X421561Y348872D01*
X422369Y349457D01*
X423192Y350021D01*
X424028Y350565D01*
X424877Y351088D01*
X425739Y351590D01*
X426612Y352071D01*
X427498Y352531D01*
X428394Y352968D01*
X429301Y353383D01*
X430218Y353776D01*
X431144Y354147D01*
X432079Y354494D01*
X433022Y354819D01*
X433973Y355120D01*
X434931Y355398D01*
X435895Y355652D01*
X436866Y355883D01*
X437842Y356089D01*
X438822Y356272D01*
X439807Y356430D01*
X440795Y356564D01*
X441787Y356674D01*
X442780Y356760D01*
X443776Y356821D01*
X444773Y356858D01*
X445770Y356870D01*
X446767Y356858D01*
X447764Y356821D01*
X448760Y356760D01*
X449753Y356674D01*
X450745Y356564D01*
X451733Y356430D01*
X452718Y356272D01*
X453698Y356089D01*
X454674Y355883D01*
X455645Y355652D01*
X456609Y355398D01*
X457567Y355120D01*
X458518Y354819D01*
X459461Y354494D01*
X460396Y354147D01*
X461322Y353776D01*
X462239Y353383D01*
X463146Y352968D01*
X464042Y352531D01*
X464928Y352071D01*
X465801Y351590D01*
X466663Y351088D01*
X467512Y350565D01*
X468348Y350021D01*
X469171Y349457D01*
X469979Y348872D01*
X470773Y348268D01*
X471552Y347645D01*
X472315Y347003D01*
X473062Y346342D01*
X473793Y345663D01*
X474507Y344967D01*
X475203Y344253D01*
X475882Y343522D01*
X476543Y342775D01*
X477185Y342012D01*
X477808Y341233D01*
X478412Y340439D01*
X478997Y339631D01*
X479561Y338808D01*
X480105Y337972D01*
X480628Y337123D01*
X481130Y336261D01*
X481611Y335388D01*
X482071Y334502D01*
X482508Y333606D01*
X482923Y332699D01*
X483316Y331782D01*
X483687Y330856D01*
X484034Y329921D01*
X484359Y328978D01*
X484660Y328027D01*
X484938Y327069D01*
X485192Y326105D01*
X485423Y325134D01*
X485629Y324158D01*
X485812Y323178D01*
X485970Y322193D01*
X486104Y321205D01*
X486214Y320213D01*
X486300Y319220D01*
X486361Y318224D01*
X486398Y317227D01*
X486410Y316230D01*
X486398Y315233D01*
X486361Y314236D01*
X486300Y313240D01*
X486214Y312247D01*
X486104Y311255D01*
X485970Y310267D01*
X485812Y309282D01*
X485629Y308302D01*
X485423Y307326D01*
X485192Y306355D01*
X484938Y305391D01*
X484660Y304433D01*
X484359Y303482D01*
X484034Y302539D01*
X483687Y301604D01*
X483316Y300678D01*
X482923Y299761D01*
X482508Y298854D01*
X482071Y297958D01*
X481611Y297072D01*
X481130Y296199D01*
X480628Y295337D01*
X480105Y294488D01*
X479561Y293652D01*
X478997Y292829D01*
X478412Y292021D01*
X477808Y291227D01*
X477185Y290448D01*
X476543Y289685D01*
X475882Y288938D01*
X475203Y288207D01*
X474507Y287493D01*
X473793Y286797D01*
X473062Y286118D01*
X472315Y285457D01*
X471552Y284815D01*
X470773Y284192D01*
X469979Y283588D01*
X469171Y283003D01*
X468348Y282439D01*
X467512Y281895D01*
X466663Y281372D01*
X465801Y280870D01*
X464928Y280389D01*
X464042Y279929D01*
X463146Y279492D01*
X462239Y279077D01*
X461322Y278684D01*
X460396Y278313D01*
X459461Y277966D01*
X458518Y277641D01*
X457567Y277340D01*
X456609Y277062D01*
X455645Y276808D01*
X454674Y276577D01*
X453698Y276371D01*
X452718Y276188D01*
X451733Y276030D01*
X450745Y275896D01*
X449753Y275786D01*
X448760Y275700D01*
X447764Y275639D01*
X446767Y275602D01*
X445770Y275590D01*
X444773Y275602D01*
X443776Y275639D01*
X442780Y275700D01*
X441787Y275786D01*
X440795Y275896D01*
X439807Y276030D01*
X438822Y276188D01*
X437842Y276371D01*
X436866Y276577D01*
X435895Y276808D01*
X434931Y277062D01*
X433973Y277340D01*
X433022Y277641D01*
X432079Y277966D01*
X431144Y278313D01*
X430218Y278684D01*
X429301Y279077D01*
X428394Y279492D01*
X427498Y279929D01*
X426612Y280389D01*
X425739Y280870D01*
X424877Y281372D01*
X424028Y281895D01*
X423192Y282439D01*
X422369Y283003D01*
X421561Y283588D01*
X420767Y284192D01*
X419988Y284815D01*
X419225Y285457D01*
X418478Y286118D01*
X417747Y286797D01*
X417033Y287493D01*
X416337Y288207D01*
X415658Y288938D01*
X414997Y289685D01*
X414355Y290448D01*
X413732Y291227D01*
X413128Y292021D01*
X412543Y292829D01*
X411979Y293652D01*
X411435Y294488D01*
X410912Y295337D01*
X410410Y296199D01*
X409929Y297072D01*
X409469Y297958D01*
X409032Y298854D01*
X408617Y299761D01*
X408224Y300678D01*
X407853Y301604D01*
X407506Y302539D01*
X407181Y303482D01*
X406880Y304433D01*
X406602Y305391D01*
X406348Y306355D01*
X406117Y307326D01*
X405911Y308302D01*
X405728Y309282D01*
X405570Y310267D01*
X405436Y311255D01*
X405326Y312247D01*
X405240Y313240D01*
X405179Y314236D01*
X405142Y315233D01*
X405130Y316230D01*
D10*
X403301Y328181D02*
X403301Y330213D01*
X403301Y328181D02*
X403299Y328092D01*
X403293Y328004D01*
X403284Y327916D01*
X403270Y327828D01*
X403253Y327741D01*
X403232Y327655D01*
X403207Y327570D01*
X403178Y327486D01*
X403146Y327403D01*
X403111Y327322D01*
X403071Y327243D01*
X403029Y327165D01*
X402983Y327089D01*
X402934Y327015D01*
X402881Y326944D01*
X402826Y326875D01*
X402767Y326808D01*
X402706Y326744D01*
X402642Y326683D01*
X402575Y326624D01*
X402506Y326569D01*
X402435Y326516D01*
X402361Y326467D01*
X402285Y326421D01*
X402207Y326379D01*
X402128Y326339D01*
X402047Y326304D01*
X401964Y326272D01*
X401880Y326243D01*
X401795Y326218D01*
X401709Y326197D01*
X401622Y326180D01*
X401534Y326166D01*
X401446Y326157D01*
X401358Y326151D01*
X401269Y326149D01*
X396189Y326149D01*
X396100Y326151D01*
X396012Y326157D01*
X395924Y326166D01*
X395836Y326180D01*
X395749Y326197D01*
X395663Y326218D01*
X395578Y326243D01*
X395494Y326272D01*
X395411Y326304D01*
X395330Y326339D01*
X395251Y326379D01*
X395173Y326421D01*
X395097Y326467D01*
X395023Y326516D01*
X394952Y326569D01*
X394883Y326624D01*
X394816Y326683D01*
X394752Y326744D01*
X394691Y326808D01*
X394632Y326875D01*
X394577Y326944D01*
X394524Y327015D01*
X394475Y327089D01*
X394429Y327165D01*
X394387Y327243D01*
X394347Y327322D01*
X394312Y327403D01*
X394280Y327486D01*
X394251Y327570D01*
X394226Y327655D01*
X394205Y327741D01*
X394188Y327828D01*
X394174Y327916D01*
X394165Y328004D01*
X394159Y328092D01*
X394157Y328181D01*
X394157Y330213D01*
X396189Y333799D02*
X394157Y336339D01*
X403301Y336339D01*
X403301Y333799D02*
X403301Y338879D01*
X430280Y383030D02*
X430280Y409450D01*
X446020Y409450D02*
X446020Y383030D01*
X430280Y383030D01*
X430280Y409450D02*
X446020Y409450D01*
D125*
X438250Y401740D02*
X443250Y391740D01*
X433250Y391740D01*
X438250Y401740D01*
X443250Y401740D01*
X438250Y401740D02*
X433250Y401740D01*
D124*
X426339Y369951D02*
X416941Y369951D01*
X416941Y372562D01*
X416943Y372662D01*
X416949Y372762D01*
X416958Y372861D01*
X416972Y372961D01*
X416989Y373059D01*
X417010Y373157D01*
X417034Y373254D01*
X417063Y373350D01*
X417095Y373445D01*
X417130Y373538D01*
X417169Y373630D01*
X417212Y373721D01*
X417258Y373809D01*
X417308Y373896D01*
X417360Y373981D01*
X417416Y374064D01*
X417475Y374145D01*
X417538Y374223D01*
X417603Y374299D01*
X417671Y374373D01*
X417741Y374443D01*
X417815Y374511D01*
X417891Y374576D01*
X417969Y374639D01*
X418050Y374698D01*
X418133Y374754D01*
X418218Y374806D01*
X418305Y374856D01*
X418393Y374902D01*
X418484Y374945D01*
X418576Y374984D01*
X418669Y375019D01*
X418764Y375051D01*
X418860Y375080D01*
X418957Y375104D01*
X419055Y375125D01*
X419153Y375142D01*
X419253Y375156D01*
X419352Y375165D01*
X419452Y375171D01*
X419552Y375173D01*
X419552Y375172D02*
X423728Y375172D01*
X423728Y375173D02*
X423828Y375171D01*
X423928Y375165D01*
X424027Y375156D01*
X424127Y375142D01*
X424225Y375125D01*
X424323Y375104D01*
X424420Y375080D01*
X424516Y375051D01*
X424611Y375019D01*
X424704Y374984D01*
X424796Y374945D01*
X424887Y374902D01*
X424975Y374856D01*
X425062Y374806D01*
X425147Y374754D01*
X425230Y374698D01*
X425311Y374639D01*
X425389Y374576D01*
X425465Y374511D01*
X425539Y374443D01*
X425609Y374373D01*
X425677Y374299D01*
X425742Y374223D01*
X425805Y374145D01*
X425864Y374064D01*
X425920Y373981D01*
X425972Y373896D01*
X426022Y373809D01*
X426068Y373721D01*
X426111Y373630D01*
X426150Y373538D01*
X426185Y373445D01*
X426217Y373350D01*
X426246Y373254D01*
X426270Y373157D01*
X426291Y373059D01*
X426308Y372961D01*
X426322Y372861D01*
X426331Y372762D01*
X426337Y372662D01*
X426339Y372562D01*
X426339Y369951D01*
X419029Y379400D02*
X416941Y382010D01*
X426339Y382010D01*
X426339Y379400D02*
X426339Y384621D01*
D122*
X406670Y475250D02*
X281670Y475250D01*
X281670Y350250D02*
X406670Y350250D01*
X406670Y446970D02*
X406670Y475250D01*
X281670Y475250D02*
X281670Y446280D01*
X281670Y380310D02*
X281670Y350250D01*
X406670Y350250D02*
X406670Y381000D01*
D124*
X281761Y347099D02*
X281761Y337701D01*
X285938Y337701D01*
X289363Y345011D02*
X291974Y347099D01*
X291974Y337701D01*
X289363Y337701D02*
X294585Y337701D01*
D126*
X254000Y293410D02*
X251500Y293410D01*
X254000Y293410D02*
X256500Y293410D01*
X254000Y293410D02*
X251500Y298410D01*
X256500Y298410D02*
X254000Y293410D01*
X256500Y298410D02*
X251500Y298410D01*
X249000Y308410D02*
X259000Y308410D01*
X259000Y283410D01*
X249000Y283410D01*
X249000Y308410D01*
D124*
X246239Y282641D02*
X236841Y282641D01*
X236841Y285252D01*
X236843Y285352D01*
X236849Y285452D01*
X236858Y285551D01*
X236872Y285651D01*
X236889Y285749D01*
X236910Y285847D01*
X236934Y285944D01*
X236963Y286040D01*
X236995Y286135D01*
X237030Y286228D01*
X237069Y286320D01*
X237112Y286411D01*
X237158Y286499D01*
X237208Y286586D01*
X237260Y286671D01*
X237316Y286754D01*
X237375Y286835D01*
X237438Y286913D01*
X237503Y286989D01*
X237571Y287063D01*
X237641Y287133D01*
X237715Y287201D01*
X237791Y287266D01*
X237869Y287329D01*
X237950Y287388D01*
X238033Y287444D01*
X238118Y287496D01*
X238205Y287546D01*
X238293Y287592D01*
X238384Y287635D01*
X238476Y287674D01*
X238569Y287709D01*
X238664Y287741D01*
X238760Y287770D01*
X238857Y287794D01*
X238955Y287815D01*
X239053Y287832D01*
X239153Y287846D01*
X239252Y287855D01*
X239352Y287861D01*
X239452Y287863D01*
X239452Y287862D02*
X243628Y287862D01*
X243628Y287863D02*
X243728Y287861D01*
X243828Y287855D01*
X243927Y287846D01*
X244027Y287832D01*
X244125Y287815D01*
X244223Y287794D01*
X244320Y287770D01*
X244416Y287741D01*
X244511Y287709D01*
X244604Y287674D01*
X244696Y287635D01*
X244787Y287592D01*
X244875Y287546D01*
X244962Y287496D01*
X245047Y287444D01*
X245130Y287388D01*
X245211Y287329D01*
X245289Y287266D01*
X245365Y287201D01*
X245439Y287133D01*
X245509Y287063D01*
X245577Y286989D01*
X245642Y286913D01*
X245705Y286835D01*
X245764Y286754D01*
X245820Y286671D01*
X245872Y286586D01*
X245922Y286499D01*
X245968Y286411D01*
X246011Y286320D01*
X246050Y286228D01*
X246085Y286135D01*
X246117Y286040D01*
X246146Y285944D01*
X246170Y285847D01*
X246191Y285749D01*
X246208Y285651D01*
X246222Y285551D01*
X246231Y285452D01*
X246237Y285352D01*
X246239Y285252D01*
X246239Y282641D01*
X236841Y294961D02*
X236843Y295056D01*
X236849Y295150D01*
X236858Y295244D01*
X236871Y295338D01*
X236888Y295431D01*
X236909Y295523D01*
X236934Y295615D01*
X236962Y295705D01*
X236994Y295794D01*
X237029Y295882D01*
X237068Y295968D01*
X237110Y296053D01*
X237156Y296136D01*
X237205Y296217D01*
X237257Y296296D01*
X237312Y296373D01*
X237371Y296447D01*
X237432Y296519D01*
X237496Y296589D01*
X237563Y296656D01*
X237633Y296720D01*
X237705Y296781D01*
X237779Y296840D01*
X237856Y296895D01*
X237935Y296947D01*
X238016Y296996D01*
X238099Y297042D01*
X238184Y297084D01*
X238270Y297123D01*
X238358Y297158D01*
X238447Y297190D01*
X238537Y297218D01*
X238629Y297243D01*
X238721Y297264D01*
X238814Y297281D01*
X238908Y297294D01*
X239002Y297303D01*
X239096Y297309D01*
X239191Y297311D01*
X236841Y294961D02*
X236843Y294853D01*
X236849Y294744D01*
X236859Y294636D01*
X236872Y294529D01*
X236890Y294422D01*
X236911Y294315D01*
X236936Y294210D01*
X236965Y294105D01*
X236997Y294002D01*
X237034Y293900D01*
X237074Y293799D01*
X237117Y293700D01*
X237164Y293602D01*
X237215Y293506D01*
X237269Y293412D01*
X237326Y293320D01*
X237387Y293230D01*
X237451Y293142D01*
X237517Y293057D01*
X237587Y292974D01*
X237660Y292894D01*
X237736Y292816D01*
X237814Y292741D01*
X237895Y292669D01*
X237979Y292600D01*
X238065Y292534D01*
X238153Y292471D01*
X238244Y292412D01*
X238336Y292355D01*
X238431Y292302D01*
X238528Y292253D01*
X238626Y292207D01*
X238725Y292164D01*
X238827Y292125D01*
X238929Y292090D01*
X241019Y296528D02*
X240950Y296597D01*
X240879Y296663D01*
X240806Y296727D01*
X240730Y296788D01*
X240651Y296846D01*
X240571Y296900D01*
X240488Y296952D01*
X240404Y297000D01*
X240318Y297046D01*
X240230Y297087D01*
X240140Y297126D01*
X240049Y297161D01*
X239957Y297192D01*
X239864Y297220D01*
X239770Y297244D01*
X239675Y297264D01*
X239579Y297281D01*
X239482Y297294D01*
X239385Y297303D01*
X239288Y297309D01*
X239191Y297311D01*
X241018Y296528D02*
X246239Y292090D01*
X246239Y297311D01*
X243337Y315727D02*
X233939Y315727D01*
X233939Y318338D01*
X233941Y318439D01*
X233947Y318540D01*
X233957Y318641D01*
X233970Y318741D01*
X233988Y318841D01*
X234009Y318940D01*
X234035Y319038D01*
X234064Y319135D01*
X234096Y319231D01*
X234133Y319325D01*
X234173Y319418D01*
X234217Y319510D01*
X234264Y319599D01*
X234315Y319687D01*
X234369Y319773D01*
X234426Y319856D01*
X234486Y319938D01*
X234550Y320016D01*
X234616Y320093D01*
X234686Y320166D01*
X234758Y320237D01*
X234833Y320305D01*
X234911Y320370D01*
X234991Y320432D01*
X235073Y320491D01*
X235158Y320547D01*
X235245Y320599D01*
X235333Y320648D01*
X235424Y320694D01*
X235516Y320735D01*
X235610Y320774D01*
X235705Y320808D01*
X235801Y320839D01*
X235899Y320866D01*
X235997Y320890D01*
X236097Y320909D01*
X236197Y320925D01*
X236297Y320937D01*
X236398Y320945D01*
X236499Y320949D01*
X236601Y320949D01*
X236702Y320945D01*
X236803Y320937D01*
X236903Y320925D01*
X237003Y320909D01*
X237103Y320890D01*
X237201Y320866D01*
X237299Y320839D01*
X237395Y320808D01*
X237490Y320774D01*
X237584Y320735D01*
X237676Y320694D01*
X237767Y320648D01*
X237856Y320599D01*
X237942Y320547D01*
X238027Y320491D01*
X238109Y320432D01*
X238189Y320370D01*
X238267Y320305D01*
X238342Y320237D01*
X238414Y320166D01*
X238484Y320093D01*
X238550Y320016D01*
X238614Y319938D01*
X238674Y319856D01*
X238731Y319773D01*
X238785Y319687D01*
X238836Y319599D01*
X238883Y319510D01*
X238927Y319418D01*
X238967Y319325D01*
X239004Y319231D01*
X239036Y319135D01*
X239065Y319038D01*
X239091Y318940D01*
X239112Y318841D01*
X239130Y318741D01*
X239143Y318641D01*
X239153Y318540D01*
X239159Y318439D01*
X239161Y318338D01*
X239160Y318338D02*
X239160Y315727D01*
X239160Y318860D02*
X243337Y320948D01*
X236028Y324814D02*
X233939Y327425D01*
X243337Y327425D01*
X243337Y330035D02*
X243337Y324814D01*
X220213Y357948D02*
X220213Y365257D01*
X220213Y357948D02*
X220211Y357859D01*
X220205Y357771D01*
X220196Y357683D01*
X220183Y357595D01*
X220166Y357508D01*
X220146Y357422D01*
X220121Y357337D01*
X220094Y357252D01*
X220062Y357169D01*
X220028Y357088D01*
X219989Y357008D01*
X219948Y356930D01*
X219903Y356853D01*
X219855Y356779D01*
X219804Y356706D01*
X219750Y356636D01*
X219692Y356569D01*
X219632Y356503D01*
X219570Y356441D01*
X219504Y356381D01*
X219437Y356323D01*
X219367Y356269D01*
X219294Y356218D01*
X219220Y356170D01*
X219143Y356125D01*
X219065Y356084D01*
X218985Y356045D01*
X218904Y356011D01*
X218821Y355979D01*
X218736Y355952D01*
X218651Y355927D01*
X218565Y355907D01*
X218478Y355890D01*
X218390Y355877D01*
X218302Y355868D01*
X218214Y355862D01*
X218125Y355860D01*
X218125Y355859D02*
X217080Y355859D01*
M02*
