G04*
G04 #@! TF.GenerationSoftware,Altium Limited,Altium Designer,25.8.1 (18)*
G04*
G04 Layer_Physical_Order=2*
G04 Layer_Color=16711680*
%FSLAX44Y44*%
%MOMM*%
G71*
G04*
G04 #@! TF.SameCoordinates,2BA1844E-35A1-40AA-B719-48A9BFBC8ED3*
G04*
G04*
G04 #@! TF.FilePolarity,Positive*
G04*
G01*
G75*
%ADD14C,0.2540*%
G04:AMPARAMS|DCode=42|XSize=1mm|YSize=1mm|CornerRadius=0.5mm|HoleSize=0mm|Usage=FLASHONLY|Rotation=300.000|XOffset=0mm|YOffset=0mm|HoleType=Round|Shape=RoundedRectangle|*
%AMROUNDEDRECTD42*
21,1,1.0000,0.0000,0,0,300.0*
21,1,0.0000,1.0000,0,0,300.0*
1,1,1.0000,0.0000,0.0000*
1,1,1.0000,0.0000,0.0000*
1,1,1.0000,0.0000,0.0000*
1,1,1.0000,0.0000,0.0000*
%
%ADD42ROUNDEDRECTD42*%
G04:AMPARAMS|DCode=43|XSize=1mm|YSize=1mm|CornerRadius=0.5mm|HoleSize=0mm|Usage=FLASHONLY|Rotation=180.000|XOffset=0mm|YOffset=0mm|HoleType=Round|Shape=RoundedRectangle|*
%AMROUNDEDRECTD43*
21,1,1.0000,0.0000,0,0,180.0*
21,1,0.0000,1.0000,0,0,180.0*
1,1,1.0000,0.0000,0.0000*
1,1,1.0000,0.0000,0.0000*
1,1,1.0000,0.0000,0.0000*
1,1,1.0000,0.0000,0.0000*
%
%ADD43ROUNDEDRECTD43*%
G04:AMPARAMS|DCode=44|XSize=1mm|YSize=1mm|CornerRadius=0.5mm|HoleSize=0mm|Usage=FLASHONLY|Rotation=240.000|XOffset=0mm|YOffset=0mm|HoleType=Round|Shape=RoundedRectangle|*
%AMROUNDEDRECTD44*
21,1,1.0000,0.0000,0,0,240.0*
21,1,0.0000,1.0000,0,0,240.0*
1,1,1.0000,0.0000,0.0000*
1,1,1.0000,0.0000,0.0000*
1,1,1.0000,0.0000,0.0000*
1,1,1.0000,0.0000,0.0000*
%
%ADD44ROUNDEDRECTD44*%
%ADD45C,1.3900*%
%ADD46P,1.9658X4X165.0*%
G04:AMPARAMS|DCode=47|XSize=2.4mm|YSize=2.4mm|CornerRadius=0.6mm|HoleSize=0mm|Usage=FLASHONLY|Rotation=300.000|XOffset=0mm|YOffset=0mm|HoleType=Round|Shape=RoundedRectangle|*
%AMROUNDEDRECTD47*
21,1,2.4000,1.2000,0,0,300.0*
21,1,1.2000,2.4000,0,0,300.0*
1,1,1.2000,-0.2196,-0.8196*
1,1,1.2000,-0.8196,0.2196*
1,1,1.2000,0.2196,0.8196*
1,1,1.2000,0.8196,-0.2196*
%
%ADD47ROUNDEDRECTD47*%
%ADD48C,2.4000*%
%ADD49C,0.6096*%
%ADD50C,1.2700*%
%ADD51C,0.5000*%
G36*
X-67041Y150492D02*
X-66999Y148743D01*
X-67084Y148195D01*
X67145D01*
X67059Y148751D01*
X67106Y150500D01*
X86888D01*
X96781Y133322D01*
X95288Y132410D01*
X94783Y132214D01*
X161906Y15952D01*
X162322Y16285D01*
X163860Y17118D01*
X163860Y17118D01*
X173750Y-13D01*
X163820Y-17170D01*
X162284Y-16333D01*
X161876Y-16004D01*
X94752Y-132267D01*
X95265Y-132467D01*
X96756Y-133382D01*
X86865Y-150513D01*
X67041Y-150492D01*
X66999Y-148743D01*
X67084Y-148195D01*
X-67145D01*
X-67059Y-148751D01*
X-67106Y-150500D01*
Y-150500D01*
X-86888D01*
X-96781Y-133322D01*
X-95288Y-132410D01*
X-94783Y-132214D01*
X-161906Y-15952D01*
X-162322Y-16285D01*
X-163860Y-17118D01*
Y-17118D01*
X-173750Y13D01*
X-163820Y17170D01*
X-162284Y16333D01*
X-161876Y16004D01*
X-94752Y132267D01*
X-95265Y132467D01*
X-96756Y133382D01*
X-96756Y133382D01*
X-86865Y150513D01*
X-67041Y150492D01*
D02*
G37*
%LPC*%
G36*
X105166Y33273D02*
X101672D01*
X98297Y32369D01*
X95271Y30622D01*
X92800Y28151D01*
X91053Y25125D01*
X90149Y21750D01*
Y18256D01*
X91053Y14881D01*
X92800Y11855D01*
X95271Y9384D01*
X98297Y7637D01*
X101672Y6733D01*
X105166D01*
X108541Y7637D01*
X111567Y9384D01*
X114038Y11855D01*
X115785Y14881D01*
X116689Y18256D01*
Y21750D01*
X115785Y25125D01*
X114038Y28151D01*
X111567Y30622D01*
X108541Y32369D01*
X105166Y33273D01*
D02*
G37*
G36*
X-120689Y5895D02*
X-131777Y-507D01*
X-133827Y-1690D01*
D01*
X-134927Y-2325D01*
X-134017Y-4112D01*
X-133742Y-4536D01*
X-132924Y-5793D01*
X-126707Y-16563D01*
X-112469Y-8343D01*
X-120689Y5895D01*
D02*
G37*
G36*
X-19207Y15494D02*
X-20925D01*
X-22512Y14837D01*
X-23727Y13622D01*
X-24384Y12035D01*
Y10317D01*
X-23727Y8730D01*
X-22656Y7659D01*
Y-8653D01*
X-24244Y-9776D01*
X-27080Y-9036D01*
X-27533Y-8194D01*
X-27825Y-8068D01*
X-29792Y-9179D01*
X-39624Y-14732D01*
X-44764Y-14828D01*
X-48006Y-11938D01*
X-51886Y-5191D01*
X-52823Y-3562D01*
X-53594Y-3556D01*
X-55076Y-4439D01*
X-66802Y-11430D01*
X-67564Y-11176D01*
X-69197Y-8455D01*
X-69480Y-8313D01*
X-75008Y-11607D01*
X-77546Y-13022D01*
X-79248Y-13970D01*
X-79502Y-14478D01*
X-78484Y-16244D01*
X-72898Y-25935D01*
X-72121D01*
X-64008Y-21336D01*
X-50800Y-13716D01*
X-46228Y-17751D01*
X-44095Y-17936D01*
X-43275Y-20556D01*
X-43602Y-20828D01*
X-44801D01*
X-46388Y-21485D01*
X-47603Y-22700D01*
X-48260Y-24287D01*
Y-26005D01*
X-47603Y-27592D01*
X-46388Y-28807D01*
X-44801Y-29464D01*
X-43083D01*
X-42328Y-29151D01*
X-41960Y-29619D01*
X-40919Y-31317D01*
X-41073Y-31779D01*
X-41402Y-32766D01*
X-41402Y-32766D01*
X-40640Y-33528D01*
X-39511Y-33979D01*
X-39511Y-33980D01*
X-39421Y-33935D01*
X-39201Y-33809D01*
X-26766Y-26752D01*
X-24710Y-25585D01*
X-24710Y-25585D01*
X-24130Y-25256D01*
X-24585Y-23237D01*
X-26162Y-22606D01*
X-26935Y-23051D01*
X-38813Y-29893D01*
X-39230Y-30133D01*
X-40743Y-28160D01*
X-40482Y-27793D01*
X-40281Y-27592D01*
X-39624Y-26005D01*
Y-25760D01*
X-20107Y-15233D01*
X-19817Y-14994D01*
X-19505Y-14785D01*
X-18235Y-13515D01*
X-17673Y-12675D01*
X-17476Y-11684D01*
Y7659D01*
X-16405Y8730D01*
X-15748Y10317D01*
Y12035D01*
X-16405Y13622D01*
X-17620Y14837D01*
X-19207Y15494D01*
D02*
G37*
G36*
X-18058Y-34914D02*
X-18933Y-35424D01*
X-33528Y-43942D01*
X-44958Y-44196D01*
X-50211Y-43144D01*
X-55880Y-36322D01*
X-57380Y-35708D01*
X-69596Y-42372D01*
Y-43263D01*
X-64607Y-52686D01*
X-65049Y-55215D01*
X-79734Y-63713D01*
X-80377Y-66282D01*
X-75629Y-74422D01*
X-73603Y-75159D01*
X-46736Y-59690D01*
X-42418Y-60706D01*
X-36652Y-70536D01*
X-38115Y-97797D01*
X-36341Y-101813D01*
X-36333Y-101827D01*
X-22026Y-126392D01*
X-14732Y-127508D01*
X9815Y-112024D01*
X12700Y-100838D01*
X-5080Y-71126D01*
X-5588Y-55880D01*
X-16266Y-36435D01*
X-16510Y-35991D01*
X-18058Y-34914D01*
D02*
G37*
%LPD*%
D14*
X-20066Y-11684D02*
Y11176D01*
X-21336Y-12954D02*
X-20066Y-11684D01*
X-43942Y-25146D02*
X-21336Y-12954D01*
D42*
X165199Y0D02*
D03*
X-165199D02*
D03*
D43*
X82601Y143101D02*
D03*
X-82601Y-143101D02*
D03*
D44*
X82601D02*
D03*
X-82601Y143101D02*
D03*
D45*
X-133698Y11987D02*
D03*
D46*
X-123698Y-5334D02*
D03*
D47*
X78019Y63997D02*
D03*
D48*
X103419Y20003D02*
D03*
D49*
X-59690Y28956D02*
D03*
X-37592Y13970D02*
D03*
X21082Y-86360D02*
D03*
X13462Y-74676D02*
D03*
X48514Y107188D02*
D03*
X-79248Y-85090D02*
D03*
X-61468Y-108204D02*
D03*
X16002Y73660D02*
D03*
X5842Y68072D02*
D03*
X42926Y25908D02*
D03*
X60706Y21336D02*
D03*
X2286Y22860D02*
D03*
X-8890Y16764D02*
D03*
X-50292Y7874D02*
D03*
X-41656Y22606D02*
D03*
X-55372Y16256D02*
D03*
X-48514Y33274D02*
D03*
X-124968Y23622D02*
D03*
X-141224Y-254D02*
D03*
X-108677Y-21538D02*
D03*
X-118618Y-55372D02*
D03*
X-123698Y-47244D02*
D03*
X-93980Y-81026D02*
D03*
X39624Y-63500D02*
D03*
X44958Y-73914D02*
D03*
X33274Y-80518D02*
D03*
X27686Y-68834D02*
D03*
X78994Y-54864D02*
D03*
X46736Y-45466D02*
D03*
X77470Y-38100D02*
D03*
X33782Y-52070D02*
D03*
X70104Y-62484D02*
D03*
X56642Y-69088D02*
D03*
X58166Y-39878D02*
D03*
X21590Y-57912D02*
D03*
X10160Y-63754D02*
D03*
X8890Y-49530D02*
D03*
X1016Y-53594D02*
D03*
X-44196Y-111506D02*
D03*
X-20066Y11176D02*
D03*
X-43942Y-25146D02*
D03*
D50*
X82550Y88900D02*
D03*
X92710Y42418D02*
D03*
X57404Y49784D02*
D03*
D51*
X4651Y-39614D02*
D03*
X-4875Y-45114D02*
D03*
X-849Y-30087D02*
D03*
X-10375Y-35587D02*
D03*
X-6349Y-20561D02*
D03*
X-15875Y-26061D02*
D03*
M02*
