G04*
G04 #@! TF.GenerationSoftware,Altium Limited,Altium Designer,25.8.1 (18)*
G04*
G04 Layer_Color=65535*
%FSLAX44Y44*%
%MOMM*%
G71*
G04*
G04 #@! TF.SameCoordinates,2BA1844E-35A1-40AA-B719-48A9BFBC8ED3*
G04*
G04*
G04 #@! TF.FilePolarity,Positive*
G04*
G01*
G75*
%ADD10C,0.2500*%
%ADD11C,0.2000*%
%ADD12C,0.4000*%
%ADD13C,0.1524*%
%ADD14C,0.2540*%
%ADD15C,0.0762*%
G36*
X83210Y-75514D02*
Y-75667D01*
Y-75819D01*
Y-75971D01*
Y-76124D01*
Y-76276D01*
Y-76429D01*
Y-76581D01*
Y-76733D01*
Y-76886D01*
Y-77038D01*
Y-77191D01*
Y-77343D01*
Y-77495D01*
Y-77648D01*
Y-77800D01*
Y-77953D01*
Y-78105D01*
Y-78257D01*
Y-78410D01*
Y-78562D01*
Y-78715D01*
Y-78867D01*
Y-79019D01*
Y-79172D01*
Y-79324D01*
Y-79477D01*
Y-79629D01*
Y-79781D01*
Y-79934D01*
Y-80086D01*
Y-80239D01*
Y-80391D01*
Y-80543D01*
Y-80696D01*
Y-80848D01*
Y-81001D01*
Y-81153D01*
Y-81305D01*
Y-81458D01*
Y-81610D01*
Y-81763D01*
Y-81915D01*
Y-82067D01*
Y-82220D01*
Y-82372D01*
Y-82525D01*
Y-82677D01*
Y-82829D01*
Y-82982D01*
Y-83134D01*
Y-83287D01*
Y-83439D01*
Y-83591D01*
Y-83744D01*
Y-83896D01*
Y-84049D01*
Y-84201D01*
Y-84353D01*
Y-84506D01*
Y-84658D01*
Y-84811D01*
Y-84963D01*
Y-85115D01*
Y-85268D01*
Y-85420D01*
Y-85573D01*
Y-85725D01*
Y-85877D01*
Y-86030D01*
Y-86182D01*
Y-86335D01*
Y-86487D01*
Y-86639D01*
Y-86792D01*
Y-86944D01*
Y-87097D01*
Y-87249D01*
Y-87401D01*
Y-87554D01*
Y-87706D01*
Y-87859D01*
Y-88011D01*
Y-88163D01*
Y-88316D01*
Y-88468D01*
Y-88621D01*
Y-88773D01*
Y-88925D01*
Y-89078D01*
Y-89230D01*
Y-89383D01*
Y-89535D01*
Y-89687D01*
Y-89840D01*
Y-89992D01*
Y-90145D01*
Y-90297D01*
Y-90449D01*
Y-90602D01*
Y-90754D01*
Y-90907D01*
Y-91059D01*
Y-91211D01*
Y-91364D01*
Y-91516D01*
Y-91669D01*
Y-91821D01*
Y-91973D01*
X76200D01*
Y-91821D01*
X76048D01*
Y-91669D01*
Y-91516D01*
Y-91364D01*
Y-91211D01*
Y-91059D01*
Y-90907D01*
Y-90754D01*
Y-90602D01*
Y-90449D01*
Y-90297D01*
Y-90145D01*
Y-89992D01*
Y-89840D01*
Y-89687D01*
Y-89535D01*
Y-89383D01*
Y-89230D01*
Y-89078D01*
Y-88925D01*
Y-88773D01*
Y-88621D01*
Y-88468D01*
Y-88316D01*
Y-88163D01*
Y-88011D01*
Y-87859D01*
Y-87706D01*
Y-87554D01*
Y-87401D01*
Y-87249D01*
Y-87097D01*
Y-86944D01*
Y-86792D01*
Y-86639D01*
Y-86487D01*
Y-86335D01*
Y-86182D01*
Y-86030D01*
Y-85877D01*
Y-85725D01*
Y-85573D01*
Y-85420D01*
Y-85268D01*
Y-85115D01*
Y-84963D01*
Y-84811D01*
Y-84658D01*
Y-84506D01*
Y-84353D01*
Y-84201D01*
Y-84049D01*
Y-83896D01*
Y-83744D01*
Y-83591D01*
Y-83439D01*
Y-83287D01*
Y-83134D01*
X75895D01*
Y-82982D01*
Y-82829D01*
X75743D01*
Y-82677D01*
X75590D01*
Y-82525D01*
X75438D01*
Y-82372D01*
X75133D01*
Y-82220D01*
X74524D01*
Y-82067D01*
X74371D01*
Y-82220D01*
X73762D01*
Y-82372D01*
X73457D01*
Y-82525D01*
X73304D01*
Y-82677D01*
X73152D01*
Y-82829D01*
X73000D01*
Y-82982D01*
Y-83134D01*
X72847D01*
Y-83287D01*
Y-83439D01*
Y-83591D01*
Y-83744D01*
Y-83896D01*
Y-84049D01*
Y-84201D01*
Y-84353D01*
Y-84506D01*
Y-84658D01*
Y-84811D01*
Y-84963D01*
Y-85115D01*
Y-85268D01*
Y-85420D01*
Y-85573D01*
Y-85725D01*
Y-85877D01*
Y-86030D01*
Y-86182D01*
Y-86335D01*
Y-86487D01*
Y-86639D01*
Y-86792D01*
Y-86944D01*
X72695D01*
Y-87097D01*
Y-87249D01*
Y-87401D01*
Y-87554D01*
Y-87706D01*
Y-87859D01*
Y-88011D01*
Y-88163D01*
Y-88316D01*
Y-88468D01*
Y-88621D01*
Y-88773D01*
Y-88925D01*
Y-89078D01*
Y-89230D01*
Y-89383D01*
Y-89535D01*
Y-89687D01*
Y-89840D01*
Y-89992D01*
Y-90145D01*
Y-90297D01*
Y-90449D01*
Y-90602D01*
Y-90754D01*
Y-90907D01*
Y-91059D01*
Y-91211D01*
Y-91364D01*
Y-91516D01*
Y-91669D01*
Y-91821D01*
Y-91973D01*
Y-92126D01*
Y-92278D01*
Y-92431D01*
Y-92583D01*
Y-92735D01*
Y-92888D01*
Y-93040D01*
Y-93193D01*
Y-93345D01*
Y-93497D01*
Y-93650D01*
Y-93802D01*
Y-93955D01*
Y-94107D01*
Y-94259D01*
Y-94412D01*
Y-94564D01*
Y-94717D01*
Y-94869D01*
Y-95021D01*
Y-95174D01*
Y-95326D01*
Y-95479D01*
Y-95631D01*
Y-95783D01*
Y-95936D01*
Y-96088D01*
Y-96241D01*
Y-96393D01*
X72847D01*
Y-96545D01*
Y-96698D01*
Y-96850D01*
Y-97003D01*
Y-97155D01*
Y-97307D01*
Y-97460D01*
Y-97612D01*
Y-97765D01*
Y-97917D01*
Y-98069D01*
Y-98222D01*
Y-98374D01*
Y-98527D01*
Y-98679D01*
Y-98831D01*
Y-98984D01*
Y-99136D01*
Y-99289D01*
Y-99441D01*
Y-99593D01*
Y-99746D01*
Y-99898D01*
Y-100051D01*
Y-100203D01*
Y-100355D01*
Y-100508D01*
Y-100660D01*
Y-100813D01*
Y-100965D01*
Y-101117D01*
Y-101270D01*
Y-101422D01*
Y-101575D01*
Y-101727D01*
Y-101879D01*
Y-102032D01*
Y-102184D01*
Y-102337D01*
Y-102489D01*
Y-102641D01*
Y-102794D01*
Y-102946D01*
Y-103099D01*
Y-103251D01*
Y-103403D01*
Y-103556D01*
Y-103708D01*
Y-103861D01*
Y-104013D01*
Y-104165D01*
Y-104318D01*
Y-104470D01*
Y-104623D01*
Y-104775D01*
Y-104927D01*
Y-105080D01*
Y-105232D01*
Y-105385D01*
Y-105537D01*
Y-105689D01*
Y-105842D01*
Y-105994D01*
Y-106147D01*
Y-106299D01*
Y-106451D01*
Y-106604D01*
Y-106756D01*
Y-106909D01*
Y-107061D01*
Y-107213D01*
Y-107366D01*
Y-107518D01*
Y-107671D01*
Y-107823D01*
Y-107975D01*
Y-108128D01*
Y-108280D01*
Y-108433D01*
Y-108585D01*
Y-108737D01*
Y-108890D01*
Y-109042D01*
Y-109195D01*
Y-109347D01*
Y-109499D01*
Y-109652D01*
Y-109804D01*
Y-109957D01*
Y-110109D01*
Y-110261D01*
Y-110414D01*
Y-110566D01*
Y-110719D01*
Y-110871D01*
Y-111023D01*
Y-111176D01*
Y-111328D01*
Y-111481D01*
Y-111633D01*
Y-111785D01*
Y-111938D01*
Y-112090D01*
X72695D01*
Y-112243D01*
X70104D01*
Y-112090D01*
X69494D01*
Y-111938D01*
X69190D01*
Y-111785D01*
X69037D01*
Y-111633D01*
X68885D01*
Y-111481D01*
X68580D01*
Y-111328D01*
Y-111176D01*
X68428D01*
Y-111023D01*
X68275D01*
Y-110871D01*
Y-110719D01*
X68123D01*
Y-110566D01*
X67970D01*
Y-110414D01*
Y-110261D01*
X67818D01*
Y-110109D01*
Y-109957D01*
X67666D01*
Y-109804D01*
Y-109652D01*
X67513D01*
Y-109499D01*
X67361D01*
Y-109347D01*
Y-109195D01*
X67208D01*
Y-109042D01*
Y-108890D01*
X67056D01*
Y-108737D01*
X66904D01*
Y-108585D01*
Y-108433D01*
X66751D01*
Y-108280D01*
Y-108128D01*
X66599D01*
Y-107975D01*
Y-107823D01*
X66446D01*
Y-107671D01*
X66294D01*
Y-107518D01*
Y-107366D01*
X66142D01*
Y-107213D01*
Y-107061D01*
X65989D01*
Y-106909D01*
Y-106756D01*
X65837D01*
Y-106604D01*
X65684D01*
Y-106451D01*
Y-106299D01*
X65532D01*
Y-106147D01*
Y-105994D01*
X65380D01*
Y-105842D01*
Y-105689D01*
X65227D01*
Y-105537D01*
X65075D01*
Y-105385D01*
Y-105232D01*
X64922D01*
Y-105080D01*
Y-104927D01*
X64770D01*
Y-104775D01*
X64618D01*
Y-104623D01*
Y-104470D01*
X64465D01*
Y-104318D01*
Y-104165D01*
X64313D01*
Y-104013D01*
Y-103861D01*
X64160D01*
Y-103708D01*
X64008D01*
Y-103556D01*
Y-103403D01*
X63856D01*
Y-103251D01*
Y-103099D01*
X63703D01*
Y-102946D01*
Y-102794D01*
X63551D01*
Y-102641D01*
X63398D01*
Y-102489D01*
Y-102337D01*
X63246D01*
Y-102184D01*
Y-102032D01*
X63094D01*
Y-101879D01*
Y-101727D01*
X62941D01*
Y-101575D01*
X62789D01*
Y-101422D01*
Y-101270D01*
X62636D01*
Y-101117D01*
Y-100965D01*
X62484D01*
Y-100813D01*
Y-100660D01*
X62332D01*
Y-100508D01*
X62179D01*
Y-100355D01*
Y-100203D01*
X62027D01*
Y-100051D01*
Y-99898D01*
X61874D01*
Y-99746D01*
Y-99593D01*
X61722D01*
Y-99441D01*
X61570D01*
Y-99289D01*
Y-99136D01*
X61417D01*
Y-98984D01*
Y-98831D01*
X61265D01*
Y-98679D01*
X61112D01*
Y-98527D01*
Y-98374D01*
X60960D01*
Y-98222D01*
Y-98069D01*
X60808D01*
Y-97917D01*
Y-97765D01*
X60655D01*
Y-97612D01*
X60503D01*
Y-97460D01*
Y-97307D01*
X60350D01*
Y-97155D01*
Y-97003D01*
X60198D01*
Y-96850D01*
Y-96698D01*
X60046D01*
Y-96545D01*
X59893D01*
Y-96393D01*
Y-96241D01*
X59741D01*
Y-96088D01*
Y-95936D01*
X59588D01*
Y-95783D01*
Y-95631D01*
X59436D01*
Y-95479D01*
X59284D01*
Y-95326D01*
Y-95174D01*
X59131D01*
Y-95021D01*
Y-94869D01*
X58979D01*
Y-94717D01*
Y-94564D01*
X58826D01*
Y-94412D01*
Y-94259D01*
Y-94107D01*
Y-93955D01*
Y-93802D01*
Y-93650D01*
Y-93497D01*
Y-93345D01*
Y-93193D01*
Y-93040D01*
X58979D01*
Y-92888D01*
Y-92735D01*
Y-92583D01*
X59131D01*
Y-92431D01*
Y-92278D01*
X59284D01*
Y-92126D01*
X59436D01*
Y-91973D01*
Y-91821D01*
X59588D01*
Y-91669D01*
Y-91516D01*
X59741D01*
Y-91364D01*
Y-91211D01*
X59893D01*
Y-91059D01*
X60046D01*
Y-90907D01*
Y-90754D01*
X60198D01*
Y-90602D01*
Y-90449D01*
X60350D01*
Y-90297D01*
X60503D01*
Y-90145D01*
Y-89992D01*
X60655D01*
Y-89840D01*
Y-89687D01*
X60808D01*
Y-89535D01*
Y-89383D01*
X60960D01*
Y-89230D01*
X61112D01*
Y-89078D01*
Y-88925D01*
X61265D01*
Y-88773D01*
Y-88621D01*
X61417D01*
Y-88468D01*
Y-88316D01*
X61570D01*
Y-88163D01*
X61722D01*
Y-88011D01*
Y-87859D01*
X61874D01*
Y-87706D01*
X62027D01*
Y-87554D01*
Y-87401D01*
X62179D01*
Y-87249D01*
Y-87097D01*
X62332D01*
Y-86944D01*
Y-86792D01*
X62484D01*
Y-86639D01*
X62636D01*
Y-86487D01*
Y-86335D01*
X62789D01*
Y-86182D01*
Y-86030D01*
X62941D01*
Y-85877D01*
Y-85725D01*
X63094D01*
Y-85573D01*
X63246D01*
Y-85420D01*
Y-85268D01*
X63398D01*
Y-85115D01*
Y-84963D01*
X63551D01*
Y-84811D01*
Y-84658D01*
X63703D01*
Y-84506D01*
X63856D01*
Y-84353D01*
Y-84201D01*
X64008D01*
Y-84049D01*
Y-83896D01*
X64160D01*
Y-83744D01*
X64313D01*
Y-83591D01*
Y-83439D01*
X64465D01*
Y-83287D01*
Y-83134D01*
X64618D01*
Y-82982D01*
Y-82829D01*
X64770D01*
Y-82677D01*
X64922D01*
Y-82525D01*
Y-82372D01*
X65075D01*
Y-82220D01*
Y-82067D01*
X65227D01*
Y-81915D01*
Y-81763D01*
X65380D01*
Y-81610D01*
X65532D01*
Y-81458D01*
Y-81305D01*
X65684D01*
Y-81153D01*
Y-81001D01*
X65837D01*
Y-80848D01*
Y-80696D01*
X65989D01*
Y-80543D01*
X66142D01*
Y-80391D01*
Y-80239D01*
X66294D01*
Y-80086D01*
Y-79934D01*
X66446D01*
Y-79781D01*
X66599D01*
Y-79629D01*
Y-79477D01*
X66751D01*
Y-79324D01*
Y-79172D01*
X66904D01*
Y-79019D01*
Y-78867D01*
X67056D01*
Y-78715D01*
X67208D01*
Y-78562D01*
Y-78410D01*
X67361D01*
Y-78257D01*
Y-78105D01*
X67513D01*
Y-77953D01*
Y-77800D01*
X67666D01*
Y-77648D01*
X67818D01*
Y-77495D01*
Y-77343D01*
X67970D01*
Y-77191D01*
Y-77038D01*
X68123D01*
Y-76886D01*
Y-76733D01*
X68275D01*
Y-76581D01*
X68428D01*
Y-76429D01*
Y-76276D01*
X68580D01*
Y-76124D01*
X68732D01*
Y-75971D01*
X68885D01*
Y-75819D01*
X69190D01*
Y-75667D01*
X69494D01*
Y-75514D01*
X69799D01*
Y-75362D01*
X83210D01*
Y-75514D01*
D02*
G37*
G36*
X89459D02*
X89916D01*
Y-75667D01*
X90221D01*
Y-75819D01*
X90373D01*
Y-75971D01*
X90526D01*
Y-76124D01*
X90678D01*
Y-76276D01*
X90830D01*
Y-76429D01*
X90983D01*
Y-76581D01*
X91135D01*
Y-76733D01*
Y-76886D01*
X91288D01*
Y-77038D01*
Y-77191D01*
X91440D01*
Y-77343D01*
Y-77495D01*
X91592D01*
Y-77648D01*
X91745D01*
Y-77800D01*
Y-77953D01*
X91897D01*
Y-78105D01*
Y-78257D01*
X92050D01*
Y-78410D01*
X92202D01*
Y-78562D01*
Y-78715D01*
X92354D01*
Y-78867D01*
Y-79019D01*
X92507D01*
Y-79172D01*
Y-79324D01*
X92659D01*
Y-79477D01*
X92812D01*
Y-79629D01*
Y-79781D01*
X92964D01*
Y-79934D01*
Y-80086D01*
X93116D01*
Y-80239D01*
Y-80391D01*
X93269D01*
Y-80543D01*
X93421D01*
Y-80696D01*
Y-80848D01*
X93574D01*
Y-81001D01*
Y-81153D01*
X93726D01*
Y-81305D01*
Y-81458D01*
X93878D01*
Y-81610D01*
X94031D01*
Y-81763D01*
Y-81915D01*
X94183D01*
Y-82067D01*
Y-82220D01*
X94336D01*
Y-82372D01*
X94488D01*
Y-82525D01*
Y-82677D01*
X94640D01*
Y-82829D01*
Y-82982D01*
X94793D01*
Y-83134D01*
Y-83287D01*
X94945D01*
Y-83439D01*
X95098D01*
Y-83591D01*
Y-83744D01*
X95250D01*
Y-83896D01*
Y-84049D01*
X95402D01*
Y-84201D01*
Y-84353D01*
X95555D01*
Y-84506D01*
X95707D01*
Y-84658D01*
Y-84811D01*
X95860D01*
Y-84963D01*
Y-85115D01*
X96012D01*
Y-85268D01*
Y-85420D01*
X96164D01*
Y-85573D01*
X96317D01*
Y-85725D01*
Y-85877D01*
X96469D01*
Y-86030D01*
Y-86182D01*
X96622D01*
Y-86335D01*
X96774D01*
Y-86487D01*
Y-86639D01*
X96926D01*
Y-86792D01*
Y-86944D01*
X97079D01*
Y-87097D01*
Y-87249D01*
X97231D01*
Y-87401D01*
X97384D01*
Y-87554D01*
Y-87706D01*
X97536D01*
Y-87859D01*
Y-88011D01*
X97688D01*
Y-88163D01*
Y-88316D01*
X97841D01*
Y-88468D01*
X97993D01*
Y-88621D01*
Y-88773D01*
X98146D01*
Y-88925D01*
Y-89078D01*
X98298D01*
Y-89230D01*
Y-89383D01*
X98450D01*
Y-89535D01*
X98603D01*
Y-89687D01*
Y-89840D01*
X98755D01*
Y-89992D01*
Y-90145D01*
X98908D01*
Y-90297D01*
X99060D01*
Y-90449D01*
Y-90602D01*
X99212D01*
Y-90754D01*
Y-90907D01*
X99365D01*
Y-91059D01*
Y-91211D01*
X99517D01*
Y-91364D01*
X99670D01*
Y-91516D01*
Y-91669D01*
X99822D01*
Y-91821D01*
Y-91973D01*
X99974D01*
Y-92126D01*
Y-92278D01*
X100127D01*
Y-92431D01*
X100279D01*
Y-92583D01*
Y-92735D01*
X100432D01*
Y-92888D01*
Y-93040D01*
Y-93193D01*
Y-93345D01*
X100584D01*
Y-93497D01*
Y-93650D01*
Y-93802D01*
Y-93955D01*
Y-94107D01*
X100432D01*
Y-94259D01*
Y-94412D01*
Y-94564D01*
Y-94717D01*
X100279D01*
Y-94869D01*
Y-95021D01*
X100127D01*
Y-95174D01*
Y-95326D01*
X99974D01*
Y-95479D01*
Y-95631D01*
X99822D01*
Y-95783D01*
X99670D01*
Y-95936D01*
Y-96088D01*
X99517D01*
Y-96241D01*
Y-96393D01*
X99365D01*
Y-96545D01*
X99212D01*
Y-96698D01*
Y-96850D01*
X99060D01*
Y-97003D01*
Y-97155D01*
X98908D01*
Y-97307D01*
Y-97460D01*
X98755D01*
Y-97612D01*
X98603D01*
Y-97765D01*
Y-97917D01*
X98450D01*
Y-98069D01*
Y-98222D01*
X98298D01*
Y-98374D01*
Y-98527D01*
X98146D01*
Y-98679D01*
X97993D01*
Y-98831D01*
Y-98984D01*
X97841D01*
Y-99136D01*
Y-99289D01*
X97688D01*
Y-99441D01*
X97536D01*
Y-99593D01*
Y-99746D01*
X97384D01*
Y-99898D01*
Y-100051D01*
X97231D01*
Y-100203D01*
Y-100355D01*
X97079D01*
Y-100508D01*
X96926D01*
Y-100660D01*
Y-100813D01*
X96774D01*
Y-100965D01*
Y-101117D01*
X96622D01*
Y-101270D01*
Y-101422D01*
X96469D01*
Y-101575D01*
X96317D01*
Y-101727D01*
Y-101879D01*
X96164D01*
Y-102032D01*
Y-102184D01*
X96012D01*
Y-102337D01*
X95860D01*
Y-102489D01*
Y-102641D01*
X95707D01*
Y-102794D01*
Y-102946D01*
X95555D01*
Y-103099D01*
Y-103251D01*
X95402D01*
Y-103403D01*
X95250D01*
Y-103556D01*
Y-103708D01*
X95098D01*
Y-103861D01*
Y-104013D01*
X94945D01*
Y-104165D01*
Y-104318D01*
X94793D01*
Y-104470D01*
Y-104623D01*
X94640D01*
Y-104775D01*
Y-104927D01*
X94488D01*
Y-105080D01*
X94336D01*
Y-105232D01*
Y-105385D01*
X94183D01*
Y-105537D01*
Y-105689D01*
X94031D01*
Y-105842D01*
X93878D01*
Y-105994D01*
Y-106147D01*
X93726D01*
Y-106299D01*
Y-106451D01*
X93574D01*
Y-106604D01*
Y-106756D01*
X93421D01*
Y-106909D01*
X93269D01*
Y-107061D01*
Y-107213D01*
X93116D01*
Y-107366D01*
Y-107518D01*
X92964D01*
Y-107671D01*
Y-107823D01*
X92812D01*
Y-107975D01*
X92659D01*
Y-108128D01*
Y-108280D01*
X92507D01*
Y-108433D01*
Y-108585D01*
X92354D01*
Y-108737D01*
Y-108890D01*
X92202D01*
Y-109042D01*
X92050D01*
Y-109195D01*
Y-109347D01*
X91897D01*
Y-109499D01*
Y-109652D01*
X91745D01*
Y-109804D01*
Y-109957D01*
X91592D01*
Y-110109D01*
X91440D01*
Y-110261D01*
Y-110414D01*
X91288D01*
Y-110566D01*
Y-110719D01*
X91135D01*
Y-110871D01*
X90983D01*
Y-111023D01*
Y-111176D01*
X90830D01*
Y-111328D01*
X90678D01*
Y-111481D01*
X90526D01*
Y-111633D01*
X90373D01*
Y-111785D01*
X90068D01*
Y-111938D01*
X89764D01*
Y-112090D01*
X89306D01*
Y-112243D01*
X76200D01*
Y-112090D01*
X76048D01*
Y-111938D01*
Y-111785D01*
Y-111633D01*
Y-111481D01*
Y-111328D01*
Y-111176D01*
Y-111023D01*
Y-110871D01*
Y-110719D01*
Y-110566D01*
Y-110414D01*
Y-110261D01*
Y-110109D01*
Y-109957D01*
Y-109804D01*
Y-109652D01*
Y-109499D01*
Y-109347D01*
Y-109195D01*
Y-109042D01*
Y-108890D01*
Y-108737D01*
Y-108585D01*
Y-108433D01*
Y-108280D01*
Y-108128D01*
Y-107975D01*
Y-107823D01*
Y-107671D01*
Y-107518D01*
Y-107366D01*
Y-107213D01*
Y-107061D01*
Y-106909D01*
Y-106756D01*
Y-106604D01*
Y-106451D01*
Y-106299D01*
Y-106147D01*
Y-105994D01*
Y-105842D01*
Y-105689D01*
Y-105537D01*
Y-105385D01*
Y-105232D01*
Y-105080D01*
Y-104927D01*
Y-104775D01*
Y-104623D01*
Y-104470D01*
Y-104318D01*
Y-104165D01*
Y-104013D01*
Y-103861D01*
Y-103708D01*
Y-103556D01*
Y-103403D01*
Y-103251D01*
Y-103099D01*
Y-102946D01*
Y-102794D01*
Y-102641D01*
Y-102489D01*
Y-102337D01*
Y-102184D01*
Y-102032D01*
Y-101879D01*
Y-101727D01*
Y-101575D01*
Y-101422D01*
Y-101270D01*
Y-101117D01*
Y-100965D01*
Y-100813D01*
Y-100660D01*
Y-100508D01*
Y-100355D01*
Y-100203D01*
Y-100051D01*
Y-99898D01*
Y-99746D01*
Y-99593D01*
Y-99441D01*
Y-99289D01*
Y-99136D01*
Y-98984D01*
Y-98831D01*
Y-98679D01*
Y-98527D01*
Y-98374D01*
Y-98222D01*
Y-98069D01*
Y-97917D01*
Y-97765D01*
Y-97612D01*
Y-97460D01*
Y-97307D01*
Y-97155D01*
Y-97003D01*
Y-96850D01*
Y-96698D01*
Y-96545D01*
Y-96393D01*
Y-96241D01*
Y-96088D01*
Y-95936D01*
Y-95783D01*
Y-95631D01*
X76200D01*
Y-95479D01*
X83210D01*
Y-95631D01*
Y-95783D01*
Y-95936D01*
Y-96088D01*
Y-96241D01*
Y-96393D01*
Y-96545D01*
Y-96698D01*
Y-96850D01*
Y-97003D01*
Y-97155D01*
Y-97307D01*
Y-97460D01*
Y-97612D01*
Y-97765D01*
Y-97917D01*
Y-98069D01*
Y-98222D01*
Y-98374D01*
Y-98527D01*
Y-98679D01*
Y-98831D01*
Y-98984D01*
Y-99136D01*
Y-99289D01*
Y-99441D01*
Y-99593D01*
Y-99746D01*
Y-99898D01*
Y-100051D01*
Y-100203D01*
Y-100355D01*
Y-100508D01*
Y-100660D01*
Y-100813D01*
Y-100965D01*
Y-101117D01*
Y-101270D01*
Y-101422D01*
Y-101575D01*
X83363D01*
Y-101727D01*
Y-101879D01*
Y-102032D01*
Y-102184D01*
Y-102337D01*
Y-102489D01*
Y-102641D01*
Y-102794D01*
Y-102946D01*
Y-103099D01*
Y-103251D01*
Y-103403D01*
Y-103556D01*
Y-103708D01*
Y-103861D01*
Y-104013D01*
Y-104165D01*
Y-104318D01*
Y-104470D01*
X83515D01*
Y-104623D01*
X83668D01*
Y-104775D01*
Y-104927D01*
X83972D01*
Y-105080D01*
X84125D01*
Y-105232D01*
X84582D01*
Y-105385D01*
X85344D01*
Y-105232D01*
X85649D01*
Y-105080D01*
X85954D01*
Y-104927D01*
X86106D01*
Y-104775D01*
X86258D01*
Y-104623D01*
X86411D01*
Y-104470D01*
Y-104318D01*
Y-104165D01*
X86563D01*
Y-104013D01*
Y-103861D01*
Y-103708D01*
Y-103556D01*
Y-103403D01*
Y-103251D01*
Y-103099D01*
Y-102946D01*
Y-102794D01*
Y-102641D01*
Y-102489D01*
Y-102337D01*
Y-102184D01*
Y-102032D01*
Y-101879D01*
Y-101727D01*
Y-101575D01*
Y-101422D01*
Y-101270D01*
Y-101117D01*
Y-100965D01*
Y-100813D01*
Y-100660D01*
Y-100508D01*
Y-100355D01*
Y-100203D01*
Y-100051D01*
Y-99898D01*
Y-99746D01*
Y-99593D01*
Y-99441D01*
Y-99289D01*
Y-99136D01*
Y-98984D01*
Y-98831D01*
Y-98679D01*
Y-98527D01*
Y-98374D01*
Y-98222D01*
Y-98069D01*
Y-97917D01*
Y-97765D01*
Y-97612D01*
Y-97460D01*
Y-97307D01*
Y-97155D01*
Y-97003D01*
Y-96850D01*
Y-96698D01*
Y-96545D01*
Y-96393D01*
Y-96241D01*
Y-96088D01*
Y-95936D01*
Y-95783D01*
Y-95631D01*
Y-95479D01*
Y-95326D01*
Y-95174D01*
Y-95021D01*
Y-94869D01*
Y-94717D01*
Y-94564D01*
Y-94412D01*
Y-94259D01*
Y-94107D01*
Y-93955D01*
Y-93802D01*
Y-93650D01*
Y-93497D01*
Y-93345D01*
Y-93193D01*
Y-93040D01*
Y-92888D01*
Y-92735D01*
Y-92583D01*
Y-92431D01*
Y-92278D01*
Y-92126D01*
Y-91973D01*
Y-91821D01*
Y-91669D01*
Y-91516D01*
Y-91364D01*
Y-91211D01*
Y-91059D01*
Y-90907D01*
Y-90754D01*
Y-90602D01*
Y-90449D01*
Y-90297D01*
Y-90145D01*
Y-89992D01*
Y-89840D01*
Y-89687D01*
Y-89535D01*
Y-89383D01*
Y-89230D01*
Y-89078D01*
Y-88925D01*
Y-88773D01*
Y-88621D01*
Y-88468D01*
Y-88316D01*
Y-88163D01*
Y-88011D01*
Y-87859D01*
Y-87706D01*
Y-87554D01*
Y-87401D01*
Y-87249D01*
Y-87097D01*
Y-86944D01*
Y-86792D01*
Y-86639D01*
Y-86487D01*
Y-86335D01*
Y-86182D01*
Y-86030D01*
Y-85877D01*
Y-85725D01*
Y-85573D01*
Y-85420D01*
Y-85268D01*
Y-85115D01*
Y-84963D01*
Y-84811D01*
Y-84658D01*
Y-84506D01*
Y-84353D01*
Y-84201D01*
Y-84049D01*
Y-83896D01*
Y-83744D01*
Y-83591D01*
Y-83439D01*
Y-83287D01*
Y-83134D01*
Y-82982D01*
Y-82829D01*
Y-82677D01*
Y-82525D01*
Y-82372D01*
Y-82220D01*
Y-82067D01*
Y-81915D01*
Y-81763D01*
Y-81610D01*
Y-81458D01*
Y-81305D01*
Y-81153D01*
Y-81001D01*
Y-80848D01*
Y-80696D01*
Y-80543D01*
Y-80391D01*
Y-80239D01*
Y-80086D01*
Y-79934D01*
Y-79781D01*
Y-79629D01*
Y-79477D01*
Y-79324D01*
Y-79172D01*
Y-79019D01*
Y-78867D01*
Y-78715D01*
Y-78562D01*
Y-78410D01*
Y-78257D01*
Y-78105D01*
Y-77953D01*
Y-77800D01*
Y-77648D01*
Y-77495D01*
Y-77343D01*
Y-77191D01*
Y-77038D01*
Y-76886D01*
Y-76733D01*
Y-76581D01*
Y-76429D01*
Y-76276D01*
Y-76124D01*
Y-75971D01*
Y-75819D01*
Y-75667D01*
Y-75514D01*
Y-75362D01*
X89459D01*
Y-75514D01*
D02*
G37*
D10*
X-114948Y-18324D02*
G03*
X-114948Y-18324I-1250J0D01*
G01*
X-35015Y-22245D02*
G03*
X-35015Y-22245I-1250J0D01*
G01*
X61122Y128598D02*
G03*
X61122Y128598I-1250J0D01*
G01*
X-112558Y-62777D02*
G03*
X-112558Y-62777I-1250J0D01*
G01*
X-8382Y60867D02*
G03*
X-8382Y60867I-1250J0D01*
G01*
D11*
X-127291Y-20110D02*
X-109105Y-9610D01*
X-130105Y26763D02*
X-129955Y26503D01*
X-109255Y-9351D02*
X-109105Y-9610D01*
X-148291Y16263D02*
X-130105Y26763D01*
X-148291Y16263D02*
X-148141Y16003D01*
X-127441Y-19850D02*
X-127291Y-20110D01*
X-84866Y-13065D02*
X-82701Y-11815D01*
X-91866Y-941D02*
X-89701Y309D01*
X-22525Y-18642D02*
X-9448Y-11092D01*
X-1775Y-54582D02*
X11302Y-47032D01*
X-12541Y-123713D02*
X-6791Y-133672D01*
X49813Y-87712D02*
X55563Y-97672D01*
X-38291Y-79112D02*
X-32541Y-89072D01*
X24063Y-43112D02*
X29813Y-53071D01*
X-6791Y-133672D02*
X55563Y-97672D01*
X-38291Y-79112D02*
X24063Y-43112D01*
X40542Y2681D02*
X44440Y4931D01*
X33792Y14373D02*
X37690Y16623D01*
X35043Y-40254D02*
X42293Y-52811D01*
X58426Y-26753D02*
X65676Y-39311D01*
X36168Y103654D02*
X54354Y114154D01*
X26418Y120542D02*
X44604Y131042D01*
X130779Y-34281D02*
X137128Y-45280D01*
X128454Y-42955D02*
X130779Y-34281D01*
X128454Y-42955D02*
X137128Y-45280D01*
X125279Y-37456D02*
X131629Y-48454D01*
X91581Y-18010D02*
X92831Y-20175D01*
X131419Y4990D02*
X132669Y2825D01*
X105331Y-41825D02*
X106581Y-43990D01*
X145169Y-18825D02*
X146419Y-20990D01*
X91581Y-18010D02*
X131419Y4990D01*
X106581Y-43990D02*
X146419Y-20990D01*
X-14007Y26848D02*
X-1449Y34098D01*
X-27507Y50230D02*
X-14949Y57480D01*
X16872Y120083D02*
X33403Y91451D01*
X-2719Y108772D02*
X13812Y80140D01*
X-101929Y29656D02*
X-89371Y36906D01*
X-88429Y6274D02*
X-75871Y13524D01*
X-34935Y88693D02*
X-19435Y61847D01*
X-4624Y106193D02*
X10876Y79347D01*
X-36016Y108565D02*
X-32119Y110815D01*
X-29266Y96874D02*
X-25369Y99124D01*
X-36841Y84995D02*
X-29591Y72438D01*
X-60224Y71495D02*
X-52974Y58938D01*
X-62389Y70245D02*
X-55139Y57688D01*
X-85772Y56745D02*
X-78521Y44187D01*
X-68527Y-5365D02*
X-67277Y-7530D01*
X-56403Y1636D02*
X-55153Y-529D01*
X-32553Y11780D02*
X-20022Y-9924D01*
X-51606Y780D02*
X-39075Y-20924D01*
X-71022Y-43963D02*
X-58491Y-65668D01*
X-90508Y-55213D02*
X-77977Y-76918D01*
X-38922Y-73142D02*
X-37190Y-72142D01*
X-45172Y-62317D02*
X-43440Y-61317D01*
X39250Y-17040D02*
X43147Y-14790D01*
X32500Y-5349D02*
X36397Y-3099D01*
X81344Y-19762D02*
X154956Y22738D01*
X106156Y107262D02*
X154956Y22738D01*
X32544Y64762D02*
X106156Y107262D01*
X32544Y64762D02*
X81344Y-19762D01*
D12*
X-49133Y-85834D02*
X-18033Y-139700D01*
D13*
X21283Y42075D02*
X36487Y50853D01*
X21283Y42075D02*
X30061Y26871D01*
X45265Y35649D01*
X36487Y50853D02*
X45265Y35649D01*
D14*
X-130202Y49212D02*
X-132401Y47942D01*
X-131302Y48577D01*
X-128128Y43079D01*
X-128592Y41345D01*
X-129692Y40710D01*
X-131426Y41175D01*
X-124194Y43884D02*
X-121995Y45154D01*
X-123095Y44519D01*
X-126904Y51116D01*
X-127368Y49382D01*
X-118108Y56194D02*
X-122506Y53655D01*
X-120601Y50357D01*
X-119037Y52726D01*
X-117937Y53361D01*
X-116203Y52896D01*
X-114934Y50697D01*
X-115398Y48963D01*
X-117597Y47693D01*
X-119332Y48158D01*
X-115909Y57464D02*
X-113370Y53066D01*
X-109901Y52137D01*
X-108972Y55605D01*
X-111511Y60003D01*
X-104914Y63812D02*
X-109312Y61273D01*
X-107407Y57974D01*
X-105843Y60343D01*
X-104744Y60978D01*
X-103009Y60513D01*
X-101740Y58314D01*
X-102204Y56580D01*
X-104403Y55311D01*
X-106138Y55775D01*
X-98906Y58485D02*
X-101445Y62882D01*
X-100516Y66351D01*
X-97047Y65422D01*
X-94508Y61024D01*
X-96412Y64322D01*
X-100810Y61783D01*
X-116460Y26739D02*
X-120904Y34435D01*
X-117055Y36657D01*
X-115032Y36115D01*
X-113551Y33549D01*
X-114093Y31526D01*
X-117941Y29304D01*
X-115376Y30786D02*
X-111329Y29701D01*
X-104915Y33404D02*
X-109359Y41101D01*
X-110985Y35031D01*
X-105854Y37993D01*
X-29197Y14094D02*
X-25494Y7680D01*
X-23470Y7138D01*
X-20905Y8619D01*
X-20363Y10642D01*
X-24066Y17056D01*
X-17057Y10841D02*
X-14491Y12322D01*
X-15774Y11581D01*
X-20218Y19278D01*
X-20760Y17255D01*
X22737Y-124028D02*
X27180Y-131725D01*
X31029Y-129503D01*
X31571Y-127479D01*
X28608Y-122348D01*
X26585Y-121806D01*
X22737Y-124028D01*
X40008Y-124319D02*
X34877Y-127281D01*
X37045Y-119187D01*
X36305Y-117905D01*
X34281Y-117363D01*
X31716Y-118844D01*
X31174Y-120867D01*
X8762Y25215D02*
X4318Y32911D01*
X8167Y35133D01*
X10190Y34591D01*
X11671Y32025D01*
X11129Y30002D01*
X7281Y27780D01*
X9846Y29262D02*
X13893Y28177D01*
X17146Y40317D02*
X15321Y37553D01*
X14237Y33507D01*
X15718Y30941D01*
X17741Y30399D01*
X20307Y31880D01*
X20849Y33904D01*
X20108Y35186D01*
X18085Y35728D01*
X14237Y33507D01*
X63986Y-64925D02*
X61963Y-64383D01*
X59397Y-65864D01*
X58855Y-67888D01*
X61817Y-73018D01*
X63841Y-73561D01*
X66406Y-72079D01*
X66948Y-70056D01*
X74103Y-67636D02*
X69659Y-59939D01*
X68033Y-66009D01*
X73164Y-63047D01*
X19559Y131971D02*
X24002Y124275D01*
X27850Y126497D01*
X28393Y128520D01*
X25430Y133651D01*
X23407Y134193D01*
X19559Y131971D01*
X27996Y135132D02*
X28538Y137156D01*
X31103Y138637D01*
X33127Y138095D01*
X33867Y136812D01*
X33325Y134788D01*
X32042Y134048D01*
X33325Y134788D01*
X35348Y134246D01*
X36089Y132963D01*
X35547Y130940D01*
X32981Y129459D01*
X30958Y130001D01*
X13817Y44308D02*
X9373Y52004D01*
X13221Y54226D01*
X15245Y53684D01*
X16726Y51118D01*
X16184Y49095D01*
X12335Y46873D01*
X22941Y58127D02*
X20918Y58669D01*
X18352Y57188D01*
X17810Y55165D01*
X20773Y50034D01*
X22796Y49492D01*
X25361Y50973D01*
X25903Y52996D01*
X24422Y55562D01*
X21857Y54081D01*
X29209Y53195D02*
X31775Y54676D01*
X30492Y53935D01*
X26049Y61632D01*
X25507Y59608D01*
X-100522Y-97680D02*
X-102545Y-97138D01*
X-105111Y-98619D01*
X-105653Y-100642D01*
X-102690Y-105773D01*
X-100667Y-106315D01*
X-98102Y-104834D01*
X-97559Y-102811D01*
X-94994Y-101329D02*
X-92971Y-101872D01*
X-90405Y-100391D01*
X-89863Y-98367D01*
X-92825Y-93236D01*
X-94849Y-92694D01*
X-97414Y-94175D01*
X-97956Y-96199D01*
X-97216Y-97481D01*
X-95192Y-98023D01*
X-91344Y-95802D01*
X-144263Y-24457D02*
X-143721Y-22434D01*
X-145202Y-19868D01*
X-147226Y-19326D01*
X-152357Y-22289D01*
X-152899Y-24312D01*
X-151418Y-26877D01*
X-149394Y-27420D01*
X-149196Y-30726D02*
X-147715Y-33291D01*
X-148455Y-32008D01*
X-140759Y-27565D01*
X-142782Y-27023D01*
X-139079Y-33436D02*
X-137056Y-33979D01*
X-135575Y-36544D01*
X-136117Y-38567D01*
X-141248Y-41530D01*
X-143271Y-40988D01*
X-144752Y-38422D01*
X-144210Y-36399D01*
X-139079Y-33436D01*
X-129490Y-44812D02*
X-128008Y-47378D01*
X-128749Y-46095D01*
X-136446Y-50539D01*
X-137186Y-49256D01*
X-135705Y-51821D01*
X-124107Y-57098D02*
X-123565Y-55074D01*
X-125046Y-52509D01*
X-127069Y-51967D01*
X-132200Y-54929D01*
X-132743Y-56952D01*
X-131261Y-59518D01*
X-129238Y-60060D01*
X-129039Y-63366D02*
X-127558Y-65932D01*
X-128299Y-64649D01*
X-120603Y-60205D01*
X-122626Y-59663D01*
X111897Y-48864D02*
X116341Y-56561D01*
X120189Y-54339D01*
X120731Y-52316D01*
X117769Y-47185D01*
X115745Y-46642D01*
X111897Y-48864D01*
X124037Y-52117D02*
X126603Y-50636D01*
X125320Y-51377D01*
X120876Y-43680D01*
X120334Y-45703D01*
X29834Y78378D02*
X27811Y78920D01*
X25245Y77439D01*
X24703Y75416D01*
X27665Y70285D01*
X29689Y69742D01*
X32254Y71224D01*
X32796Y73247D01*
X36102Y73446D02*
X38668Y74927D01*
X37385Y74186D01*
X32942Y81883D01*
X32399Y79859D01*
X42516Y77148D02*
X45082Y78630D01*
X43799Y77889D01*
X39355Y85585D01*
X38813Y83562D01*
X-2160Y114877D02*
X-6604Y122573D01*
X-2755Y124795D01*
X-732Y124253D01*
X749Y121687D01*
X207Y119664D01*
X-3641Y117442D01*
X-1076Y118924D02*
X2971Y117839D01*
X1093Y127017D02*
X6224Y129979D01*
X6965Y128696D01*
X4796Y120603D01*
X5537Y119320D01*
X-97506Y48053D02*
X-99529Y48595D01*
X-102095Y47114D01*
X-102637Y45090D01*
X-99675Y39959D01*
X-97651Y39417D01*
X-95086Y40899D01*
X-94544Y42922D01*
X-95681Y50817D02*
X-90550Y53779D01*
X-89809Y52497D01*
X-91978Y44403D01*
X-91237Y43120D01*
X2794Y65423D02*
X6497Y59009D01*
X8521Y58467D01*
X11086Y59949D01*
X11629Y61972D01*
X7926Y68386D01*
X20066Y65133D02*
X14935Y62170D01*
X17103Y70264D01*
X16363Y71547D01*
X14339Y72089D01*
X11774Y70608D01*
X11232Y68584D01*
X-42692Y111699D02*
X-47136Y119395D01*
X-43287Y121617D01*
X-41264Y121075D01*
X-39783Y118509D01*
X-40325Y116486D01*
X-44173Y114264D01*
X-41608Y115745D02*
X-37561Y114661D01*
X-38698Y122556D02*
X-38156Y124579D01*
X-35591Y126061D01*
X-33567Y125519D01*
X-32827Y124236D01*
X-33369Y122212D01*
X-31346Y121670D01*
X-30605Y120387D01*
X-31147Y118364D01*
X-33713Y116883D01*
X-35736Y117425D01*
X-36477Y118708D01*
X-35935Y120731D01*
X-37958Y121273D01*
X-38698Y122556D01*
X-35935Y120731D02*
X-33369Y122212D01*
X-69471Y104621D02*
X-71494Y105164D01*
X-74060Y103682D01*
X-74602Y101659D01*
X-71639Y96528D01*
X-69616Y95986D01*
X-67051Y97467D01*
X-66508Y99490D01*
X-63202Y99689D02*
X-60637Y101170D01*
X-61920Y100429D01*
X-66363Y108126D01*
X-66905Y106103D01*
X-51658Y106354D02*
X-56789Y103392D01*
X-54620Y111485D01*
X-55361Y112768D01*
X-57384Y113310D01*
X-59949Y111829D01*
X-60492Y109806D01*
X-91664Y91741D02*
X-93687Y92283D01*
X-96253Y90802D01*
X-96795Y88778D01*
X-93833Y83647D01*
X-91809Y83105D01*
X-89244Y84587D01*
X-88701Y86610D01*
X-89098Y93222D02*
X-88556Y95246D01*
X-85991Y96727D01*
X-83967Y96185D01*
X-83227Y94902D01*
X-83769Y92878D01*
X-81746Y92336D01*
X-81005Y91053D01*
X-81547Y89030D01*
X-84113Y87549D01*
X-86136Y88091D01*
X-86877Y89374D01*
X-86334Y91397D01*
X-88358Y91939D01*
X-89098Y93222D01*
X-86334Y91397D02*
X-83769Y92878D01*
X-57532Y20135D02*
X-61975Y27831D01*
X-58127Y30053D01*
X-56104Y29511D01*
X-54623Y26945D01*
X-55165Y24922D01*
X-59013Y22700D01*
X-56448Y24181D02*
X-52401Y23097D01*
X-53538Y30992D02*
X-52996Y33015D01*
X-50431Y34497D01*
X-48407Y33955D01*
X-47667Y32672D01*
X-48209Y30648D01*
X-49492Y29908D01*
X-48209Y30648D01*
X-46186Y30106D01*
X-45445Y28823D01*
X-45987Y26800D01*
X-48553Y25319D01*
X-50576Y25861D01*
X-50453Y7537D02*
X-54896Y15234D01*
X-51048Y17456D01*
X-49025Y16913D01*
X-47544Y14348D01*
X-48086Y12325D01*
X-51934Y10103D01*
X-49368Y11584D02*
X-45322Y10500D01*
X-42069Y22640D02*
X-47200Y19677D01*
X-44978Y15829D01*
X-43153Y18593D01*
X-41870Y19334D01*
X-39847Y18791D01*
X-38366Y16226D01*
X-38908Y14203D01*
X-41473Y12721D01*
X-43497Y13263D01*
X-7336Y23669D02*
X-9359Y24211D01*
X-11925Y22730D01*
X-12467Y20707D01*
X-9505Y15575D01*
X-7481Y15033D01*
X-4916Y16515D01*
X-4374Y18538D01*
X-380Y29395D02*
X-2205Y26631D01*
X-3289Y22585D01*
X-1808Y20019D01*
X215Y19477D01*
X2781Y20958D01*
X3323Y22982D01*
X2582Y24264D01*
X559Y24806D01*
X-3289Y22585D01*
X17058Y8699D02*
X12615Y16395D01*
X16463Y18617D01*
X18486Y18075D01*
X19967Y15509D01*
X19425Y13486D01*
X15577Y11264D01*
X18142Y12745D02*
X22189Y11661D01*
X29885Y16105D02*
X24755Y13142D01*
X26923Y21236D01*
X26182Y22518D01*
X24159Y23061D01*
X21594Y21579D01*
X21052Y19556D01*
X-81159Y-94561D02*
X-85603Y-86864D01*
X-81755Y-84642D01*
X-79731Y-85184D01*
X-78250Y-87750D01*
X-78792Y-89773D01*
X-82640Y-91995D01*
X-80075Y-90514D02*
X-76028Y-91598D01*
X-73463Y-90117D02*
X-70897Y-88636D01*
X-72180Y-89376D01*
X-76624Y-81680D01*
X-77166Y-83703D01*
X52343Y81731D02*
X48534Y88328D01*
X51832Y90233D01*
X53567Y89768D01*
X54836Y87569D01*
X54372Y85835D01*
X51073Y83930D01*
X58940Y85540D02*
X61139Y86810D01*
X60039Y86175D01*
X56230Y92772D01*
X55766Y91038D01*
X62533Y92013D02*
X66931Y94552D01*
X72258Y100560D02*
X70524Y101024D01*
X68325Y99755D01*
X67860Y98020D01*
X70399Y93622D01*
X72134Y93158D01*
X74333Y94427D01*
X74797Y96162D01*
X73528Y98361D01*
X71329Y97091D01*
X77631Y96332D02*
X73822Y102929D01*
X82029Y98871D01*
X78220Y105468D01*
X80419Y106737D02*
X84228Y100140D01*
X87527Y102045D01*
X87991Y103779D01*
X85452Y108177D01*
X83718Y108642D01*
X80419Y106737D01*
X-105905Y-82172D02*
X-101461Y-89869D01*
X-96330Y-86906D01*
X-93765Y-85425D02*
X-91199Y-83944D01*
X-92482Y-84684D01*
X-96926Y-76988D01*
X-97468Y-79011D01*
X-75264Y-33175D02*
X-77287Y-32633D01*
X-79853Y-34114D01*
X-80395Y-36137D01*
X-77432Y-41269D01*
X-75409Y-41811D01*
X-72844Y-40329D01*
X-72302Y-38306D01*
X-68308Y-27449D02*
X-73439Y-30411D01*
X-71217Y-34259D01*
X-69392Y-31495D01*
X-68110Y-30755D01*
X-66086Y-31297D01*
X-64605Y-33863D01*
X-65147Y-35886D01*
X-67713Y-37367D01*
X-69736Y-36825D01*
X75986Y-39675D02*
X73963Y-39133D01*
X71397Y-40614D01*
X70855Y-42638D01*
X73818Y-47769D01*
X75841Y-48311D01*
X78406Y-46829D01*
X78948Y-44806D01*
X78552Y-38194D02*
X79094Y-36170D01*
X81659Y-34689D01*
X83683Y-35231D01*
X84423Y-36514D01*
X83881Y-38538D01*
X82598Y-39278D01*
X83881Y-38538D01*
X85904Y-39080D01*
X86645Y-40363D01*
X86103Y-42386D01*
X83537Y-43867D01*
X81514Y-43325D01*
X-75062Y-102723D02*
X-77085Y-102181D01*
X-79651Y-103662D01*
X-80193Y-105685D01*
X-77231Y-110816D01*
X-75207Y-111358D01*
X-72642Y-109877D01*
X-72100Y-107854D01*
X-63663Y-104693D02*
X-68794Y-107656D01*
X-66625Y-99562D01*
X-67366Y-98279D01*
X-69389Y-97737D01*
X-71954Y-99219D01*
X-72497Y-101242D01*
X-106481Y-68685D02*
X-108504Y-68142D01*
X-111070Y-69623D01*
X-111612Y-71647D01*
X-108650Y-76778D01*
X-106627Y-77320D01*
X-104061Y-75839D01*
X-103519Y-73815D01*
X-100213Y-73617D02*
X-97647Y-72136D01*
X-98930Y-72877D01*
X-103374Y-65180D01*
X-103916Y-67203D01*
D15*
X-85211Y-119150D02*
X-84824Y-119537D01*
X-85211Y-119924D01*
X-85598Y-119537D01*
Y-119150D01*
X-85211Y-118376D01*
X-84824Y-117989D01*
X-83663Y-117602D01*
X-82115D01*
X-80954Y-117989D01*
X-80568Y-118763D01*
Y-119924D01*
X-80954Y-120698D01*
X-82115Y-121085D01*
X-83276D01*
X-82115Y-117602D02*
X-81341Y-117989D01*
X-80954Y-118763D01*
Y-119924D01*
X-81341Y-120698D01*
X-82115Y-121085D01*
X-81341Y-121472D01*
X-80568Y-122246D01*
X-80181Y-123020D01*
Y-124180D01*
X-80568Y-124954D01*
X-80954Y-125341D01*
X-82115Y-125728D01*
X-83663D01*
X-84824Y-125341D01*
X-85211Y-124954D01*
X-85598Y-124180D01*
Y-123793D01*
X-85211Y-123406D01*
X-84824Y-123793D01*
X-85211Y-124180D01*
X-80954Y-121859D02*
X-80568Y-123020D01*
Y-124180D01*
X-80954Y-124954D01*
X-81341Y-125341D01*
X-82115Y-125728D01*
X-78207Y-117602D02*
X-75498Y-125728D01*
X-77820Y-117602D02*
X-75498Y-124567D01*
X-72790Y-117602D02*
X-75498Y-125728D01*
X-78981Y-117602D02*
X-76659D01*
X-74337D02*
X-72016D01*
X-70584Y-119150D02*
X-70197Y-119537D01*
X-70584Y-119924D01*
X-70971Y-119537D01*
Y-119150D01*
X-70584Y-118376D01*
X-70197Y-117989D01*
X-69036Y-117602D01*
X-67488D01*
X-66327Y-117989D01*
X-65940Y-118763D01*
Y-119924D01*
X-66327Y-120698D01*
X-67488Y-121085D01*
X-68649D01*
X-67488Y-117602D02*
X-66714Y-117989D01*
X-66327Y-118763D01*
Y-119924D01*
X-66714Y-120698D01*
X-67488Y-121085D01*
X-66714Y-121472D01*
X-65940Y-122246D01*
X-65553Y-123020D01*
Y-124180D01*
X-65940Y-124954D01*
X-66327Y-125341D01*
X-67488Y-125728D01*
X-69036D01*
X-70197Y-125341D01*
X-70584Y-124954D01*
X-70971Y-124180D01*
Y-123793D01*
X-70584Y-123406D01*
X-70197Y-123793D01*
X-70584Y-124180D01*
X-66327Y-121859D02*
X-65940Y-123020D01*
Y-124180D01*
X-66327Y-124954D01*
X-66714Y-125341D01*
X-67488Y-125728D01*
X51949Y-122706D02*
X52336Y-123093D01*
X51949Y-123480D01*
X51562Y-123093D01*
Y-122706D01*
X51949Y-121932D01*
X52336Y-121545D01*
X53497Y-121158D01*
X55045D01*
X56206Y-121545D01*
X56592Y-122319D01*
Y-123480D01*
X56206Y-124254D01*
X55045Y-124641D01*
X53884D01*
X55045Y-121158D02*
X55819Y-121545D01*
X56206Y-122319D01*
Y-123480D01*
X55819Y-124254D01*
X55045Y-124641D01*
X55819Y-125028D01*
X56592Y-125802D01*
X56979Y-126575D01*
Y-127736D01*
X56592Y-128510D01*
X56206Y-128897D01*
X55045Y-129284D01*
X53497D01*
X52336Y-128897D01*
X51949Y-128510D01*
X51562Y-127736D01*
Y-127349D01*
X51949Y-126962D01*
X52336Y-127349D01*
X51949Y-127736D01*
X56206Y-125415D02*
X56592Y-126575D01*
Y-127736D01*
X56206Y-128510D01*
X55819Y-128897D01*
X55045Y-129284D01*
X58953Y-121158D02*
X61662Y-129284D01*
X59340Y-121158D02*
X61662Y-128123D01*
X64370Y-121158D02*
X61662Y-129284D01*
X58179Y-121158D02*
X60501D01*
X62823D02*
X65145D01*
X66576Y-122706D02*
X66963Y-123093D01*
X66576Y-123480D01*
X66189Y-123093D01*
Y-122706D01*
X66576Y-121932D01*
X66963Y-121545D01*
X68124Y-121158D01*
X69672D01*
X70833Y-121545D01*
X71220Y-122319D01*
Y-123480D01*
X70833Y-124254D01*
X69672Y-124641D01*
X68511D01*
X69672Y-121158D02*
X70446Y-121545D01*
X70833Y-122319D01*
Y-123480D01*
X70446Y-124254D01*
X69672Y-124641D01*
X70446Y-125028D01*
X71220Y-125802D01*
X71607Y-126575D01*
Y-127736D01*
X71220Y-128510D01*
X70833Y-128897D01*
X69672Y-129284D01*
X68124D01*
X66963Y-128897D01*
X66576Y-128510D01*
X66189Y-127736D01*
Y-127349D01*
X66576Y-126962D01*
X66963Y-127349D01*
X66576Y-127736D01*
X70833Y-125415D02*
X71220Y-126575D01*
Y-127736D01*
X70833Y-128510D01*
X70446Y-128897D01*
X69672Y-129284D01*
X-139735Y38260D02*
X-140264Y38118D01*
X-140405Y38647D01*
X-139876Y38788D01*
X-139541Y38595D01*
X-139065Y37873D01*
X-138923Y37344D01*
X-139168Y36146D01*
X-139942Y34805D01*
X-140858Y33993D01*
X-141721Y34045D01*
X-142727Y34625D01*
X-143204Y35347D01*
X-142958Y36546D01*
X-142378Y37552D01*
X-139942Y34805D02*
X-140664Y34328D01*
X-141528Y34380D01*
X-142533Y34961D01*
X-143010Y35683D01*
X-142958Y36546D01*
X-143680Y36070D01*
X-144738Y35786D01*
X-145601Y35838D01*
X-146607Y36419D01*
X-147084Y37141D01*
X-147225Y37669D01*
X-146980Y38868D01*
X-146206Y40209D01*
X-145290Y41020D01*
X-144762Y41162D01*
X-143898Y41110D01*
X-143563Y40917D01*
X-143421Y40388D01*
X-143950Y40247D01*
X-144092Y40775D01*
X-144209Y35928D02*
X-145408Y36173D01*
X-146413Y36754D01*
X-146890Y37476D01*
X-147032Y38004D01*
X-146980Y38868D01*
X-141896Y31420D02*
X-150288Y33138D01*
X-142090Y31085D02*
X-149283Y32557D01*
X-144605Y26729D02*
X-150288Y33138D01*
X-141510Y32090D02*
X-142670Y30080D01*
X-143831Y28069D02*
X-144992Y26058D01*
X-147049Y25592D02*
X-147577Y25451D01*
X-147719Y25979D01*
X-147190Y26121D01*
X-146855Y25928D01*
X-146378Y25205D01*
X-146237Y24677D01*
X-146482Y23478D01*
X-147256Y22137D01*
X-148171Y21326D01*
X-149035Y21377D01*
X-150041Y21958D01*
X-150517Y22680D01*
X-150272Y23879D01*
X-149691Y24884D01*
X-147256Y22137D02*
X-147978Y21661D01*
X-148842Y21713D01*
X-149847Y22293D01*
X-150324Y23015D01*
X-150272Y23879D01*
X-150994Y23402D01*
X-152051Y23119D01*
X-152915Y23171D01*
X-153920Y23751D01*
X-154397Y24473D01*
X-154539Y25002D01*
X-154293Y26201D01*
X-153519Y27541D01*
X-152604Y28353D01*
X-152075Y28495D01*
X-151212Y28443D01*
X-150877Y28249D01*
X-150735Y27721D01*
X-151264Y27579D01*
X-151405Y28108D01*
X-151523Y23260D02*
X-152722Y23506D01*
X-153727Y24086D01*
X-154204Y24808D01*
X-154345Y25337D01*
X-154293Y26201D01*
X147891Y13428D02*
X147873Y13224D01*
X147668Y13242D01*
X147686Y13446D01*
X147797Y13539D01*
X148113Y13615D01*
X148317Y13597D01*
X148708Y13357D01*
X149082Y12912D01*
X149250Y12485D01*
X149121Y12188D01*
X148788Y11908D01*
X148472Y11832D01*
X148081Y12072D01*
X147801Y12406D01*
X149082Y12912D02*
X149157Y12596D01*
X149028Y12299D01*
X148694Y12019D01*
X148379Y11944D01*
X148081Y12072D01*
X148156Y11757D01*
X148121Y11348D01*
X147992Y11050D01*
X147658Y10770D01*
X147343Y10695D01*
X147138Y10713D01*
X146747Y10953D01*
X146374Y11398D01*
X146205Y11825D01*
X146223Y12029D01*
X146352Y12327D01*
X146463Y12420D01*
X146668Y12402D01*
X146650Y12198D01*
X146446Y12216D01*
X148139Y11552D02*
X147898Y11162D01*
X147565Y10882D01*
X147249Y10806D01*
X147045Y10824D01*
X146747Y10953D01*
X150024Y11789D02*
X148342Y9052D01*
X150117Y11678D02*
X148676Y9332D01*
X151329Y10233D02*
X148342Y9052D01*
X149837Y12012D02*
X150397Y11345D01*
X150956Y10678D02*
X151516Y10011D01*
X151417Y9226D02*
X151399Y9022D01*
X151194Y9040D01*
X151212Y9244D01*
X151323Y9337D01*
X151639Y9413D01*
X151843Y9395D01*
X152234Y9155D01*
X152607Y8710D01*
X152776Y8283D01*
X152647Y7986D01*
X152314Y7706D01*
X151998Y7630D01*
X151607Y7871D01*
X151327Y8204D01*
X152607Y8710D02*
X152683Y8395D01*
X152554Y8097D01*
X152220Y7817D01*
X151905Y7742D01*
X151607Y7871D01*
X151682Y7555D01*
X151647Y7146D01*
X151517Y6848D01*
X151184Y6569D01*
X150869Y6493D01*
X150664Y6511D01*
X150273Y6751D01*
X149900Y7196D01*
X149731Y7623D01*
X149749Y7827D01*
X149878Y8125D01*
X149989Y8218D01*
X150194Y8200D01*
X150176Y7996D01*
X149972Y8014D01*
X151664Y7351D02*
X151424Y6960D01*
X151091Y6680D01*
X150775Y6604D01*
X150571Y6622D01*
X150273Y6751D01*
X-77083Y127230D02*
X-76696Y126843D01*
X-77083Y126456D01*
X-77470Y126843D01*
Y127230D01*
X-77083Y128004D01*
X-76696Y128391D01*
X-75535Y128778D01*
X-73987D01*
X-72826Y128391D01*
X-72439Y127617D01*
Y126456D01*
X-72826Y125682D01*
X-73987Y125295D01*
X-75148D01*
X-73987Y128778D02*
X-73213Y128391D01*
X-72826Y127617D01*
Y126456D01*
X-73213Y125682D01*
X-73987Y125295D01*
X-73213Y124908D01*
X-72439Y124134D01*
X-72052Y123361D01*
Y122200D01*
X-72439Y121426D01*
X-72826Y121039D01*
X-73987Y120652D01*
X-75535D01*
X-76696Y121039D01*
X-77083Y121426D01*
X-77470Y122200D01*
Y122587D01*
X-77083Y122973D01*
X-76696Y122587D01*
X-77083Y122200D01*
X-72826Y124521D02*
X-72439Y123361D01*
Y122200D01*
X-72826Y121426D01*
X-73213Y121039D01*
X-73987Y120652D01*
X-70079Y128778D02*
X-67370Y120652D01*
X-69692Y128778D02*
X-67370Y121813D01*
X-64661Y128778D02*
X-67370Y120652D01*
X-70853Y128778D02*
X-68531D01*
X-66209D02*
X-63888D01*
X-62456Y127230D02*
X-62069Y126843D01*
X-62456Y126456D01*
X-62843Y126843D01*
Y127230D01*
X-62456Y128004D01*
X-62069Y128391D01*
X-60908Y128778D01*
X-59360D01*
X-58199Y128391D01*
X-57812Y127617D01*
Y126456D01*
X-58199Y125682D01*
X-59360Y125295D01*
X-60521D01*
X-59360Y128778D02*
X-58586Y128391D01*
X-58199Y127617D01*
Y126456D01*
X-58586Y125682D01*
X-59360Y125295D01*
X-58586Y124908D01*
X-57812Y124134D01*
X-57425Y123361D01*
Y122200D01*
X-57812Y121426D01*
X-58199Y121039D01*
X-59360Y120652D01*
X-60908D01*
X-62069Y121039D01*
X-62456Y121426D01*
X-62843Y122200D01*
Y122587D01*
X-62456Y122973D01*
X-62069Y122587D01*
X-62456Y122200D01*
X-58199Y124521D02*
X-57812Y123361D01*
Y122200D01*
X-58199Y121426D01*
X-58586Y121039D01*
X-59360Y120652D01*
X67189Y124690D02*
X67576Y124303D01*
X67189Y123916D01*
X66802Y124303D01*
Y124690D01*
X67189Y125464D01*
X67576Y125851D01*
X68737Y126238D01*
X70285D01*
X71446Y125851D01*
X71832Y125077D01*
Y123916D01*
X71446Y123142D01*
X70285Y122755D01*
X69124D01*
X70285Y126238D02*
X71059Y125851D01*
X71446Y125077D01*
Y123916D01*
X71059Y123142D01*
X70285Y122755D01*
X71059Y122368D01*
X71832Y121594D01*
X72220Y120821D01*
Y119660D01*
X71832Y118886D01*
X71446Y118499D01*
X70285Y118112D01*
X68737D01*
X67576Y118499D01*
X67189Y118886D01*
X66802Y119660D01*
Y120047D01*
X67189Y120434D01*
X67576Y120047D01*
X67189Y119660D01*
X71446Y121981D02*
X71832Y120821D01*
Y119660D01*
X71446Y118886D01*
X71059Y118499D01*
X70285Y118112D01*
X74193Y126238D02*
X76902Y118112D01*
X74580Y126238D02*
X76902Y119273D01*
X79611Y126238D02*
X76902Y118112D01*
X73419Y126238D02*
X75741D01*
X78063D02*
X80385D01*
X81816Y124690D02*
X82203Y124303D01*
X81816Y123916D01*
X81429Y124303D01*
Y124690D01*
X81816Y125464D01*
X82203Y125851D01*
X83364Y126238D01*
X84912D01*
X86073Y125851D01*
X86460Y125077D01*
Y123916D01*
X86073Y123142D01*
X84912Y122755D01*
X83751D01*
X84912Y126238D02*
X85686Y125851D01*
X86073Y125077D01*
Y123916D01*
X85686Y123142D01*
X84912Y122755D01*
X85686Y122368D01*
X86460Y121594D01*
X86847Y120821D01*
Y119660D01*
X86460Y118886D01*
X86073Y118499D01*
X84912Y118112D01*
X83364D01*
X82203Y118499D01*
X81816Y118886D01*
X81429Y119660D01*
Y120047D01*
X81816Y120434D01*
X82203Y120047D01*
X81816Y119660D01*
X86073Y121981D02*
X86460Y120821D01*
Y119660D01*
X86073Y118886D01*
X85686Y118499D01*
X84912Y118112D01*
M02*
